<svg width="542" height="109" viewBox="0 0 542 109" fill="none" xmlns="http://www.w3.org/2000/svg">
<path d="M373.718 44.3741C373.718 45.1541 373.805 47.1472 373.718 49.3137C373.021 68.0319 355.351 83.4571 343.077 83.4571C330.63 83.4571 324.885 73.9246 323.405 61.0125C307.475 55.9864 301.904 36.9215 309.042 27.909C315.222 19.9365 323.927 28.9489 327.148 35.7949H326.887C324.362 30.5954 317.311 30.5088 312.698 36.2282C305.299 45.3274 312.002 59.0194 327.757 61.0992C325.32 60.4926 323.231 59.626 323.231 58.7594C323.231 34.755 345.515 13.957 364.578 13.957C370.497 13.957 378.853 18.3766 378.853 28.9489C378.853 47.0605 354.393 61.2725 334.634 62.2258C334.373 71.8448 335.678 82.5038 343.077 82.5038C355.438 82.5038 359.703 65.3455 360.574 62.0524C361.705 57.4595 362.14 54.5132 362.314 53.5599C366.928 50.7002 369.452 48.6204 373.718 44.3741ZM339.944 51.6534L339.334 51.4801C339.16 41.7744 343.861 23.3161 357.614 24.0961C368.843 24.7027 373.543 33.8885 373.631 42.0343C376.503 38.0481 378.244 33.7151 378.244 29.1222C378.244 19.4165 370.584 14.9969 363.359 14.9969C351.173 14.9969 341.075 27.8224 336.549 44.4608C334.198 53.2999 334.634 58.6728 334.634 61.3592C344.296 61.0125 354.567 57.5462 362.663 52.1734C366.58 35.7949 366.667 27.3024 357.701 26.2625C344.209 24.616 339.508 42.8143 339.944 51.6534Z" fill="#297230"/>
<path d="M68.22 30.888V76.8928C68.22 79.4113 69.0633 82.0138 70.2438 83.273H56.1614C57.4263 82.0138 58.1852 79.4113 58.1852 76.8928V28.7893L34.5738 83.273H32.8873L9.36031 28.7893V74.5422C9.36031 78.0681 11.0468 81.5101 13.7453 83.273H2.86719C5.56563 81.5101 7.33648 78.0681 7.33648 74.5422V30.888C7.33648 28.3695 6.15591 25.7671 4.38506 24.5078H18.0459L37.8626 70.0089L57.6792 24.5078H70.2438C69.0633 25.7671 68.22 28.3695 68.22 30.888ZM80.5765 83.273C81.8414 82.0138 82.6003 79.4113 82.6003 76.8928V30.888C82.6003 28.3695 81.8414 25.7671 80.5765 24.5078H94.7433C93.4784 25.7671 92.6352 28.3695 92.6352 30.888V76.8928C92.6352 79.4113 93.4784 82.0138 94.7433 83.273H80.5765ZM152.173 76.8928C153.606 79.5792 155.968 82.1817 158.16 83.273H147.366C145.005 82.0138 142.897 79.915 141.548 77.4805L133.621 62.2015C132.694 60.4385 131.176 58.9274 129.152 58.0879H117.093V76.8928C117.093 79.4113 117.936 82.0138 119.201 83.273H105.035C106.299 82.0138 107.058 79.4113 107.058 76.8928V30.888C107.058 28.3695 106.299 25.7671 105.035 24.5078H131.26C143.572 24.5078 153.016 31.5596 153.016 41.2979C153.016 49.9448 145.595 56.4929 135.223 57.8361C139.861 58.8435 143.74 61.1102 145.511 64.804L152.173 76.8928ZM117.093 26.1868V56.4089H129.067C137.247 56.4089 142.644 50.4485 142.644 41.2979C142.644 32.1473 137.247 26.1868 129.067 26.1868H117.093ZM218.138 83.273H201.358C203.128 81.4261 203.381 77.8163 201.779 74.2064L198.49 66.5669H170.494L167.627 73.199C165.856 77.1447 166.446 81.0064 169.061 83.273H157.93C160.291 81.7619 162.989 77.9842 165.182 73.1151L186.6 24.5078H190.479L212.657 74.962C214.259 78.6558 216.452 81.9298 218.138 83.273ZM171.253 64.8879H197.731L184.492 34.4979L171.253 64.8879ZM266.293 24.5078V36.093C263.594 30.1325 258.282 26.1868 252.885 26.1868H235.429V53.4707H249.175C253.307 53.4707 257.439 51.204 259.547 47.762V60.8583C257.439 57.4163 253.307 55.1497 249.175 55.1497H235.429V76.8928C235.429 79.4113 236.61 82.0138 238.381 83.273H223.371C224.636 82.0138 225.395 79.4113 225.395 76.8928V30.888C225.395 28.3695 224.636 25.7671 223.371 24.5078H266.293ZM302.195 81.594C307.676 81.594 313.157 77.4805 315.94 71.2681V83.273H273.439C274.704 82.0138 275.463 79.4113 275.463 76.8928V30.888C275.463 28.3695 274.704 25.7671 273.439 24.5078H287.606C286.341 25.7671 285.498 28.3695 285.498 30.888V81.594H302.195Z" fill="#297230"/>
<path d="M432.43 76.8934C433.864 79.5798 436.225 82.1823 438.418 83.2737H427.624C425.263 82.0144 423.154 79.9157 421.805 77.4811L413.879 62.2021C412.951 60.4392 411.433 58.9281 409.409 58.0886H397.351V76.8934C397.351 79.4119 398.194 82.0144 399.459 83.2737H385.292C386.557 82.0144 387.316 79.4119 387.316 76.8934V30.8887C387.316 28.3702 386.557 25.7677 385.292 24.5084H411.517C423.829 24.5084 433.274 31.5603 433.274 41.2985C433.274 49.9454 425.853 56.4935 415.481 57.8367C420.119 58.8441 423.998 61.1108 425.769 64.8046L432.43 76.8934ZM397.351 26.1875V56.4096H409.325C417.505 56.4096 422.901 50.4491 422.901 41.2985C422.901 32.1479 417.505 26.1875 409.325 26.1875H397.351ZM474.22 81.5947C479.617 81.5947 484.93 77.649 487.628 71.6046V83.2737H443.019C444.284 82.0144 445.043 79.4119 445.043 76.8934V30.8887C445.043 28.3702 444.284 25.7677 443.019 24.5084H486.785V36.0936C484.086 30.1331 478.774 26.1875 473.377 26.1875H455.078V52.6318H469.666C473.798 52.6318 477.93 50.3651 480.039 46.9232V60.0194C477.93 56.5775 473.798 54.3108 469.666 54.3108H455.078V81.5947H474.22ZM516.383 84.1132C503.987 84.1132 494.458 78.2367 494.458 71.0169C494.458 67.4071 496.82 65.1404 499.855 65.1404C502.975 65.1404 505.252 67.4071 505.252 70.4293C502.469 70.4293 500.699 72.0243 500.699 74.5428C500.699 78.9922 506.348 81.9305 514.275 81.9305C523.888 81.9305 530.381 77.649 530.381 71.6046C530.381 64.9725 522.961 61.7824 514.528 58.4244C505.842 54.8985 495.555 50.7849 495.555 40.2072C495.555 30.385 504.578 23.6689 516.721 23.6689C527.767 23.6689 536.284 29.2097 536.284 36.0096C536.284 39.4516 534.007 41.7183 530.972 41.7183C527.852 41.7183 525.406 39.4516 525.406 36.4294C528.526 36.4294 530.55 35.0022 530.55 32.5677C530.55 28.5381 525.49 25.7677 518.576 25.7677C509.721 25.7677 503.397 30.301 503.397 36.4294C503.397 43.3973 511.408 46.6713 519.503 49.7775C529.116 53.3874 538.561 57.1651 538.561 67.4071C538.561 77.3971 529.454 84.1132 516.383 84.1132Z" fill="#297230"/>
</svg>
