<svg width="1380" height="42" viewBox="0 0 1380 42" fill="none" xmlns="http://www.w3.org/2000/svg">
<path d="M1348.34 35.4408C1332.86 36.5346 1320.04 36.4885 1307.29 36.1922C1296.56 35.9295 1286.03 35.7746 1273.79 36.2795C1261.08 36.8082 1247.3 37.4207 1233.02 37.7144C1191.78 38.4273 1146.52 38.0698 1106.12 38.4363C1096.17 38.5337 1086.6 38.6893 1077.32 38.8193C1041.14 39.3266 1004.47 39.336 968.191 39.3601C959.058 39.3622 949.562 39.3607 940.465 39.3571C938.126 39.3565 936.702 39.1485 935.688 39.1479C925.778 39.1431 909.27 39.3616 899.401 39.3481C878.789 39.3215 842.853 39.3952 823.934 39.2164C815.926 39.1409 807.646 39.1141 804.553 38.6153C801.625 38.5926 800.022 39.0475 799.256 39.0729C799.247 39.0725 799.238 39.072 799.23 39.0716C796.757 39.1505 790.526 38.8386 789.155 38.8596C788.95 38.8629 790.216 39.1901 786.881 39.0941C786.584 39.0858 786.859 38.8623 784.049 38.8618C783.314 38.8617 773.925 39.2128 771.24 39.2362C762.301 39.3127 740.977 39.0636 730.288 39.0784C728.654 39.0799 727.714 39.2114 725.992 39.2154C725.102 39.2176 723.769 39.0771 723.496 39.0782C722.301 39.0843 717.033 39.7333 718.922 38.4609C713.436 38.5468 715.055 38.9653 714.93 39.2382C708.993 39.2834 706.12 38.6879 704.562 39.3237C675.321 39.2766 646.051 39.2325 616.807 39.201C616.798 39.3044 616.79 39.4078 616.781 39.5112C608.078 39.1119 605.278 39.8153 600.26 39.2243C597.193 39.3617 594.194 39.4992 591.19 39.637C580.524 39.6019 569.911 39.586 559.404 39.5877C515.091 39.6309 471.188 39.7876 427.273 40.8125C404.147 41.1366 381.152 41.1722 358.174 41.0234C354.905 40.9976 354.081 40.7747 348.7 40.7135C348.083 40.7062 347.451 40.701 346.811 40.6975C340.986 40.6654 333.502 40.7158 326.371 40.4273C319.419 40.1685 309.149 39.3382 301.458 38.6609C299.72 38.5129 298.456 38.5447 298.259 38.5274C297.115 38.4246 297.075 38.1998 295.963 38.0972C294.638 37.9752 293.023 37.9965 291.488 37.849C285.773 37.2982 279.588 36.7933 278.875 36.7284C275.418 36.4003 274.66 36.1201 274.386 36.0935C270.53 35.734 271.975 36.0552 271.016 35.9618C269.457 35.8109 268.098 35.6378 266.67 35.4611C263.511 35.0684 260.354 34.6667 255.566 34.542C255.77 34.3801 255.975 34.2181 256.18 34.056C250.918 33.4572 254.354 34.2629 253.268 34.2472C252.823 34.2502 241.498 33.0447 240.633 32.9325C237.596 32.5787 237.547 32.3301 237.283 32.2988C236.65 32.2259 228.985 31.6584 225.126 31.0164C220.553 30.2588 226.018 30.3754 224.888 30.1577C224.695 30.1204 219.87 29.6355 219.248 29.4144C218.556 29.1726 222.71 29.6347 222.656 29.5599C222.617 29.5063 215.749 28.4113 217.095 28.3305C218.182 28.2148 227.526 29.5487 229.541 29.6639C229.873 29.6827 229.282 29.3335 229.576 29.3556C230.731 29.4726 252.485 31.7653 253.486 31.8617C252.341 31.8808 251.188 31.8974 250.044 31.9132C251.551 32.0755 253.058 32.2348 254.572 32.3915C252.407 32.2894 250.262 32.1827 248.099 32.0684C251.181 33.4548 260.916 33.2797 261.356 32.7781C261.543 32.5516 255.729 31.3985 261.228 31.5239C260.398 31.3877 259.584 31.2518 258.751 31.1132C257.029 31.06 255.31 31.0025 253.585 30.9404C254.728 31.1153 255.848 31.2862 256.991 31.4573C256.564 31.4914 256.134 31.525 255.708 31.5587C252.495 31.3753 249.284 31.1769 246.076 30.967C244.444 30.7451 244.801 30.5636 243.678 30.4049C229.671 28.3847 238.77 30.033 229.591 28.9304C228.287 28.6689 226.99 28.4076 225.699 28.147C226.106 28.6775 222.072 27.9204 217.154 27.5928C217.763 27.5023 218.355 27.4104 218.961 27.3201C211.837 26.571 197.631 24.4953 201.41 25.7067C201.013 25.6544 200.619 25.603 200.228 25.5526C199.044 25.3992 197.803 25.2478 196.605 25.1049C195.214 25.1443 193.86 25.1929 192.473 25.2444C190.591 25.1072 188.691 24.9787 186.797 24.8583C186.793 24.7818 186.788 24.7054 186.784 24.6289C188.296 24.7117 189.796 24.7986 191.319 24.8929C190.187 24.5902 189.087 24.2928 187.953 23.9963C186.835 23.9714 185.717 23.9494 184.593 23.9294C189.277 24.399 183.075 24.4233 181.559 24.6616C177.597 24.5838 175.088 24.085 173.754 24.0117C173.134 23.9728 165.738 24.3962 168.656 23.7348C164.861 23.6871 161.063 23.6535 157.262 23.6281C155.784 23.5227 154.295 23.4183 152.812 23.315C156.053 23.0523 146.711 22.3427 153.605 22.3984C158.748 22.4424 160.002 22.8213 162.441 22.8998C164.636 22.9724 165.807 22.7869 168.196 22.8645C179.857 23.2574 189.954 23.7288 200.305 24.6142C204.208 24.9548 208.184 25.3694 212.337 25.8321C215.325 26.1658 218.067 26.355 220.084 26.5926C222.356 26.8613 219.475 26.828 222.383 27.0803C225.44 27.3461 226.127 27.1902 226.932 27.2749C227.438 27.3285 229.002 27.7116 230.465 27.8735C236.48 28.546 245.345 29.2756 246.203 29.359C247.166 29.4922 264.26 31.2893 265.079 31.3547C265.448 31.4013 264.797 31.9091 266.975 31.749C267.357 31.7209 267.825 31.6723 268.393 31.5969C269.551 31.6776 270.737 31.7621 271.898 31.8457C271.697 31.9827 271.496 32.1197 271.294 32.2566C278.24 32.2694 275.865 32.3903 282.527 32.9398C298.479 34.372 322.437 36.3834 340.128 36.5156C342.922 36.5624 344.484 36.4907 346.866 36.4629C347.795 36.4507 348.91 36.4461 350.241 36.4566C354.566 36.4988 365.869 37.1142 363.41 36.3389C373.018 37.0467 374.579 35.9087 379.386 36.6268C379.967 36.5249 380.55 36.4228 381.133 36.3206C386.36 36.7675 387.969 36.3797 393.677 36.3191C396.134 36.2915 393.302 36.7677 398.261 36.2334C399.214 36.2699 400.159 36.3061 401.106 36.342C400.884 36.4564 400.666 36.5707 400.447 36.6851C405.956 36.5739 406.313 36.6283 405.684 36.2063C408.35 36.272 411.008 36.3348 413.667 36.3941C413.996 36.2522 414.332 36.1102 414.662 35.9682C413.456 35.7962 360.734 36.2078 346.87 36.0861C345.866 36.0838 345.079 36.0819 344.524 36.0819C334.637 35.6964 314.688 35.2421 306.697 34.4749C303.501 34.2038 302.112 33.7796 297.48 33.3468C292.847 32.9113 287.012 32.6637 284.556 32.453C281.417 32.1825 273.782 31.4916 267.043 30.9135C256.158 29.9519 247.648 29.0158 263.999 30.2525C263.246 30.0336 262.504 29.8147 261.753 29.5942C251.178 29.1612 255.018 29.1912 246.304 28.2666C242.644 27.8757 233.884 27.2701 234.454 26.6266C241.259 27.2424 248.479 28.219 254.408 28.7719C254.99 28.8308 262.051 29.1655 265.657 29.5465C266.354 29.6218 266.799 29.7024 267.136 29.7813C268.383 30.0739 268.143 30.3335 273.755 30.2233C278.931 31.4047 282.03 31.0225 283.418 31.076C285.824 31.1706 286.056 31.5544 288.451 31.8133C291.055 32.0957 292.88 32.0178 293.238 32.048C296.81 32.4189 315.571 33.7947 316.444 33.9161C315.677 33.9361 314.918 33.955 314.164 33.9726C319.037 34.367 318.045 33.9291 319.327 33.956C320.271 34.0068 321.252 34.0569 322.192 34.1026C321.809 34.1611 321.44 34.22 321.048 34.2773C326.825 34.524 322.428 34.0869 330.599 34.3941C335.811 34.5758 341.181 34.9655 341.662 34.9526C341.811 34.9491 340.185 34.7221 342.297 34.7345C343.635 34.7421 345.242 34.7578 346.887 34.7872C349.583 34.836 352.111 34.9248 352.536 35.097C354.268 35.0755 354.102 34.8113 354.334 34.8075C355.335 34.8029 372.451 34.8097 375.511 34.7913C384.007 34.7703 393.456 34.8244 402.662 34.7468C403.606 34.7389 402.998 34.9095 403.952 34.9004C405.466 34.8881 413.296 34.5812 414.457 34.5517C417.374 34.489 425.042 34.5164 426.251 34.4203C426.423 34.4073 423.888 34.212 426.84 34.1037C426.962 34.0992 427.076 34.0953 427.182 34.0919C429.999 34.0043 428.36 34.3106 428.537 34.3112C435.2 34.3168 439.386 34.009 443.937 33.8857C445.389 33.8456 448.115 34.0274 450.198 33.9259C450.443 33.9142 449.953 33.7094 450.194 33.695C453.324 33.5325 456.252 33.8867 457.614 33.8941C460.934 33.9128 459.116 33.6455 459.294 33.6409C461.534 33.6027 464.487 33.6724 467.859 33.6229C482.827 33.4073 495.072 33.3144 511.063 33.2525C513.022 33.2451 515.451 33.4393 515.768 33.4382C516.75 33.4321 516.456 33.1918 519.154 33.1853C524.982 33.1721 530.392 33.1394 535.999 33.1243C537.149 33.1213 537.646 33.3434 538.537 33.3452C541.495 33.3484 551.618 32.7317 551.696 33.461C554.567 33.13 557.029 33.101 559.387 33.1524C561.617 33.2041 563.745 33.3363 566.118 33.3275C577.26 33.2858 594.708 33.1204 605.854 33.1858C608.173 33.1999 609.275 33.3849 610.58 33.3928C612.993 33.4072 626.223 33.2828 626.992 33.3113C628.394 33.3659 627.518 34.1898 634.557 33.4631C638.699 33.4064 638.22 33.7448 639.079 33.7618C645.712 33.8885 652.207 33.1269 650.997 33.8189C658.761 33.6217 663.753 33.2343 666.96 33.8762C666.922 33.5612 670.531 33.368 674.933 33.4832C670.415 34.0175 671.053 34.3549 660.105 34.271C659.933 34.2696 660.26 34.0414 660.089 34.0401C658.527 34.0265 655.327 34.1454 652.667 34.1364C649.997 34.1273 651.48 33.9697 650.412 33.974C649.437 33.9784 649.469 34.1964 648.061 34.2012C643.497 34.2156 639.519 34.281 636.883 34.2884C635.24 34.2929 633.412 34.1039 632.15 34.1056C627.318 34.1138 616.921 34.2788 610.624 34.2682C609.322 34.2655 609.861 34.0496 607.031 34.0365C606.7 34.035 605.5 34.2611 603.041 34.3118C600.508 34.3626 598.57 34.2548 596.973 34.2808C595.641 34.3026 596.19 34.5007 593.479 34.5182C591.122 34.5311 565.416 34.4425 563.886 34.4166C561.873 34.3758 560.934 34.0986 559.729 34.1358C559.644 34.1389 559.536 34.1844 559.39 34.239C559.159 34.3208 558.837 34.4233 558.376 34.4361C545.865 34.7855 518.606 34.5114 504.35 34.5964C477.919 34.7309 453.443 35.1181 427.204 35.7097C424.025 35.7612 420.811 35.8019 417.571 35.8356C417.041 35.887 416.495 35.9383 415.965 35.9894C418.993 35.9679 422.021 35.9416 425.046 35.907C425.067 36.0339 425.087 36.1607 425.108 36.2876C426.037 36.2809 426.715 36.2605 427.211 36.2312C429.005 36.128 428.633 35.9197 428.548 35.7801C430.058 35.8353 431.582 35.8876 433.09 35.9383C434.397 35.4774 444.46 35.5687 449.642 35.4861C453.026 35.4298 456.998 35.2057 458.812 35.1955C462.569 35.1744 462.462 35.4507 462.757 35.4512C463.275 35.4507 468.484 35.1502 472.323 35.1237C477.872 35.0855 478.523 35.4985 486.196 35.0842C495.898 35.2307 506.979 35.0599 517.49 34.9772C515.445 35.374 524.993 34.9646 529.215 34.9553C538.641 34.9327 548.857 34.9308 559.392 34.9437C577.742 34.9671 597.06 35.0349 613.966 35.1061C617.392 35.1201 619.898 35.3448 621.807 35.3344C622.837 35.329 623.286 35.0589 624.723 35.0924C624.977 35.0989 625.15 35.3506 627.837 35.3846C634.365 35.4703 650.894 35.0283 655.078 35.507C677.652 35.4046 700.297 35.3068 722.912 35.2103C723.479 35.3127 724.045 35.4151 724.612 35.5175C728.895 34.9873 745.887 35.2804 754.17 35.248C768.742 35.1904 787.341 35.0096 800.117 34.9794C802.893 34.9729 805.163 35.1199 807.78 35.1144C808.912 35.1117 810.325 34.9168 811.503 34.9147C824.671 34.887 842.6 35.0676 855.905 35.0475C886.083 35.002 914.583 34.9939 945.191 34.9201C952.854 34.9012 960.653 34.8787 968.178 34.8527C1014.28 34.726 1060.3 34.3023 1106.08 33.5797C1148.3 33.2351 1190.58 33.7844 1232.9 32.9579C1239.68 32.7914 1246.42 32.5654 1253.17 32.2748C1254.55 32.2152 1254.47 32.4411 1255.55 32.3932C1261.84 32.1324 1275.83 31.1485 1282.85 30.859C1288.45 30.5993 1297.33 30.7031 1299.25 30.3378C1279.41 30.1462 1258.22 31.9323 1237.27 32.3005C1235.77 32.3338 1235.59 32.1264 1235.4 32.1277C1233.71 32.1368 1233.39 32.1994 1232.88 32.2784C1232.39 32.3551 1231.7 32.45 1229.24 32.5087C1227.6 32.571 1212.41 32.0907 1214.24 32.7331C1210.58 32.5303 1185.05 32.5053 1180.12 32.5845C1178.62 32.6135 1179.68 32.8113 1179.38 32.8217C1178.09 32.8672 1177.51 32.5933 1176.36 32.5872C1173.28 32.5736 1165.47 32.7973 1163.98 32.7952C1160.56 32.7929 1150.32 32.5644 1145.8 32.6157C1141.68 32.6625 1142.44 32.9495 1138.87 32.9757C1136.04 32.9962 1139.13 32.7535 1132.83 32.6833C1129.71 32.647 1118.82 32.8387 1116.18 32.8528C1113.49 32.8635 1110.61 32.705 1106.93 32.7467C1106.66 32.7498 1106.37 32.7533 1106.08 32.7571C1100.47 32.8233 1089.99 33.0434 1084.9 33.1744C1084.58 33.1822 1083.81 33.4167 1083.02 33.4238C1081.39 33.4387 1081.88 33.1558 1080.64 33.1462C1079.43 33.1448 1058.02 33.4657 1054.43 33.4851C1051.89 33.5093 1050.23 33.6888 1048.82 33.7004C1047.7 33.7091 1047.61 33.4804 1046.51 33.4875C1046.19 33.4903 1043.23 33.7156 1040.35 33.7334C1037.62 33.7522 1027.05 33.6344 1025.94 33.6381C1025.15 33.6421 1026.03 33.8 1023.68 33.8103C1021.45 33.8196 1020.2 33.6148 1018.96 33.6187C1016.06 33.6279 1013.08 33.8241 1010 33.8399C1001.54 33.8827 1001.81 33.6173 1001.36 33.6112C999.967 33.5935 999.397 33.8361 998.933 33.843C996.957 33.8716 992.092 33.9352 990.361 33.9508C988.19 33.9705 987.123 33.746 984.877 33.753C983.218 33.759 979.586 33.994 975.682 34.0169C973.338 34.0309 970.818 34.0464 968.176 34.0618C961.29 34.1029 953.831 34.1419 947.326 34.15C944.758 34.1534 944.348 33.9458 943.555 33.942C939.376 33.9223 936.897 34.1602 935.766 34.1594C927.246 34.1558 911.959 33.8161 904.019 33.797C900.765 33.7898 886.655 33.979 878.647 33.9589C877.726 33.957 878.589 33.7924 877.563 33.8193C875.098 33.8838 875.363 34.2162 874.13 34.2077C873.539 34.2026 872.191 34.0167 870.46 34.0002C861.407 33.9145 855.319 34.0673 851.168 34.062C811.768 34.0095 771.628 33.9569 734.844 33.9623C730.729 33.9631 725.671 34.1659 719.464 33.9797C719.273 33.8765 719.082 33.7733 718.891 33.67C718.674 33.7719 718.457 33.8737 718.24 33.9755C711.221 34.0373 708.593 34.1707 701.413 34.0486C700.796 34.0383 698.914 33.5683 697.754 34.1557C690.69 33.7383 694.55 34.1624 689.28 34.2075C684.013 34.2525 678.914 34.1272 673.79 34.1034C670.975 33.8965 682.78 33.3991 683.509 33.3999C684.737 33.4005 686.016 33.6906 687.203 33.7048C690.715 33.7474 694.146 33.5125 694.928 33.7719C699.452 33.4922 693.821 33.6354 694.385 33.3871C697.403 33.4864 700.43 33.5858 703.469 33.6853C705.038 32.841 721.77 33.9234 720.62 33.283C721.958 33.4102 723.291 33.5373 724.621 33.6645C730.45 32.854 733.921 33.4175 741.704 33.6497C741.142 33.5473 740.579 33.4449 740.017 33.3425C740.175 33.2993 747.058 33.1283 744.597 33.5691C751.657 32.9847 751.361 33.9461 757.685 33.2455C761.443 33.1529 759.184 33.5585 765.911 33.5453C769.9 33.5377 774.85 33.3221 779.299 33.3033C780.325 33.2996 780.773 33.5328 781.687 33.532C782.601 33.531 783.047 33.3015 784.154 33.2947C786.44 33.2802 789.4 33.4382 790.826 33.4213C792.104 33.4069 793.925 33.2031 797.019 33.1684C807.795 33.0457 804.531 33.3374 806.232 33.4334C808.047 33.5355 809.377 33.154 813.024 33.1945C813.39 33.1987 812.444 33.4366 813.633 33.4261C814.592 33.4179 815.076 33.1599 818.243 33.1087C819.479 33.0882 839.109 33.0127 842.122 33.0046C846.675 32.9927 856.937 33.1991 861.629 33.1919C863.421 33.1897 865.428 32.9805 867.367 32.9795C873.788 32.9764 884.092 32.9806 892.247 32.9791C899.6 32.9783 912.459 33.4146 916.505 32.9955C926.821 32.9245 929.329 33.2713 930.117 33.2747C932.225 33.2839 933.198 33.0488 935.81 33.0328C945.949 32.9729 956.885 32.9339 968.172 32.9006C995.634 32.8196 1024.88 32.7703 1047.82 32.5493C1067.27 32.3918 1086.64 31.9663 1106.07 31.7893C1148.19 31.4556 1190.52 32.0001 1232.85 31.16C1246.87 30.832 1260.85 30.1303 1274.77 29.4003C1274.96 29.2866 1275.16 29.173 1275.36 29.0594C1266.44 29.4563 1255.92 29.855 1247.07 30.1427C1242.85 30.2862 1237.88 30.491 1232.84 30.6481C1223.84 30.9268 1214.66 31.0233 1209.1 30.6169C1212.58 30.5292 1218.34 30.7339 1218.22 30.3705C1211.95 30.4217 1205.66 30.4415 1199.4 30.4469C1199.59 30.6138 1199.77 30.7807 1199.96 30.9476C1193.42 31.0298 1186.72 31.0103 1180.15 31.043C1179 31.0484 1179.81 31.1997 1178.82 31.2017C1177.71 31.2035 1178.46 31.0476 1178.25 31.0466C1175.45 31.0479 1174.59 31.205 1174.25 31.2031C1173.37 31.1974 1174.06 31.0478 1171.52 31.0071C1166.81 30.9307 1163.45 31.3264 1164.55 30.6657C1163.03 30.6655 1161.52 30.6652 1159.99 30.6648C1159.6 30.8446 1159.21 31.0244 1158.81 31.2042C1149.48 30.4743 1145.17 31.746 1140.01 30.7347C1138.3 30.889 1136.6 31.0436 1134.9 31.1986C1133.93 31.0191 1132.97 30.8396 1132.02 30.6603C1131.84 30.8149 1131.65 30.9694 1131.47 31.124C1123.06 31.0267 1114.21 31.1893 1106.06 31.269C1105.28 31.2768 1104.51 31.2834 1103.77 31.2887C1097.69 31.3343 1096.21 31.292 1090.81 31.3745C1078.79 31.5712 1090.72 31.0931 1080.73 30.9091C1081.25 31.0906 1081.77 31.2722 1082.29 31.4538C1080.64 31.5477 1079 31.6417 1077.33 31.7356C1076.2 31.5977 1074.99 31.4607 1073.87 31.3222C1068.78 32.1955 1065.41 31.5896 1064.75 31.5979C1064.19 31.6057 1062.25 32.1147 1056.19 31.7709C1058.73 32.4038 1051.55 31.8228 1051.01 31.8228C1050.52 31.8258 1043.44 32.0365 1040.73 32.0506C1038.43 32.0645 1033.73 31.9571 1030.48 31.9854C1027.53 32.0111 1027.83 32.2327 1027.62 32.2364C1024.1 32.2771 1026.32 32.0894 1023.71 32.0967C1021.04 32.1042 1019.16 32.3053 1018.56 32.2915C1018.28 32.284 1019.23 32.0703 1017.93 32.0574C1014.43 32.022 1008.21 32.2355 1004.25 32.2476C1002.81 32.2524 1001.05 32.0832 999.513 32.0843C997.137 32.0866 995.986 32.326 994.554 32.3247C994.053 32.3236 991.096 31.9726 987.15 32.0424C986.345 32.0565 984.331 32.8315 981.454 31.7533C981.234 31.9071 981.013 32.0609 980.792 32.2147C975.003 32.3998 971.365 32.2646 968.17 32.1506C964.378 32.0036 961.816 31.8896 958.516 32.5178C949.277 32.4171 955.619 31.9717 954.608 31.9083C953.955 31.8683 950.889 31.9937 950.543 31.9877C949.941 31.9759 950.044 31.8377 949.382 31.8399C937.509 31.8916 942.774 32.1404 938.971 32.3135C930.012 32.7243 923.017 31.8653 938.598 32.0967C938.598 32.0197 938.598 31.9427 938.598 31.8657C934.764 31.9474 924.976 31.9305 928.249 31.534C930.847 31.2227 954.004 31.3747 940.887 30.9708C937.858 30.8794 936.342 31.1715 931.2 30.6396C927.801 30.6166 927.184 31.3196 922.656 31.046C923.41 31.2895 924.162 31.533 924.911 31.7764C918.696 32.1068 910.835 31.6916 906.017 31.8362C904.349 31.8856 898.422 33.0617 899.806 31.8926C897.089 31.9696 884.006 31.7729 881.605 31.8805C881.044 31.9065 880.191 32.5291 871.833 32.3228C871.249 32.2456 870.665 32.1685 870.08 32.0913C877.772 31.8555 864.177 31.6422 867.869 31.048C869.138 31.3115 875.223 31.4655 876.189 31.5975C877.883 31.8247 872.836 32.1269 879.268 32.038C883.299 31.0474 871.774 31.5157 873.547 30.5777C865.218 31.0249 864.313 30.6091 862.432 30.5941C854.399 30.5331 849.226 30.6381 841.621 30.5372C839.769 30.7314 853.567 30.9936 855.307 30.9086C848.992 31.597 859.853 31.6154 864.417 31.2053C864.805 31.4107 865.192 31.6161 865.579 31.8216C859.599 31.7172 853.814 31.6666 847.888 31.8421C847.506 31.7655 847.124 31.689 846.741 31.6124C848.063 31.495 849.36 31.3777 850.706 31.2602C845.79 31.0759 848.755 31.673 842.214 31.1542C842.012 31.3862 841.809 31.6183 841.606 31.8504C835.282 31.7802 829.087 31.7097 822.767 31.6392C819.518 32.1075 807.435 31.9462 809.643 31.3421C804.761 31.3044 810.775 31.6189 806.22 31.7698C804.239 31.8353 800.357 31.8569 799.396 31.6958C799.81 31.1222 805.619 31.0455 807.368 30.6502C806.324 30.5244 779.277 30.9592 781.684 30.2866C779.523 30.208 780.514 30.5524 776.625 30.6445C765.719 30.9011 748.817 30.2341 740.036 31.0987C750.347 31.5657 753.403 31.0581 761.306 31.0306C766.357 31.0128 797.142 30.9027 790.264 31.5152C791.393 31.4371 792.521 31.3591 793.649 31.281C794.794 31.4603 795.941 31.6396 797.086 31.8189C793.851 31.8479 790.647 31.8769 787.425 31.9059C786.656 31.7267 785.887 31.5475 785.117 31.3683C784.763 31.4971 784.408 31.6259 784.053 31.7547C782.696 31.7815 781.338 31.8082 779.979 31.835C780.361 31.6803 780.742 31.5255 781.124 31.3707C779.026 31.3463 776.946 31.3218 774.855 31.2973C775.418 31.5031 775.98 31.709 776.543 31.9148C766.703 31.9758 770.033 31.8435 764.572 31.4626C760.496 31.427 767.382 31.8172 758.759 31.9259C748.732 32.0522 755.31 31.4156 742.321 31.5625C742.134 31.6656 741.947 31.7688 741.76 31.8719C738.906 31.7716 736.055 31.6713 733.193 31.5711C733.571 31.6988 733.949 31.8264 734.327 31.9541C728.42 31.91 720.323 32.1621 718.354 31.6618C724.346 31.8978 724.271 31.0211 722.725 30.8614C719.498 30.5331 672.129 30.889 662.947 30.9229C651.24 30.9646 642.364 30.6951 631.603 31.1416C638.944 31.4846 664.394 31.1632 669.286 31.4029C669.764 31.4264 669.626 32.2303 672.702 31.3225C682.701 31.4646 694.503 31.1959 706.946 31.2098C706.566 31.4416 706.186 31.6734 705.805 31.9052C698.155 31.4207 691.127 32.509 692.106 31.609C690.581 31.6106 689.06 31.6122 687.541 31.6138C687.541 31.7687 687.541 31.9235 687.542 32.0784C685.252 32.0808 682.971 32.0833 680.697 32.0857C680.697 31.9309 680.697 31.776 680.697 31.6211C678.788 31.6232 676.882 31.6253 674.983 31.6274C674.786 31.7821 674.588 31.9367 674.391 32.0914C668.754 31.7766 649.367 32.6576 657.867 31.7252C655.216 31.7284 652.558 31.7316 649.867 31.735C649.876 31.8483 649.885 31.9615 649.893 32.0747C648.742 32.0914 647.593 32.1081 646.448 32.1247C646.825 32.0218 647.202 31.9188 647.58 31.8158C642.348 32.0061 637.351 31.4732 633.894 31.8326C636.167 31.9069 638.464 31.9812 640.758 32.0556C636.329 31.9143 628.34 32.2304 627.639 32.2322C625.417 32.2369 624.251 32.0097 621.871 32.0016C619.726 31.9949 620.025 32.1704 619.626 32.1648C608.112 32.0036 612.431 31.0447 607.064 32.1808C606.492 32.0277 605.922 31.8747 605.353 31.7217C604.594 31.8515 603.846 31.9812 603.085 32.111C599.608 32.1048 596.184 32.0989 592.818 32.0931C593.941 32.2835 595.07 32.4738 596.206 32.6642C591.156 32.7593 588.697 32.3784 588.205 32.3705C586.79 32.3508 586.15 32.5943 585.716 32.5956C564.826 32.6184 577.572 32.3782 567.105 31.4923C563.353 31.8584 567.145 32.2071 567.688 32.5691C563.939 32.4507 562.168 32.4793 559.385 32.4984C558.394 32.505 557.286 32.5105 555.957 32.5091C554.586 32.5074 553.135 32.3155 552.291 32.3153C551.556 32.315 549.302 32.5298 547.453 32.5363C544.413 32.5471 540.621 32.4351 536.452 32.4527C533.201 32.4667 522.669 32.6534 515.545 32.6886C512.413 32.7032 513.156 32.5257 512.358 32.5291C512.007 32.5308 509.727 32.7505 507.662 32.7621C491.571 32.8521 475.033 32.8252 458.886 33.0366C448.373 33.1619 437.761 33.5633 427.177 33.7213C426.305 33.7339 425.354 33.7456 424.481 33.7544C422.036 33.7783 423.326 33.6104 422.27 33.6164C421.907 33.6183 421.467 33.8928 417.701 33.8177C416.34 33.7901 417.907 33.5904 416.563 33.5919C415.903 33.5922 415.637 33.8306 411.833 33.9085C404.922 34.048 401.204 33.7427 400.584 33.7548C399.424 33.7763 399.765 33.9693 398.218 33.9804C390.678 34.0329 384.384 34.0653 377.652 34.0684C374.505 34.0859 352.853 34.0039 351.647 33.9361C348.979 33.8304 351.468 33.4534 348.048 33.4277C347.662 33.4642 347.28 33.5007 346.903 33.5371C346.319 33.5909 345.74 33.6442 345.167 33.6972C345.739 33.7348 346.316 33.7721 346.9 33.8089C347.818 33.8692 348.812 33.9296 349.733 33.9883C348.831 33.9495 347.829 33.9242 346.898 33.9088C343.51 33.854 340.099 33.8992 337.697 33.8369C337.102 33.8249 331.857 33.5034 329.162 33.4215C330.282 33.3854 331.474 33.3485 332.593 33.3064C332.192 33.2292 331.802 33.1521 331.389 33.0739C325.995 32.9995 320.331 32.7439 314.806 32.3936C312.819 32.2662 313.5 32.1516 311.49 32.0144C299.794 31.1452 302.684 32.0035 291.57 29.7986C295.341 30.2748 309.199 31.2451 311.211 31.3821C312.607 31.5123 318.006 32.8718 316.063 31.6883C327.311 32.2858 317.509 32.4035 328.021 32.7242C327.816 32.5861 327.611 32.448 327.407 32.3098C331.073 32.368 333.803 32.3788 336.008 32.6659C336.506 32.2847 341.51 32.4077 346.916 32.5161C350.137 32.583 353.494 32.6568 356.062 32.6617C365.931 32.6821 377.088 32.561 386.864 32.5336C390.233 32.5243 392.143 32.769 392.563 32.7678C393.184 32.7653 394.915 32.5458 396.151 32.5417C400.751 32.5329 414.764 32.8302 418.244 32.1896C394.473 32.3687 370.681 32.3694 346.922 32.1017C343.288 32.0551 339.671 31.9888 336.054 31.8961C339.494 32.3889 311.779 31.3049 310.389 31.0221C309.096 30.9195 310.2 30.7876 309.816 30.7483C306.949 30.4596 304.473 30.5664 303.563 30.4943C302.867 30.4389 301.477 30.1872 299.005 29.9811C298.552 29.9432 298.414 30.0815 297.927 30.0402C294.706 29.764 291.529 29.4755 288.298 29.1839C288.096 29.1642 287.309 28.8737 286.493 28.7993C285.669 28.7247 284.847 28.8694 284.641 28.8515C282.058 28.6156 277.654 28.0794 275.189 27.8649C274.344 27.7916 274.919 28.0019 273.964 27.9179C271.03 27.6628 272.004 27.4299 268.388 27.2096C267.926 27.1817 267.644 27.1991 267.346 27.2195C266.86 27.2536 266.331 27.2964 264.887 27.1545C263.232 26.991 263.449 26.5805 263.189 26.5426C262.832 26.4968 257.106 26.3219 255.27 25.8624C259.401 25.5135 250.829 25.4001 251.202 25.7427C248.955 25.4426 246.711 25.1359 244.464 24.8236C243.689 24.8222 242.912 24.82 242.134 24.8171C233.084 23.5019 227.523 23.0722 218.604 21.9847C218.171 21.9268 210.659 20.952 211.027 20.8848C215.554 21.1588 220.055 21.6496 222.895 22.3182C227.716 22.1759 227.736 22.7235 235.408 23.4757C237.983 23.7259 238.177 23.5622 238.475 23.5923C246.905 24.4377 259.598 25.613 267.402 26.5361C268.88 26.7133 270.107 26.8847 271.182 27.0591C273.084 27.0735 266.297 26.4491 268.947 26.5634C270.393 26.5769 305.036 29.543 293.921 29.1579C295.067 29.2424 296.221 29.3267 297.371 29.4088C298.568 28.9353 304.271 29.5347 303.577 30.055C304.127 29.9801 304.678 29.9047 305.23 29.8287C306.305 29.8111 307.577 29.8538 309.355 29.9474C313.932 30.2691 333.728 31.3195 346.93 31.4203C353.334 31.5135 358.163 31.5453 358.868 31.5243C358.918 31.3877 358.967 31.2511 359.017 31.1145C354.986 31.0508 350.932 31.0044 346.936 30.9547C333.121 30.7839 319.306 30.4518 304.257 28.945C304.812 29.1174 305.371 29.2895 305.925 29.4604C298.167 28.6905 290.422 27.7803 282.669 26.9033C290.918 27.4143 303.995 28.4312 312.609 29.1545C314.136 29.2869 313.003 29.3936 313.354 29.4378C314.275 29.5513 315.286 29.3098 318.592 29.4609C321.902 29.6279 330.237 30.1736 330.981 30.1802C332.457 30.2186 336.439 29.9768 338.938 30.0332C342.256 30.1089 340.031 30.2824 340.692 30.3008C342.956 30.3635 345.04 30.3225 346.944 30.3318C347.306 30.3335 347.664 30.3372 348.017 30.3442C351.215 30.4099 357.819 30.8523 360.052 30.2972C357.787 30.256 355.489 30.2119 353.228 30.1648C365.556 30.0703 375.22 30.8233 387.378 30.2658C390.141 29.5777 380.094 29.6702 388.588 29.3766C387.045 29.387 385.504 29.3966 383.961 29.4055C383.599 29.5494 383.238 29.6932 382.876 29.837C380.218 29.7317 377.564 29.6242 374.905 29.5141C375.663 29.6446 376.424 29.7749 377.179 29.905C367.757 29.9841 358.253 30.0516 354.965 29.3304C354.769 29.4957 354.573 29.6609 354.378 29.8262C352.079 29.7524 349.487 29.7355 346.952 29.7292C339.802 29.7173 333.189 29.7209 335.005 29.088C334.604 29.1264 334.17 29.1635 333.757 29.2008C328.495 28.8491 330.74 29.2999 328.756 29.2753C328.187 29.2878 317.98 28.6166 322.512 28.5526C312.563 27.8334 315.582 28.8313 312.831 28.7087C306.481 27.892 294.951 27.5297 299.834 27.2658C298.884 27.1603 297.941 27.054 296.989 26.9458C293.82 27.2074 290.793 26.3261 287.425 25.8179C286.278 25.7018 285.134 25.586 283.982 25.47C283.181 25.5783 282.421 25.6905 281.626 25.7999C270.863 23.9859 274.121 26.6306 269.334 24.2498C270.107 24.1959 270.889 24.1434 271.676 24.0919C273.494 24.1896 275.324 24.2915 277.171 24.3974C274.003 24.0969 270.833 23.8041 267.649 23.5207C263.468 23.1482 259.295 22.7459 255.124 22.3186C245.869 20.8731 240.529 20.8982 230.226 19.3212C229.25 19.2657 228.278 19.2104 227.302 19.1546C228.341 18.8217 232.095 19.3048 225.111 18.3274C224.547 17.9476 229.283 18.4337 231.409 18.9119C231.925 19.0283 227.476 18.7787 232.443 19.3368C235.813 19.7117 229.738 18.6726 239.825 19.9074C239.461 19.791 239.093 19.674 238.726 19.557C239.825 19.6778 240.916 19.7967 242.012 19.915C242.963 20.1949 243.925 20.4751 244.877 20.7531C247.408 20.7548 248.852 20.5497 254.559 21.1788C252.997 21.1397 255.066 21.7026 257.902 21.9594C257.914 21.831 257.926 21.7027 257.938 21.5743C264.631 22.1009 262.505 22.2706 267.737 22.4506C267.864 22.4549 267.996 22.4592 268.131 22.4635C268.705 22.6135 269.272 22.7633 269.833 22.9129C272.977 22.7408 284.521 23.4814 282.365 23.9262C285.64 23.6021 292.372 24.4947 294.832 25.204C295.034 25.0933 295.241 24.9831 295.444 24.8725C296.783 24.9643 298.119 25.0541 299.452 25.1409C300.19 25.2811 300.926 25.4204 301.663 25.5586C302.613 25.5591 303.565 25.558 304.513 25.5548C305.072 25.7275 305.635 25.8999 306.193 26.0711C307.721 26.0329 309.249 25.9893 310.774 25.9395C311.691 26.1052 312.618 26.2692 313.535 26.4302C313.653 26.1857 322.837 26.6432 325.401 26.9047C326.172 26.8593 326.948 26.8125 327.708 26.7638C328.077 26.9055 328.448 27.0471 328.822 27.1884C329.412 27.1078 329.962 27.025 330.54 26.9425C331.866 27.0894 333.15 27.231 334.484 27.3704C339.877 26.8883 340.033 27.4254 341.252 27.4484C342.335 27.4661 344.661 27.4154 346.982 27.3524C349.475 27.284 351.917 27.2064 352.591 27.2234C353.914 27.2564 354.499 27.4859 355.566 27.5161C372.831 27.9888 365.751 27.3282 369.208 27.2539C371.084 27.2095 372.401 27.4234 374.059 27.405C376.886 27.3808 391.166 27.1107 391.986 27.1317C393.182 27.1693 390.366 28.1606 394.256 27.9006C394.379 27.372 402.702 27.8853 398.811 27.1564C402.234 27.2121 405.656 27.2637 409.079 27.3101C408.695 26.6834 412.907 27.0672 417.508 26.9939C419.963 26.9552 423.587 26.8507 427.083 26.7575C432.895 26.6036 438.433 26.4782 438.118 26.8879C439.662 26.7101 441.247 26.5313 442.786 26.3543C453.499 26.353 463.967 26.0144 474.584 25.9098C502.056 25.6451 531.392 25.6502 559.368 25.6844C563.354 25.6904 567.627 25.6966 571.604 25.7039C573.091 25.7068 572.879 25.9179 573.957 25.9201C579.793 25.9298 594.405 25.752 602.504 25.785C605.065 25.7953 606.272 25.9988 607.085 26.0068C609.827 26.0356 609.182 25.766 610.452 25.7717C612.515 25.7806 622.984 26.0157 626.706 26.0368C628.54 26.0472 630.613 25.8292 632.729 25.8927C632.91 25.8978 632.576 26.1199 632.729 26.1236C636.576 26.1454 634.262 25.957 635.566 25.9653C644.896 26.0246 654.768 26.0166 664.87 26.0505C667.417 26.0592 671.176 26.2111 673.336 26.2234C674.155 26.2277 672.683 26.0612 675.518 26.072C676.49 26.0756 676.823 26.294 677.922 26.307C682.68 26.3614 684.198 25.657 688.264 26.2179C696.129 26.1723 709.718 25.9782 716.852 25.9674C718.542 25.9651 719.367 26.0935 720.981 26.0896C722.13 26.087 724.132 25.8849 725.911 25.8808C727.69 25.8768 730.501 26.0647 733.933 26.0545C737.555 26.044 742.022 25.9267 742.839 25.9266C743.821 25.9257 744.279 26.1659 745.262 26.162C748.234 26.1515 756.185 25.9075 760.011 25.8784C764.122 25.8475 766.591 25.9619 767.997 25.9583C769.299 25.9539 770.816 25.7493 771.411 25.747C772.336 25.743 772.554 25.9802 773.728 25.9771C775.647 25.9715 777.62 25.8204 780.499 25.8137C832.307 25.6906 883.144 25.775 933.537 25.8523C939.044 25.8608 942.36 25.6879 950.608 25.7452C953.993 25.7683 952.572 26.0166 955.171 25.964C956.322 25.9403 956.033 25.7484 957.477 25.7355C961.062 25.7046 965.016 25.7378 968.152 25.7725C970.924 25.8007 973.169 25.8299 974.433 25.8246C975.565 25.8202 976.704 25.598 979.102 25.5871C996.208 25.5069 1016.41 25.4855 1034.8 25.3157C1044.48 25.2287 1059.28 24.9825 1070.42 24.8116C1082.05 24.6379 1094.05 24.4259 1106.01 24.335C1125.7 24.1924 1145.22 24.271 1162.76 24.2525C1186.14 24.2186 1209.49 24.2116 1232.66 23.6701C1251.69 23.2602 1270.6 21.9082 1289.88 21.3152C1273.24 21.4384 1252.01 22.9019 1232.65 23.2623C1228.67 23.355 1224.78 23.4158 1221.02 23.4595C1183.72 23.8406 1144.94 23.5182 1106 23.8397C1078.37 24.1742 1050.91 24.719 1023.78 24.824C1007.12 24.9215 987.477 25.0036 968.15 25.0133C961.199 25.0165 954.161 25.0105 947.352 24.9925C946.245 24.9895 943.937 25.1629 941.481 25.1502C940.952 25.1472 934.484 24.8534 932.352 24.8542C934.446 25.3959 925.803 24.926 923.263 24.9435C919.998 24.9665 913.026 25.2511 905.295 25.1089C898.172 24.9802 900.206 24.7672 899.795 24.7546C897.329 24.6732 896.461 25.0127 894.553 25.0496C886.77 25.1988 846.659 25.051 835.48 25.0493C832.607 25.0492 832.522 24.8343 831.873 24.8342C830.154 24.8346 827.702 25.0495 824.93 25.0509C819.921 25.0529 814.232 24.8557 811.472 24.8576C804.907 24.8618 792.47 25.1131 783.952 25.1257C781.554 25.1293 781.7 24.9055 780.613 24.9073C775.843 24.9157 763.399 25.1908 757.473 25.1987C747.844 25.2114 737.947 25.076 728.147 25.159C727.527 25.0598 726.907 24.9605 726.287 24.8613C725.31 24.967 724.333 25.0727 723.357 25.1783C706.802 25.1144 689.945 25.3561 673.481 25.3599C671.595 25.3604 662.202 25.1803 660.629 25.1814C659.326 25.183 658.047 25.4317 656.127 25.3976C653.43 25.3504 656.008 24.8764 651.551 25.0166C650.356 25.0545 651.513 25.2546 649.116 25.3204C648.324 25.3421 633.023 25.4441 632.206 25.4315C630.841 25.4099 629.629 24.9798 629.279 24.971C627.464 24.9249 627.532 25.2562 626.286 25.2882C622.599 25.384 617.875 25.1683 617.293 25.1741C610.109 25.2462 596.742 25.5334 589.262 25.3916C588.212 25.3718 588.338 25.1248 588.154 25.1171C586.969 25.0683 586.237 25.3507 585.121 25.3594C579.208 25.4029 569.737 25.2346 563.613 25.202C562.917 25.1985 561.46 25.3374 560.244 25.3274C559.932 25.3248 559.64 25.3218 559.367 25.3186C553.3 25.2508 555.438 25.0471 555.04 25.0393C554.089 25.0189 552.419 25.2627 549.966 25.2847C543.348 25.3431 530.94 25.3511 524.039 25.3618C518.693 25.3693 518.867 25.0953 518.508 25.0914C517.815 25.0846 515.738 25.3124 512.297 25.3538C505.762 25.4348 506.387 25.2173 503.752 25.2407C503.516 25.242 503.968 25.4498 500.878 25.4891C495.051 25.5622 482.012 25.4443 475.741 25.514C473.283 25.54 472.837 25.7472 470.308 25.776C466.403 25.8188 457.655 25.7069 456.926 25.72C456.727 25.7228 456.31 25.962 455.173 25.9782C453.868 25.9967 452.703 25.8941 451.724 25.9101C446.384 25.9928 437.218 26.5826 439.751 25.6989C438.039 25.9377 436.346 26.1763 434.643 26.4133C432.105 26.4504 429.59 26.4888 427.08 26.5241C418.575 26.6415 410.177 26.7469 401.638 26.8094C399.152 26.827 397.077 26.6741 394.976 26.6856C392.877 26.6997 383.62 26.9633 382.073 26.9641C379.307 26.9775 363.626 26.9499 361.669 26.9105C357.862 26.8516 354.171 26.4747 352.619 26.5267C351.37 26.5685 352.542 26.7752 350.152 26.8049C349.226 26.8166 348.102 26.8073 346.99 26.7858C343.169 26.7153 338.806 26.4745 337.87 26.4539C337.35 26.4405 338.312 26.627 333.334 26.4978C330.656 26.4238 329.228 26.2029 328.241 26.1672C327.936 26.1525 328.387 26.4588 323.075 26.1862C319.413 25.989 317.862 25.6843 317.482 25.6637C316.911 25.6297 315.508 25.7748 313.186 25.6181C307.78 25.2711 297.9 24.1915 292.734 23.6989C291.742 23.6059 292.052 23.9049 288.067 23.5194C285.217 23.2433 285.735 23.0754 284.668 22.9703C282.966 22.8037 280.422 22.8359 276.67 22.4989C275.434 22.3882 272.085 22.074 267.799 21.6919C255.899 20.6754 236.67 18.4257 235.342 18.2195C234.129 18.0393 232.731 17.8822 232.138 17.6996C232.666 17.6459 233.196 17.5922 233.72 17.5377C239.009 18.5108 236.91 17.83 238.325 17.9551C240.379 18.141 248.091 19.0057 249.966 19.0877C250.633 19.1176 249.144 18.7329 252.72 18.9623C256.564 19.2055 258.228 19.7809 259.805 19.3443C265.184 20.4782 270.461 20.2197 264.184 19.51C260.683 19.2512 226.259 15.3423 219.124 14.4762C214.822 13.9866 207.673 13.3036 201.281 12.8059C199.149 12.6393 197.073 12.4904 195.277 12.3569C191.044 12.0185 180.707 11.4708 181.166 11.1933C177.436 10.9811 181.371 11.4702 180.586 11.4766C178.945 11.4733 167.345 10.798 165.156 10.7425C154.342 10.4006 140.686 10.4 130.277 9.69702C130.759 9.6293 131.246 9.56156 131.738 9.49384C134.101 9.41613 144.981 9.93492 146.238 9.57597C136.741 9.29891 127.186 9.08241 117.89 8.66946C111.7 8.38497 105.538 7.7534 99.2582 6.90973C99.3755 7.14275 93.3714 6.3163 87.4125 5.61379C83.2419 5.15311 79.4042 4.56347 79.0158 4.44472C79.3783 4.33097 79.7368 4.21629 80.0975 4.10145C83.5245 4.7709 85.7512 5.08487 87.4512 5.26925C91.413 5.71652 92.616 5.62997 97.6112 6.61274C100.597 7.02308 99.7254 6.63193 101.194 6.77129C115.668 7.89927 101.388 7.46973 112.42 8.25448C110.077 7.78042 114.017 7.9858 117.918 8.07938C119.47 8.11914 121.112 8.1626 122.273 8.19206C123.2 8.23357 135.742 8.71575 137.25 8.74541C145.63 8.94485 160.115 9.1346 168.499 9.66762C175.111 9.94072 178.765 9.81628 184.798 10.0564C189.382 10.2494 188.056 10.3779 190.216 10.5038C194.742 10.7809 196.297 10.298 199.143 11.3438C199.903 11.3769 200.653 11.4115 201.394 11.4475C203.745 11.5633 206.084 11.7003 208.413 11.8494C208.4 11.9776 208.388 12.1059 208.375 12.2342C210.3 12.4225 212.21 12.6183 214.124 12.8197C214.696 12.7508 215.282 12.6838 215.851 12.6154C221.886 13.443 219.318 13.4805 220.41 13.9658C221.714 14.1341 223.013 14.303 224.308 14.4718C225.355 14.306 226.38 14.1381 227.421 13.9719C233.217 14.6395 238.992 15.3021 244.761 15.927C245.12 16.0936 245.48 16.2602 245.841 16.4267C245.866 16.3002 245.891 16.1737 245.917 16.0472C253.32 16.7943 260.703 17.4765 268.097 18.0623C270.533 18.2556 272.893 18.4485 275.318 18.6519C276.808 18.6655 272.448 18.1821 268.122 17.7604C264.816 17.4377 261.527 17.1096 261.016 17.058C254.441 16.4377 236.922 14.7869 236.934 14.3128C232.798 14.2108 220.407 12.7328 216.546 11.9133C222.449 12.5721 228.3 13.2606 234.139 13.927C233.967 13.7537 233.796 13.5804 233.625 13.4071C240.829 14.8184 241.898 14.9051 249.412 15.0846C249.398 15.2902 249.384 15.4957 249.37 15.7012C254.641 15.5266 263.7 17.5611 264.042 16.6957C265.42 16.851 266.788 17.0024 268.171 17.1516C269.608 17.3054 270.972 17.4552 272.399 17.6122C278.448 18.0333 269.184 16.5027 292.752 18.8985C294.368 19.0616 294.012 19.257 296.445 19.4556C297.14 19.5054 301.193 19.5631 308.795 20.1584C309.977 20.2491 310.064 20.4512 311.287 20.5602C314.127 20.8218 319.81 20.7526 317.209 21.2356C328.463 22.0116 323.82 21.2311 327.333 21.1847C329.664 21.1377 329.192 21.4925 331.211 21.4768C333.735 21.4422 331.874 21.0575 341.927 21.4419C340.821 21.447 339.658 21.4487 338.544 21.449C339.104 21.5637 339.67 21.678 340.243 21.7919C345.047 21.6807 345.434 21.8928 347.055 21.6579C347.363 21.6111 347.717 21.5465 348.166 21.4578C352.387 21.7635 356.008 21.8171 361.769 21.8073C372.967 21.7747 367.231 21.1364 380.011 21.9988C382.084 21.8851 384.155 21.77 386.226 21.6534C389.632 21.8986 386.876 22.2078 391.96 22.2656C387.983 21.6639 398.704 21.8714 400.514 21.3213C400.704 21.4496 400.894 21.5779 401.085 21.7062C402.228 21.7025 403.348 21.6984 404.492 21.6937C404.495 21.5903 404.498 21.4869 404.501 21.3834C406.007 21.4547 407.527 21.525 409.033 21.5943C410.177 21.4856 411.297 21.3765 412.441 21.2666C414.296 21.4709 416.182 21.6731 418.042 21.8734C419.223 21.8781 420.365 21.8823 421.558 21.885C421.188 21.7348 420.799 21.5846 420.437 21.4341C421.95 21.4711 423.461 21.5064 424.945 21.5399C423.491 21.344 424.018 21.0967 427.005 20.9903C427.582 20.9698 428.233 20.9543 428.959 20.9447C432.821 20.8885 428.469 21.4949 436.776 21.1239C437.355 21.0985 438.379 20.6975 446.273 20.496C455.751 20.2671 451.175 20.6187 452.862 20.6003C453.168 20.5971 456.064 20.3645 458.797 20.3022C460.3 20.2671 461.856 20.4012 462.024 20.3988C462.959 20.3806 463.226 20.1612 464.583 20.138C467.872 20.0817 472.403 20.1428 475.666 20.1032C477.199 20.0849 478.508 19.9458 479.197 19.9386C480.245 19.9284 481.568 20.1133 482.576 20.1047C486.494 20.0696 492.266 19.3817 494.025 20.2723C497.788 19.4185 505.477 20.3784 504.888 19.8259C514.787 19.9763 540.961 19.1986 540.327 20.1373C545.809 19.3206 545.352 19.9009 547.714 19.8816C550.38 19.8604 549.033 19.7095 551.065 19.7105C553.801 19.7119 556.539 19.7304 559.352 19.744C561.309 19.7543 563.302 19.762 565.362 19.7583C564.6 19.8882 563.842 20.0181 563.089 20.148C568.131 20.1766 566.509 19.8826 571.611 19.8133C581.081 19.6875 577.128 19.9342 578.528 20.2666C578.248 19.943 589.287 19.9709 590.529 20.0115C591.187 20.0363 588.301 20.4591 595.068 20.3118C594.694 20.184 594.322 20.0563 593.95 19.9285C597.02 20.0984 605.639 19.8605 607.018 19.9015C607.675 19.9206 611.207 20.9507 614.5 20.1257C614.896 20.2536 615.299 20.3814 615.68 20.5092C619.232 20.3493 622.831 20.1895 626.474 20.0298C627.053 20.2603 627.649 20.4909 628.21 20.7215C629.339 20.7198 630.472 20.7182 631.609 20.7166C630.855 20.5123 630.101 20.3079 629.35 20.1035C636.353 20.1865 645.037 19.8512 646.465 20.5423C647.975 20.4119 649.491 20.2815 651.012 20.1512C652 20.3804 653.004 20.6097 653.984 20.839C660.934 20.7724 661.066 20.6182 665.877 20.3669C665.688 20.5471 665.5 20.7272 665.312 20.9073C668.862 20.6506 675.242 20.4081 680.389 20.3707C682.799 20.3534 686.945 20.5969 687.519 20.5739C688.092 20.5495 693.789 19.5694 694.414 20.4122C702.73 20.0301 706.46 20.4079 709.841 20.3953C712.038 20.3868 713.041 20.1834 715.53 20.1601C719.091 20.1264 722.702 20.2207 724.744 20.2049C725.918 20.1952 726.137 19.9976 726.947 19.9906C730.78 19.9568 728.533 20.1607 732.578 20.1437C732.948 20.1411 735.92 19.8974 739.24 19.9253C741.099 19.9406 745.917 20.207 746.342 20.206C748.227 20.1996 746.722 19.6594 753.165 20.2788C752.978 20.1761 752.791 20.0733 752.604 19.9705C760.575 19.702 761.835 20.1598 763.445 20.1901C763.651 20.1925 765.591 20.0133 766.754 20.0366C768.717 20.0766 769.508 20.3188 769.943 20.3291C771.475 20.3649 776.628 20.2532 779.995 20.4849C779.288 19.7943 791.104 19.5373 793.707 20.3176C795.802 20.1612 797.897 20.0047 799.987 19.8483C800.933 19.9763 801.879 20.1043 802.823 20.2323C803.397 20.1033 803.971 19.9743 804.545 19.8453C807.576 20.1252 810.641 20.4051 813.689 20.6849C813.883 20.4014 814.077 20.1179 814.271 19.8344C815.124 19.8657 815.976 19.8971 816.828 19.9285C817.493 20.153 818.158 20.3774 818.822 20.6019C819.885 20.5579 820.946 20.5138 822.007 20.4698C822.272 20.3066 822.537 20.1434 822.802 19.9802C828.551 19.7865 825.621 21.3435 836.504 19.966C838.214 20.0926 839.919 20.2192 841.62 20.3458C843.544 19.7185 847.121 20.0932 850.011 20.0196C852.07 19.9677 851.96 19.7195 854.753 19.7108C857.544 19.7022 857.44 19.9398 857.658 19.9411C859.927 19.953 861.62 19.7416 863.282 19.7814C863.535 19.7872 864.173 20.0685 866.308 20.0838C868.442 20.0991 869.727 19.7975 872.877 19.8501C874.49 19.8768 874.949 20.1138 876.38 20.133C883.323 20.2264 890.108 19.0137 895.312 20.4336C896.467 20.2511 904.855 19.6057 908.471 19.6363C914.038 19.6855 911.878 19.9689 914.088 20.0166C914.408 20.0238 916.165 19.9264 920.849 19.9353C921.686 19.9369 921.491 19.7792 921.611 19.7769C927.014 19.7707 937.663 19.8753 943.718 19.8846C944.28 19.8857 946.949 19.4395 951.828 20.0209C955.833 19.7605 962.072 19.9478 968.136 20.0244C972.937 20.0805 977.384 20.0763 981.482 19.7813C982.777 19.7631 984.318 19.9154 984.875 19.9081C989.814 19.8413 987.969 19.3716 999.136 20.0267C998.286 19.7861 1000.68 19.5562 1004.5 19.5575C1010.04 19.5598 1006.04 20.0337 1010.53 19.9748C1010.53 19.8464 1010.53 19.7179 1010.53 19.5895C1020.72 19.8829 1022.8 19.3227 1032.99 19.2511C1036.73 19.2248 1042.16 19.4664 1042.99 19.4599C1043.33 19.4565 1047.4 19.1118 1047.73 19.1061C1049.99 19.0764 1051.08 19.2088 1053.02 19.1904C1059.2 19.1336 1066.56 18.6376 1065.22 19.3857C1066.92 19.2101 1068.58 19.0341 1070.31 18.8561C1076.71 19.5501 1081.53 18.3982 1082.88 19.1377C1084.03 18.9639 1085.17 18.7904 1086.32 18.6171C1092.86 18.5405 1099.37 18.4801 1105.96 18.4445C1127.09 18.3502 1148.16 18.4908 1169.2 18.5392C1170.3 18.2966 1182.32 18.373 1182.92 18.4077C1185.76 18.5743 1182.77 19.1137 1188.54 18.9785C1189.18 18.7436 1189.82 18.5087 1190.45 18.2736C1197.71 18.1737 1194.2 18.417 1197.08 18.5637C1198.27 18.5295 1197.89 18.3505 1199.5 18.3294C1207.37 18.2288 1222.69 18.0994 1232.51 17.828C1233.67 17.7973 1234.73 17.7675 1235.69 17.7388C1237.64 17.6805 1237.34 17.8574 1237.93 17.8403C1239.58 17.7894 1242.79 17.4738 1246.08 17.3479C1263.33 16.7618 1287.3 15.0375 1307.16 15.1906C1310.51 15.1923 1313.68 15.1978 1316.71 15.2061C1318.12 15.2103 1318.28 15.4112 1319.24 15.4158C1320.57 15.4213 1323.49 15.2422 1324.88 15.2519C1326.16 15.2606 1327.02 15.4094 1328.41 15.4203C1334.77 15.4714 1343.36 15.1749 1350.18 15.6033C1350.74 15.6389 1357.9 16.4285 1358.07 16.4818C1359.02 16.7957 1352.68 17.3089 1363.1 17.7442C1353.78 18.1735 1356.69 18.8748 1368.8 19.1983C1362.75 19.2994 1356.66 19.4063 1350.58 19.5173C1350.58 19.6019 1350.57 19.6865 1350.56 19.7712C1356.09 20.1716 1361.58 20.2936 1369.99 20.3174C1369.73 20.3961 1369.46 20.4749 1369.19 20.5537C1361.76 20.958 1352.82 21.0581 1347.16 21.6135C1355.45 21.978 1363.76 22.3495 1372.04 22.7324C1371.64 22.7947 1371.23 22.8571 1370.8 22.9196C1366.81 23.0854 1358.15 23.2016 1354.85 23.3623C1342.22 23.973 1365.88 23.7556 1362 24.1168C1348.68 24.138 1335.38 24.1815 1322.06 24.2421C1321.57 24.4797 1372.83 24.9949 1372.27 25.7962C1368.09 25.8541 1363.91 25.9152 1359.73 25.9784C1361.56 26.1699 1363.49 26.3617 1365.32 26.5541C1364.82 26.6174 1364.31 26.6808 1363.78 26.7442C1356.72 26.9135 1349.68 27.0895 1342.61 27.2708C1364.05 27.0325 1374.07 27.1404 1379.17 28.6851C1378.61 28.7245 1378.03 28.7641 1377.43 28.8039C1372.8 27.8326 1350.85 28.1978 1339.19 28.4466C1341.57 28.7188 1351.83 28.4612 1353.99 28.6258C1354.6 28.6727 1352.49 28.8763 1353.89 28.9726C1357.63 29.2192 1373.49 29.5235 1371.18 29.8502C1369.71 30.0512 1344.17 30.4082 1339.2 30.4151C1350.87 30.7353 1362.9 30.8042 1374.59 31.2407C1367.19 31.878 1360.67 32.6578 1347.2 32.7407C1343.08 33.0797 1371.62 33.4506 1372.27 33.6391C1367.37 33.839 1362.37 34.0435 1357.47 34.2507C1361.65 34.187 1365.82 34.1256 1370 34.0669C1370.02 34.1314 1370.03 34.1958 1370.04 34.2602C1359.23 34.5786 1349.3 35.1595 1336.94 35.177C1337.35 35.5158 1344.75 35.4502 1348.34 35.4408ZM163.502 8.70937C163.26 8.41764 167.823 8.62036 170.397 8.72548C170.013 8.65936 169.628 8.59338 169.243 8.52754C174.724 8.77027 184.979 9.36505 185.389 8.84866C189.344 8.99102 187.557 9.37503 188.834 9.49989C189.334 9.54882 194.503 9.56686 198.622 10.2203C199.569 10.2901 200.541 10.3652 201.477 10.4413C201.511 10.4441 201.545 10.4468 201.579 10.4496C201.784 10.2861 201.989 10.1227 202.195 9.95951C203.564 10.2943 204.904 10.6341 206.253 10.98C204.666 10.8354 203.062 10.6966 201.466 10.569C188.688 9.57121 176.099 9.11421 163.523 8.71009C163.516 8.70985 163.509 8.70961 163.502 8.70937ZM303.774 20.301C308.814 20.8228 316.502 21.4597 314.982 20.8689C311.802 20.6991 308.622 20.5007 305.436 20.2787C304.881 20.2867 304.329 20.2943 303.774 20.301ZM813.091 21.146C817.386 21.6269 821.289 21.2034 827.947 21.2841C827.938 21.1816 827.929 21.0791 827.92 20.9766C825.198 21.2256 818.049 21.0691 813.091 21.146ZM36.4019 1.20095C35.457 1.17053 34.4929 1.14253 33.533 1.1171C37.4237 0.521476 38.1142 0.90505 42.5044 0.849984C42.7707 0.846928 42.6785 0.720711 42.7715 0.720054C43.8358 0.713001 44.8399 0.868419 45.8012 0.871135C47.6717 0.87732 49.1937 0.732625 52.5014 0.779645C52.5762 0.780751 52.6489 0.78204 52.7196 0.783498C52.8617 0.78765 53.2853 0.807878 53.4264 0.82486C55.7928 1.09205 55.8135 1.32975 56.6961 1.42272C57.4591 1.48529 65.2126 1.78253 69.9876 2.79374C75.2906 3.93303 64.3111 2.30619 53.3821 1.25086C53.2486 1.23481 52.8483 1.21569 52.7139 1.21177C45.0626 1.15877 37.5849 1.20821 36.4019 1.20095ZM5.20403 4.32153C7.11447 3.1279 8.33289 2.85305 9.04739 2.58605C9.42625 2.45863 9.82723 2.34975 10.0866 2.28542C9.74191 2.39819 9.33703 2.54253 9.07091 2.6566C8.7267 2.84738 8.78593 2.88123 9.12107 2.80709C11.7796 2.06074 15.2256 1.81647 18.2671 1.5899C18.2281 1.70969 17.2698 1.82747 15.792 1.98983C15.0355 2.07396 14.1961 2.16406 13.1883 2.29923C12.1271 2.4676 11.279 2.49671 9.22672 3.12404C8.34077 3.4846 6.46995 3.79962 4.06046 5.93531C1.52839 8.18558 0.85709 11.729 0.92291 13.2738C0.841035 12.0238 0.955873 10.3299 1.76865 8.51851C2.55931 6.70271 4.02636 5.17921 5.20403 4.32153ZM124.044 9.68616C120.509 9.59472 121.126 9.1673 121.279 9.04211C122.38 9.08523 123.529 9.12708 124.637 9.16549C124.438 9.33906 124.24 9.51262 124.044 9.68616ZM98.0472 7.67899C99.1881 7.54429 106.676 8.36432 110.19 8.61328C110.344 8.62477 109.36 8.71362 111.854 8.90383C112.386 8.95156 116.26 8.91255 117.873 9.04365C118.524 9.10174 118.819 9.2048 118.333 9.38208C118.173 9.37665 118.015 9.3712 117.858 9.36572C111.282 9.14038 104.736 8.51973 98.0574 7.68037C98.054 7.67991 98.0506 7.67945 98.0472 7.67899ZM90.2964 6.43671C91.7967 6.5369 93.2704 6.64662 94.727 6.75332C95.4529 6.99755 96.1777 7.24165 96.8955 7.48362C95.2628 7.29529 93.6148 7.09843 91.9432 6.90711C91.3962 6.74918 90.849 6.59231 90.2964 6.43671ZM1184.97 22.0682C1184.63 21.9172 1184.29 21.7661 1183.95 21.615C1182.64 21.5252 1176.25 22.1933 1178.27 22.3188C1180.51 22.2362 1182.73 22.1528 1184.97 22.0682ZM1211.88 22.2514C1213.22 22.3157 1214.55 22.3787 1215.85 22.4407C1217.41 22.166 1218.87 21.8907 1220.42 21.612C1213.8 21.5308 1206.76 21.3765 1207.9 22.1278C1206.41 22.1393 1204.86 22.1498 1203.36 22.159C1204.62 21.837 1204.48 21.7363 1200.49 21.559C1199.63 22.0003 1195.53 21.7988 1190.83 21.9086C1194.25 21.9238 1197.67 21.9356 1201.08 21.9425C1201.08 22.0195 1201.08 22.0965 1201.08 22.1735C1193.47 22.1826 1202.93 22.6303 1207.88 22.2838C1208.27 22.3833 1208.67 22.4827 1209.06 22.582C1210.01 22.4723 1210.95 22.3621 1211.88 22.2514ZM660.706 23.8453C661.652 23.9216 662.6 23.9979 663.549 24.0742C667.235 23.0614 659.716 24.0268 654.459 23.2352C656.233 23.8393 648.083 23.8241 647.628 23.8654C648.56 24.0683 649.495 24.2712 650.432 24.4742C653.912 24.2644 657.266 24.0548 660.706 23.8453ZM687.512 24.5108C684.234 24.0112 700.336 23.9635 705.75 24.069C707.07 24.0949 709.416 24.3688 710.357 24.333C710.93 24.2304 711.504 24.1278 712.077 24.0251C712.745 24.3772 723.33 23.9703 727.464 23.7766C727.856 23.9047 728.247 24.0328 728.638 24.1609C730.153 24.1084 731.669 24.0559 733.185 24.0035C732.995 24.1317 732.804 24.2598 732.614 24.388C733.761 24.233 734.909 24.0779 736.058 23.9229C740.557 23.7474 737.782 24.4479 741.161 24.2269C744.917 23.9816 738.762 23.5718 738.876 23.3012C735.834 23.3738 728.879 23.5365 725.794 23.5473C724.013 23.5531 726.053 23.0666 718.367 23.6309C716.685 23.5028 715.005 23.3746 713.327 23.2465C710.252 23.4558 707.173 23.6652 704.079 23.8747C703.502 23.6958 702.927 23.5169 702.351 23.338C702.017 23.3102 694.905 23.725 695.289 23.8595C692.398 23.5193 686.436 23.4644 680.229 23.4538C679.624 23.552 679.019 23.6503 678.415 23.7485C684.476 23.5312 680.343 23.8496 682.142 24.0345C683.175 24.1411 686.346 24.3493 687.512 24.5108ZM1142.89 22.4705C1153.05 22.0357 1146.76 22.3952 1157.72 22.3995C1156.96 22.1674 1156.19 21.9352 1155.43 21.7031C1150.03 22.1242 1141.17 21.8397 1142.88 22.4705C1142.89 22.4705 1142.89 22.4705 1142.89 22.4705ZM1249.86 20.6566C1244.1 21.0251 1247.02 21.2838 1239.72 21.6444C1239.72 21.6445 1239.72 21.6446 1239.71 21.6447C1243.49 21.551 1247.27 21.4366 1251.04 21.302C1250.65 21.0869 1250.26 20.8718 1249.86 20.6566ZM911.09 23.3152C905.555 23.2233 906.643 23.402 901.543 23.0494C894.103 23.4976 900.407 23.4264 900.406 23.8232C902.074 23.7044 903.868 23.5853 905.583 23.4662C909.761 23.8308 905.801 24.0238 905.8 24.0594C905.803 24.0594 905.807 24.0594 905.81 24.0594C905.81 24.1785 905.677 24.2038 907.278 24.2733C908.555 23.9539 909.825 23.6346 911.09 23.3152ZM887.273 23.8406C889.159 23.5745 890.019 23.2351 885.039 23.073C885.035 23.073 885.032 23.073 885.028 23.073C884.633 23.6624 879.827 23.1935 877.608 23.2358C877.03 23.3006 876.438 23.3654 875.872 23.4301C879.699 23.5671 883.514 23.7039 887.273 23.8406ZM803.398 24.4761C803.376 23.8256 807.579 23.7597 801.663 23.1659C800.514 23.1787 799.363 23.1914 798.212 23.2042C797.456 23.3477 796.7 23.4912 795.944 23.6347C781.364 22.4713 777.008 24.48 801.664 23.7071C801.667 23.7066 801.671 23.7062 801.674 23.7057C802.249 23.9625 802.824 24.2193 803.398 24.4761ZM829.093 24.3954C829.278 24.0537 829.463 23.712 829.648 23.3703C832.862 24.1907 837.019 23.4004 843.349 23.9747C843.92 23.8702 844.491 23.7657 845.06 23.6613C847.374 23.8876 870.605 23.9261 865.58 23.4067C863.343 23.18 858.627 23.4971 858.206 23.4906C856.816 23.4665 855 23.1752 852.637 23.1949C851.266 23.2067 848.397 23.5548 845.64 23.5573C839.439 23.5626 828.126 22.6487 819.954 23.5333C819.368 23.4309 818.783 23.3286 818.197 23.2262C812.152 23.2951 814.173 23.6193 808.525 23.2358C804.65 24.8618 831.164 23.1331 825.649 24.454C825.653 24.454 825.656 24.454 825.66 24.454C826.806 24.4344 827.95 24.4149 829.093 24.3954ZM995.692 23.5924C996.118 23.8823 1003.03 23.4035 1001.41 24.1083C1003.71 23.8553 1006.06 23.6016 1008.28 23.348C1008.26 23.2831 1008.25 23.2183 1008.23 23.1535C1006.02 23.2151 1003.68 23.2767 1001.39 23.3377C1001.38 23.2348 1001.38 23.1319 1001.37 23.0289C998.107 23.4171 983.719 23.3082 984.28 22.9407C983.538 23.0972 982.789 23.2537 982.035 23.4102C977.122 23.1303 973.043 23.2786 968.145 23.253C966.243 23.2421 964.238 23.201 962.059 23.0868C961.484 23.2158 960.906 23.3449 960.326 23.4739C959.947 23.3719 959.567 23.27 959.186 23.168C956.483 23.1618 953.888 23.1551 951.159 23.1484C942.343 23.5831 959.336 24.0808 961.485 24.0134C961.761 24.0041 961.724 23.7378 963.439 23.6914C964.231 23.6701 965.972 23.6694 968.146 23.6764C974.665 23.6957 984.782 23.7733 988.758 23.6284C988.804 23.805 988.851 23.9816 988.897 24.1582C991.222 23.9698 993.332 23.7818 995.692 23.5924ZM770.848 23.8113C770.464 23.6317 770.079 23.4522 769.694 23.2726C763.054 23.4585 758.88 23.3052 760.581 23.8987C760.584 23.8987 760.588 23.8987 760.591 23.8987C764.009 23.8696 767.429 23.8404 770.848 23.8113ZM278.575 20.9517C278.719 21.3233 281.882 21.7371 285.98 21.8513C285.795 21.7303 285.609 21.6092 285.422 21.4881C283.253 21.5995 280.661 20.8245 274.06 20.3251C274.045 20.5044 274.029 20.6837 274.014 20.8629C275.542 20.8913 277.066 20.9214 278.575 20.9517ZM776.572 23.8839C778.588 24.0941 784.274 23.4452 780.533 23.4169C777.676 23.3956 775.488 23.7709 776.572 23.8839ZM1272.59 19.8835C1271.09 19.9244 1269.59 19.9663 1268.09 20.0078C1267.31 20.2023 1266.56 20.3956 1265.78 20.5897C1265.78 20.5895 1265.79 20.5893 1265.79 20.5891C1268.05 20.3549 1270.32 20.1177 1272.59 19.8835ZM930.119 23.2526C924.91 23.2847 920.023 23.3157 914.828 23.3467C914.777 23.4466 914.726 23.5465 914.674 23.6464C919.838 23.2736 921.846 23.6625 923.028 23.6844C923.022 23.6845 923.017 23.6845 923.012 23.6845C926.717 23.7569 930.534 23.808 934.074 23.9204C932.765 23.6978 931.447 23.4752 930.119 23.2526ZM947.503 23.8468C946.641 23.1434 945.647 23.064 937.722 23.5761C938.037 23.6623 938.352 23.7485 938.666 23.8347C942.775 23.7744 945.087 23.6065 944.388 23.9758C945.434 23.9328 946.472 23.8898 947.503 23.8468ZM867.908 23.7502C868.86 23.9736 876.261 23.7388 875.852 23.6262C875.712 23.5815 866.086 23.3123 867.908 23.7502ZM222.489 15.5903C224.188 15.8298 225.89 16.0709 227.587 16.3113C225.311 16.1354 223.035 15.9592 220.757 15.7857C221.335 15.7205 221.908 15.6549 222.489 15.5903ZM203.543 14.6506C202.465 14.4779 205.485 14.2341 201.213 13.638C200.634 13.5586 199.915 13.4738 199.013 13.3848C199.759 13.4402 200.494 13.4968 201.219 13.5549C205.873 13.9287 210.488 14.3839 215.077 14.8596C212.574 14.6964 210.063 14.5404 207.545 14.3996C207.97 14.6238 208.383 14.8472 208.802 15.0718C207.054 14.9236 205.302 14.7821 203.543 14.6506ZM197.819 13.7191C200.667 14.3755 185.463 13.4224 184.064 13.3398C183.752 13.3096 182.267 12.8702 181.725 12.7659C184.012 12.8753 186.31 12.9937 188.596 13.123C187.83 12.9643 187.081 12.8079 186.316 12.6517C188.988 12.7553 191.697 12.875 194.385 13.0142C193.21 13.0518 192.081 13.0963 190.908 13.1412C193.226 13.3201 195.494 13.5085 197.819 13.7191ZM258.106 19.764C256.213 19.5766 254.334 19.3849 252.446 19.1877C252.805 19.4038 253.17 19.6201 253.526 19.8354C254.651 19.9446 255.788 20.0531 256.914 20.1587C257.311 20.0273 257.71 19.8959 258.106 19.764ZM219.55 15.9248C222.411 15.3659 229.732 18.0846 221.01 16.4133C220.128 16.2444 219.28 15.9794 219.55 15.9248ZM178.39 12.9664C172.411 13.3416 173.812 12.0006 179.415 12.6578C179.696 12.6923 178.839 12.9396 178.39 12.9664ZM133.875 11.5314C133.397 11.5119 132.565 11.0402 127.994 11.3268C127.25 11.2516 126.475 11.1749 125.741 11.0988C127.483 10.9608 142.628 11.2649 140.524 11.6518C138.201 11.5935 136.272 11.6149 133.875 11.5314ZM148.492 13.6164C150.763 13.669 153.048 13.7235 155.316 13.7802C154.568 13.6159 153.831 13.4522 153.079 13.2883C154.204 13.2833 155.316 13.2784 156.443 13.2747C158.345 13.5775 160.254 13.8825 162.161 14.1901C157.207 14.064 152.27 13.9563 147.319 13.8541C147.711 13.7749 148.105 13.6957 148.492 13.6164ZM209.072 17.1132C206.721 16.7831 204.061 16.5388 200.992 16.3102C198.378 16.1161 195.459 15.9372 192.176 15.7173C192.172 15.7166 192.169 15.716 192.165 15.7153C191.815 15.6914 191.174 15.4563 190.044 15.3817C189.064 15.2608 169.813 14.6063 171.329 14.3673C178.783 14.3648 181.545 14.9623 183.37 14.3172C183.727 14.4896 184.082 14.6622 184.436 14.835C191.587 15.479 193.668 15.0929 197.721 15.1862C197.697 15.3011 197.673 15.416 197.648 15.5309C198.756 15.6174 199.927 15.7134 201.033 15.8098C202.591 15.9453 204.162 16.0921 205.717 16.2446C205.343 16.1327 204.971 16.0214 204.602 15.9108C205.549 15.9974 206.502 16.0873 207.453 16.1795C209.733 16.7469 212.642 17.127 209.072 17.1132ZM138.184 13.1334C136.747 13.6842 126.739 13.3633 117.693 12.9004C113.493 12.6798 109.48 12.3091 106.559 12.0621C109.65 12.0478 113.756 12.4183 117.704 12.6624C119.984 12.8054 122.199 12.9379 124.144 13.0083C134.465 13.3575 127.34 12.798 129.096 12.7128C129.968 12.6713 135.807 13.4088 138.184 13.1334ZM225.015 18.6667C219.887 18.0263 216.99 17.9098 212.565 17.1212C212.947 17.0962 213.328 17.0712 213.705 17.0462C215.234 17.2547 227.626 18.8139 225.015 18.6667ZM93.1137 10.1175C102.923 11.7888 98.1575 10.3361 103.175 11.5696C99.8262 11.2117 96.4776 10.7802 93.082 10.3463C93.0926 10.2701 93.1031 10.1938 93.1137 10.1175ZM787.992 27.1937C792.186 27.21 796.886 27.3666 799.402 27.0312C796.546 26.9824 793.674 26.9337 790.83 26.8849C789.884 26.9879 788.938 27.0908 787.992 27.1937ZM668.159 30.565C669.11 30.6437 672.892 30.4039 673.293 30.4034C674.036 30.4026 673.833 30.5189 673.844 30.5492C678.713 30.5227 674.217 30.1678 677.826 30.0855C678.472 30.0719 686.87 30.2407 690.327 30.2225C695.662 30.1944 700.879 30.2124 702.872 30.2042C706.223 30.1906 712.397 29.9145 717.885 29.8953C720.147 29.8878 720.944 30.1032 723.216 30.0955C737.8 30.045 766.517 29.7219 779.453 29.8469C782.655 29.878 785.707 30.1582 787.397 30.1335C788.73 30.0289 790.062 29.9242 791.393 29.8196C795.48 30.7464 796.876 29.9173 801.292 29.8263C804.099 29.7687 805.408 30.0432 805.784 30.0421C808.272 30.0343 809.521 29.9018 811.488 29.8781C813.698 29.8519 816.863 29.9731 817.649 29.9498C818.139 29.9343 816.567 29.5694 825.139 29.5676C833.856 29.5659 842.482 29.5955 851.321 29.6026C848.331 28.4994 845.842 29.2595 842.212 29.3039C841.241 29.3158 841.857 29.1394 841.01 29.1481C838.615 29.1716 834.031 29.3491 832.071 29.3093C829.943 29.2664 830.671 28.8585 827.965 29.0115C827.828 29.0194 828.261 29.1871 827.624 29.216C821.195 29.5008 819.146 29.2104 811.04 29.2098C805.69 29.2092 773.13 29.4067 772.023 29.298C766.195 28.7145 800.487 28.6784 804.496 28.7208C805.897 28.7358 804.429 28.9229 805.705 28.9573C806.235 28.971 811.132 28.6122 815.946 28.5779C821.741 28.5366 833.47 28.766 839.027 28.7514C882.334 28.6361 925.055 28.7578 968.161 28.6765C972.763 28.6672 976.932 28.6567 981.512 28.642C982.546 28.6385 983.814 28.4222 987.137 28.4104C1026.19 28.3184 1066.11 27.9607 1106.03 27.4437C1129.3 27.2913 1152.53 27.3946 1175.58 27.331C1189.22 27.2964 1202.77 27.0679 1216.52 27.0726C1218.25 26.898 1219.93 26.7217 1221.64 26.5418C1217.28 26.733 1209.28 26.4533 1208.53 26.452C1208.26 26.4526 1206.64 26.6405 1203.95 26.6482C1200.2 26.6589 1198.54 26.5138 1198.24 26.5155C1197.29 26.5194 1197.91 26.6776 1197 26.6809C1190.19 26.7029 1184.92 26.759 1178.68 26.7682C1171.62 26.777 1168.05 26.4762 1162.91 26.8051C1162.32 26.6765 1161.74 26.548 1161.16 26.4194C1157.32 26.9758 1134.45 26.896 1125.18 26.887C1122.29 26.8829 1122.76 26.6568 1121.78 26.6589C1121.16 26.6622 1121.4 26.9502 1113.75 26.9242C1109.9 26.9136 1108.89 26.7068 1106.96 26.7282C1106.49 26.7337 1106.27 26.7807 1106.03 26.8314C1105.73 26.8923 1105.39 26.9585 1104.57 26.9658C1095.86 27.0424 1088.75 27.0763 1080.22 27.1646C1077.84 27.1891 1077.8 27.0115 1077.26 27.0218C1075.3 27.0582 1071.87 27.4108 1066.84 27.4747C1058.53 27.5869 1042.14 27.7339 1035.37 27.6318C1034.38 27.6173 1033.49 27.4099 1032.8 27.4177C1031.72 27.4307 1031.29 27.6565 1031.1 27.659C1027.39 27.6875 1029.55 27.4659 1027.12 27.5319C1025.83 27.5671 1024.4 27.8305 1021.29 27.8773C1017.25 27.9382 1018.01 27.6318 1016.27 27.6715C1016.08 27.6772 1016.02 27.8875 1014.38 27.9031C1007.88 27.9622 998.829 28.0503 992.701 28.0728C990.994 28.0793 989.715 27.9429 987.243 27.9494C984.737 27.9562 976.316 28.0077 968.159 28.0419C960.723 28.0738 953.487 28.0916 952.411 28.0545C952.167 28.0466 954.651 27.7312 950.693 27.7497C949.55 27.8812 948.335 28.0128 947.236 28.1442C945.365 27.942 943.471 27.7397 941.554 27.5374C941.59 28.2505 930.407 28.3828 930.506 27.6533C929.274 27.6261 928.034 27.5989 926.785 27.5716C924.19 28.08 922.588 27.897 917.607 28.2014C916.831 28.0483 916.053 27.8952 915.271 27.7421C915.075 27.8453 914.878 27.9486 914.682 28.0519C912.043 27.4984 907.765 28.0653 907.226 28.0693C905.202 28.0848 903.666 27.9453 902.706 27.9514C899.193 27.9715 891.508 28.178 887.373 28.0929C887.18 28.0886 887.37 27.8498 886.202 27.822C884.092 27.7716 883.888 28.1211 881.053 27.7147C880.48 27.8184 879.906 27.9221 879.331 28.0258C878.721 27.9734 878.109 27.9209 877.497 27.8684C873.904 27.9004 870.381 27.9321 866.776 27.9638C870.042 27.556 866.287 27.3352 862.72 27.6572C861.532 27.7663 862.586 28.0108 862.19 28.0485C861.689 28.0997 845.562 27.993 844.537 27.8351C843.778 27.9133 843.019 27.9916 842.258 28.0699C841.873 27.9154 841.488 27.761 841.103 27.6065C840.683 27.6611 840.263 27.7158 839.842 27.7704C835.608 27.5022 824.839 28.1391 822.832 28.0916C821.775 28.0664 822.723 27.4053 817.699 27.4778C817.525 27.6593 817.351 27.8407 817.176 28.0221C816.025 28.0493 814.872 28.0764 813.717 28.1035C811.552 28.0895 808.389 27.7784 808.287 27.5637C807.608 27.6932 806.938 27.8228 806.263 27.9524C804.464 27.5341 794.75 27.6923 790.868 27.9618C789.73 27.8362 788.591 27.7106 787.452 27.585C785.922 27.7404 784.391 27.8958 782.858 28.0512C779.307 28.1009 783.058 27.8414 782.302 27.8208C780.693 27.7781 772.557 28.2181 773.09 27.679C771.979 27.6787 770.868 27.6784 769.756 27.678C769.184 27.8325 768.613 27.987 768.041 28.1415C766.131 27.6125 762.831 27.8029 756.06 27.6155C755.492 27.7383 754.925 27.861 754.357 27.9837C752.264 27.812 750.17 27.6402 748.074 27.4685C747.644 27.6712 747.214 27.874 746.784 28.0767C745.874 28.1066 744.963 28.1365 744.052 28.1665C742.202 27.715 738.883 28.2078 737.195 28.0225C734.726 27.7521 736.636 27.4252 741.211 27.3581C740.877 27.0284 727.211 27.1928 724.081 27.2199C724.289 27.2842 724.496 27.3484 724.704 27.4127C727.914 27.3586 731.132 27.3045 734.354 27.2504C737.055 28.0779 728.303 27.8635 724.307 27.9743C723.943 27.9849 721.864 28.3014 717.815 28.276C716.245 28.2659 710.149 27.8123 708.992 27.7878C699.562 27.5874 706.481 28.2372 697.287 27.6708C699.2 28.1098 693.932 27.7487 688.402 27.8398C687.449 27.8553 679.566 28.2213 678.994 28.2313C675.632 28.2923 679.286 27.8985 674.433 28.0054C673.851 28.1085 673.27 28.2117 672.688 28.3148C671.563 28.3161 670.439 28.3174 669.318 28.3186C662.489 27.4131 660.86 28.0877 658.443 28.177C657.464 28.213 658.722 27.9732 656.188 28.0266C655.228 28.0466 654.203 28.2461 651.587 28.2633C643.465 28.3168 640.797 27.4716 633.329 28.3651C632.191 28.2387 631.057 28.1123 629.927 27.9859C629.164 28.1405 628.407 28.2951 627.644 28.4497C621.698 28.0129 623.852 28.466 621.719 28.4638C616.186 28.4579 604.59 28.3896 603.665 28.024C598.747 28.8762 593.015 27.9349 591.125 27.9714C589.97 28.0761 588.821 28.1808 587.68 28.2855C586.337 28.1852 585.005 28.0849 583.682 27.9847C584.338 28.8119 577.455 28.0114 576.757 28.0006C575.984 27.9896 565.341 28.2591 561.43 28.265C560.803 28.2658 560.105 28.2612 559.374 28.2528C555.333 28.2096 550.516 28.0656 550.031 28.0667C549.265 28.0689 542.66 28.3138 537.306 28.3302C532.738 28.338 505.534 28.1394 507.199 28.5053C509.048 28.5979 511.498 28.6743 513.707 28.7119C518.927 28.796 543.385 28.837 559.376 28.8833C564.117 28.8969 568.351 28.908 570.714 28.9164C591.099 28.9864 612.586 28.9298 633.1 28.9818C634.308 28.9847 634.493 29.1992 635.533 29.2027C637.106 29.2067 641.167 28.9863 642.68 28.989C648.433 29 655.576 29.0263 658.638 29.028C665.593 29.0306 670.346 29.1545 675.6 29.1696C677.268 29.1739 685.548 28.8986 691.267 29.005C692.303 29.0643 693.341 29.1236 694.381 29.183C691.418 29.2565 683.722 29.4472 680.167 29.472C674.81 29.5081 672.049 29.337 670.092 29.3423C668.494 29.3464 660 29.5546 656.216 29.564C655.035 29.567 654.794 29.3421 653.786 29.3441C648.181 29.3564 641.064 29.3717 636.186 29.5992C638.104 29.5244 626.027 29.4031 625.312 29.4051C624.207 29.4068 623.008 29.6193 620.772 29.6226C616.466 29.6291 617.098 29.1872 611.639 29.6368C610.298 29.5105 608.965 29.3843 607.638 29.258C607.573 29.845 590.842 29.0754 585.936 29.7996C585.844 29.8794 607.729 30.0685 609.487 30.0781C620.335 30.1306 636.373 29.9639 646.854 30.0537C650.036 30.0805 659.962 30.4254 660.714 30.418C661.924 30.4065 660.83 30.2035 661.353 30.1957C672.113 30.0312 666.727 30.448 668.159 30.565ZM197.625 16.4945C198.713 16.5831 199.866 16.6811 200.953 16.7792C203.105 16.9732 205.251 17.1856 207.392 17.4093C207.142 17.5146 206.893 17.6201 206.645 17.7259C205.164 17.5337 203.673 17.3466 202.186 17.1684C201.762 17.1602 201.341 17.1528 200.923 17.1465C200.201 17.1359 199.469 17.1267 198.727 17.1187C198.349 16.9093 197.995 16.7023 197.625 16.4945ZM189.552 16.5054C186.709 16.4065 186.605 16.1332 185.947 16.0837C184.004 15.9401 182.314 15.9664 180.428 15.8741C182.624 15.3275 187.255 15.8624 189.552 16.5054ZM247.555 22.4245C246.924 22.3296 242.797 21.2091 237.928 21.3319C234.369 20.7404 230.802 20.1382 227.239 19.5353C233.298 20.5292 241.764 21.1191 244.737 21.4352C245.871 21.5577 246.065 21.7921 246.968 21.8881C252.189 22.4423 257.292 22.4318 257.768 23.1848C252.847 22.5235 248.359 22.5443 247.555 22.4245ZM216.077 18.7543C215.256 18.5175 214.433 18.2812 213.611 18.0461C216.637 18.3649 219.666 18.6971 222.686 19.0313C221.848 19.0889 221.02 19.148 220.185 19.2065C218.814 19.0542 217.449 18.9036 216.077 18.7543ZM448.913 29.1663C447.055 29.1955 445.159 29.2275 443.3 29.2603C443.42 29.3656 445.551 29.3261 446.336 29.3851C446.333 29.3852 446.33 29.3853 446.326 29.3853C447.195 29.4523 446.838 29.5968 448.434 29.6309C448.593 29.4761 448.752 29.3212 448.913 29.1663ZM1223.92 26.969C1224.92 26.9544 1228.42 26.9027 1232.74 26.7834C1242.17 26.5455 1255.18 25.8814 1253.5 25.6824C1252.25 25.553 1242.37 26.1135 1239.45 26.1883C1237.9 26.2354 1235.37 26.2443 1232.73 26.2812C1228.66 26.3389 1224.53 26.447 1223.92 26.969ZM1275.16 25.048C1275.64 24.6255 1257.55 25.5259 1255.79 25.6532C1256.17 25.6914 1256.74 25.789 1257.25 25.7927C1259.7 25.8223 1271.25 25.1412 1275.16 25.048ZM553.784 29.5732C552.324 29.3795 550.912 29.1857 549.463 28.9922C549.87 29.2483 550.221 29.5046 550.602 29.7609C551.652 29.6983 552.713 29.6357 553.784 29.5732ZM695.55 29.0623C719.862 29.0497 744.23 29.04 768.561 29.0299C766.419 29.1389 764.278 29.2479 762.138 29.3568C741.165 29.3382 718.793 29.2507 698.544 29.4365C697.544 29.3118 696.546 29.187 695.55 29.0623ZM254.253 24.252C258.882 24.698 262.931 24.9562 267.495 25.4027C269.082 25.5573 270.679 25.7356 272.399 25.959C270.532 25.8842 268.968 25.7764 267.474 25.6535C263.85 25.3536 260.966 24.9621 256.485 24.8507C256.481 24.8504 256.478 24.8501 256.474 24.8498C255.733 24.6512 254.998 24.4524 254.253 24.252ZM393.107 30.761C391.212 30.9436 389.316 31.1249 387.42 31.305C389.701 31.3048 391.978 31.3028 394.261 31.2991C393.877 31.1198 393.492 30.9404 393.107 30.761ZM907.869 29.8353C914.261 29.433 931.17 30.114 936.34 29.6306C936.695 29.5989 933.518 29.4059 938.64 29.0097C934.753 29.0966 932.122 29.1822 931.817 29.4864C930.675 29.3856 929.527 29.2848 928.371 29.184C926.439 29.2655 924.556 29.3467 922.685 29.4279C922.886 29.1253 922.748 29.1417 919.84 29.3537C918.511 29.2794 917.175 29.2052 915.831 29.1309C915.262 29.2598 914.692 29.3888 914.12 29.5177C912.973 29.3406 911.847 29.1634 910.703 28.9862C906.243 29.1875 908.959 29.5301 907.869 29.8353ZM885.027 29.7947C886.014 29.8609 916.389 29.5982 902.559 29.0164C898.991 29.041 895.469 29.0654 891.861 29.0897C894.828 30.0838 885.073 29.2047 884.295 29.1847C880.491 29.0924 875.534 29.3361 872.81 29.3272C870.435 29.3194 869.015 29.1421 867.331 29.1487C861.542 29.1714 852.608 29.1881 851.321 29.6026C855.807 29.6061 860.262 29.6054 864.906 29.5894C869.852 29.5725 874.037 29.9573 883.296 29.4103C885.562 29.4647 884.753 29.778 885.027 29.7947ZM381.712 31.2605C381.939 30.8493 370.398 30.9212 370.326 31.0811C370.308 31.1775 374.064 31.1878 374.597 31.2253C374.6 31.2253 374.604 31.2253 374.607 31.2253C374.831 31.2418 373.695 31.3976 375.462 31.4464C377.546 31.3859 379.626 31.3239 381.712 31.2605ZM1178.83 28.1899C1180.4 28.4495 1216.03 28.2078 1217.08 28.0289C1217.37 27.9946 1216.97 27.8972 1217.08 27.837C1208.78 28.2669 1196.93 27.9372 1189.06 27.9305C1186.85 27.9293 1187.51 28.0924 1187.38 28.0959C1187.38 28.0959 1187.37 28.0959 1187.37 28.0959C1186.13 28.0999 1180.49 27.7069 1178.83 28.1899ZM947.741 29.4173C946.26 29.3557 944.763 29.2941 943.252 29.2324C942.869 29.3616 942.485 29.4909 942.1 29.6202C942.104 29.6202 942.107 29.6202 942.111 29.6201C944.01 29.5526 945.887 29.485 947.741 29.4173ZM1000.27 29.6776C999.905 29.5887 999.541 29.4998 999.175 29.411C995.32 29.4146 991.594 29.4165 987.714 29.418C988.106 29.3656 988.496 29.3131 988.884 29.2607C983.026 29.1456 980.805 29.4702 977.605 29.4348C977.608 29.4348 977.612 29.4348 977.615 29.4347C977.271 29.4305 976.902 29.2433 975.693 29.2407C974.154 29.2373 970.954 29.2214 968.162 29.2413C966.085 29.2567 964.271 29.2946 963.841 29.3795C963.003 29.5451 965.182 29.6055 968.163 29.619C972.859 29.6383 979.161 29.5546 981.068 29.5592C982.448 29.5631 984.075 29.7224 984.889 29.7234C985.755 29.724 987.051 29.4969 989.298 29.4955C989.951 29.4957 997.179 29.7298 1000.27 29.6776ZM1067.56 28.8969C1066.35 28.7089 1063.96 28.9354 1063.01 28.9133C1062.8 28.908 1064.48 28.7172 1062.45 28.6904C1061.89 28.8134 1061.32 28.9364 1060.74 29.0594C1063 29.0071 1065.26 28.9532 1067.56 28.8969ZM362.319 31.3899C362.653 31.437 368.851 31.452 369.144 31.4242C372.853 31.0699 360.036 31.0484 362.319 31.3899ZM206.474 20.3911C207.33 20.6437 204.75 20.4425 200.677 20.1138C191.493 19.3304 174.575 18.3658 172.31 18.3081C172.483 17.9691 180.515 18.6566 176.32 18.0086C180.335 18.4181 191.427 18.8725 194.046 19.1469C195.631 19.2981 195.998 19.6204 196.243 19.6468C196.672 19.6923 198.625 19.7699 200.696 19.8874C203.207 20.0283 205.947 20.2356 206.474 20.3911ZM144.386 17.1722C147.596 17.3271 150.808 17.4834 154.02 17.6447C150.228 17.569 146.436 17.5001 142.646 17.4323C143.223 17.3455 143.803 17.2588 144.386 17.1722ZM140.342 17.2132C140.425 17.5456 129.552 16.9886 126.666 16.964C129.927 16.5111 135.286 17.1945 140.342 17.2132ZM321.214 31.3494C326.227 31.804 328.418 30.8843 322.3 31.0522C322.115 31.0583 321.007 31.3278 321.214 31.3494ZM909.42 31.2454C910.231 31.2505 920.962 31.5581 921.553 31.3957C923.499 30.8781 916.527 31.0964 914.122 30.9061C910.366 30.5976 915.919 30.3295 906.715 30.534C907.093 30.4304 907.471 30.3269 907.849 30.2234C902.43 30.1977 904.194 30.908 903.22 31.0013C902.901 31.0296 899.549 30.9747 898.947 31.0211C891.355 31.6068 908.625 31.2422 909.42 31.2454ZM445.62 31.8434C455.616 31.9774 451.287 31.5991 461.583 31.4905C461.872 31.2523 446.911 31.6106 445.62 31.8434ZM811.972 30.9572C822.314 30.8579 830.818 31.1451 840.487 30.7371C839.807 30.126 809.31 30.802 811.972 30.9572ZM1298.05 26.965C1277.52 26.7989 1255.32 28.4635 1232.79 28.8742C1211.3 29.3289 1189.48 29.3842 1168.54 29.4141C1163.87 29.4162 1163.42 29.1728 1161.73 29.1989C1160.63 29.2157 1160.82 29.4113 1159.34 29.4118C1141.34 29.4223 1123.6 29.4128 1106.05 29.585C1071.71 30.0798 1038.05 30.6398 1004.35 30.6614C1001.17 30.6698 985.405 30.3109 982.206 30.9532C979.675 31.4423 990.923 31.0289 992.743 31.0253C994.122 31.0231 994.154 31.2486 995.127 31.2456C996.143 31.2423 995.306 31.0915 996.479 31.0844C1001.36 31.0539 1006.68 31.0902 1011.12 31.055C1043.13 30.8577 1074.47 30.3595 1106.05 30.0098C1117.17 29.925 1128.43 29.9291 1139.68 29.933C1144.88 29.9359 1143.83 30.1169 1144.09 30.1177C1144.09 30.1172 1144.09 30.1168 1144.1 30.1163C1171.79 30.1107 1203.43 29.905 1232.81 29.4058C1233.11 29.3996 1233.41 29.3934 1233.71 29.3872C1254.59 29.0815 1275.46 27.5158 1296.25 27.1393C1296.85 27.0803 1297.46 27.022 1298.05 26.965ZM887.298 30.6402C889.835 31.3186 890.558 30.6303 899.83 30.8949C900.586 30.7774 901.32 30.66 902.093 30.5424C897.218 30.5753 892.212 30.608 887.283 30.6402C887.288 30.6402 887.293 30.6402 887.298 30.6402ZM949.005 30.7814C950.082 31.3795 959.376 31.2909 968.168 31.1948C973.106 31.1429 977.511 31.0902 980.925 31.1401C982.307 30.7532 973.343 30.8583 968.167 30.8826C967.145 30.8876 966.288 30.8892 965.737 30.8823C964.152 30.8628 955.549 30.4095 948.914 30.6876C948.945 30.7189 948.975 30.7501 949.005 30.7814ZM241.507 25.5258C243.022 25.6593 244.538 25.7906 246.055 25.9194C242.286 25.4297 238.498 24.9215 234.733 24.4069C240.759 25.1326 246.792 25.8356 252.833 26.4878C251.685 26.5684 250.548 26.6483 249.396 26.7252C246.766 26.3335 244.137 25.933 241.507 25.5258ZM261.132 27.3515C250.533 26.4544 261.633 26.9692 264.263 27.4113C265.836 27.6826 262.221 27.4425 261.132 27.3515ZM288.645 30.0795C283.679 29.9614 273.715 29.1033 277.313 28.7489C282.61 29.5298 286.076 29.5929 293.795 30.4637C292.652 30.4912 291.515 30.5183 290.369 30.544C290.364 30.5435 290.359 30.543 290.353 30.5425C289.777 30.3877 289.218 30.2343 288.645 30.0795ZM256.254 27.3132C249.352 26.2956 269.433 28.2454 263.095 27.9308C262.799 27.922 256.531 27.3589 256.254 27.3132ZM1253.68 29.6154C1254.51 29.3609 1249.15 29.5985 1247.36 29.649C1242.98 29.7826 1237.9 29.9628 1232.82 30.1043C1228.98 30.2119 1225.17 30.2891 1221.69 30.3268C1222.3 30.39 1222.88 30.4533 1223.5 30.5155C1226.61 30.4676 1229.75 30.4089 1232.83 30.3326C1239.8 30.1604 1246.73 29.9227 1253.68 29.6154ZM1196.54 30.5392C1191.03 30.5626 1185.51 30.5754 1179.99 30.5826C1179.47 30.5834 1177.06 30.7739 1178.85 30.8176C1184.75 30.7329 1190.65 30.6421 1196.54 30.5392ZM852.479 31.9967C856.719 32.1145 844.518 32.7569 845.08 32.0829C847.542 32.0542 849.985 32.0255 852.479 31.9967ZM813.118 32.3068C815.774 32.2402 818.423 32.1735 821.064 32.1069C821.067 32.1843 821.071 32.2617 821.075 32.3391C818.43 32.3284 815.778 32.3176 813.118 32.3068ZM1275.35 28.674C1272.53 28.5506 1265.85 28.9533 1261.66 29.1585C1264.56 29.2426 1271.4 28.7616 1275.35 28.674ZM915.858 32.1815C915.565 32.0019 932.331 32.0173 926.501 32.3456C922.959 32.2911 919.462 32.2364 915.858 32.1815ZM950.044 32.3822C946.345 32.4302 943.687 32.3737 944.395 32.0886C946.298 32.0966 948.146 32.1046 950.123 32.1122C950.097 32.2022 950.071 32.2922 950.044 32.3822ZM307.426 32.2049C313.513 32.6275 319.612 32.9526 325.701 33.1771C325.471 33.2451 325.241 33.313 325.012 33.3808C319.134 33.1576 313.258 32.8408 307.388 32.4336C307.4 32.3574 307.413 32.2811 307.426 32.2049ZM1278.81 29.1974C1282.97 28.9444 1287.12 28.7175 1291.27 28.535C1287.11 28.6152 1282.95 28.7399 1278.78 28.8908C1278.79 28.9936 1278.79 29.0965 1278.8 29.1993C1278.8 29.1987 1278.8 29.198 1278.81 29.1974ZM224.301 25.4262C242.73 27.8388 219.113 25.5833 214.326 24.5478C214.321 24.5477 214.316 24.5476 214.311 24.5475C213.891 24.4557 214.813 24.3257 214.115 24.1594C215.974 24.4602 217.843 24.7667 219.709 25.0749C221.429 25.1356 223.166 25.2 224.888 25.263C225.447 25.3755 226.01 25.4885 226.565 25.6007C225.817 25.5432 225.051 25.4838 224.301 25.4262ZM149.766 20.8491C132.937 20.3328 150.18 20.237 158.488 20.9517C158.425 21.0513 151.316 20.8959 149.766 20.8491ZM193.76 22.5742C195.977 22.6778 198.241 22.7993 200.444 22.9377C200.84 22.9625 201.239 22.9883 201.641 23.015C201.974 23.1087 202.301 23.2024 202.629 23.2965C201.902 23.2558 201.15 23.2149 200.424 23.1785C199.166 23.1156 197.858 23.0559 196.586 23.0046C195.634 22.8575 194.709 22.7153 193.76 22.5742ZM280.468 31.9757C284.723 32.4315 290.193 32.1915 276.545 31.1655C276.545 31.2433 276.546 31.321 276.546 31.3988C277.089 31.4338 278.686 31.5022 278.777 31.5162C279.024 31.5577 278.714 31.7893 280.468 31.9757ZM118.445 21.915C118.201 21.919 117.997 22.1213 117.259 22.1897C116.481 22.2547 115.126 22.1898 112.59 21.5881C111.041 21.53 109.492 21.4537 107.946 21.3608C107.57 21.1449 107.182 20.9268 106.806 20.7087C112.742 21.4107 113.419 21.0191 113.845 21.054C115.837 21.1434 114.35 21.2407 115.634 21.3174C116.12 21.3452 116.678 21.3724 117.296 21.399C120.831 21.5527 125.812 21.6886 122.952 22.0472C121.706 22.1955 118.963 21.91 118.445 21.915ZM129.915 22.7864C129.213 22.6969 131.49 22.5268 130.961 22.4432C130.519 22.3748 123.445 21.9018 125.375 21.5603C126.516 21.6156 127.692 21.6703 128.843 21.7231C129.232 21.8457 129.637 21.9688 130.014 22.0908C131.124 22.0225 132.267 21.9543 133.379 21.8845C135.266 22.2125 139.259 22.6792 134.497 22.7659C136.234 22.7926 137.991 22.8188 139.752 22.845C140.653 22.7395 141.57 22.6345 142.483 22.5294C142.004 22.7152 141.515 22.9007 141.035 23.0865C137.331 22.9893 133.622 22.8924 129.915 22.7864ZM75.2938 17.4663C75.5217 17.395 75.7485 17.3234 75.9762 17.2519C69.5048 16.4951 59.7394 15.1804 65.3895 15.3273C72.1453 16.2437 79.0299 17.3013 86.0186 18.0348C87.7523 18.2184 89.5254 18.446 91.3224 18.682C91.8785 18.8369 92.4394 18.993 93.0025 19.1496C88.1374 18.245 88.075 18.9382 85.9258 18.8617C85.2103 18.8358 84.2919 18.7363 82.9465 18.484C81.9951 18.2968 84.8306 18.2326 78.7607 17.7163C78.9606 17.8479 79.1613 17.9794 79.3627 18.1108C78.0008 17.9019 76.6442 17.6858 75.2938 17.4663ZM21.3378 14.5684C32.1076 14.2885 20.219 15.0815 18.3262 14.964C18.3296 14.9637 18.3329 14.9635 18.3363 14.9632C12.9773 14.4947 24.446 14.1142 25.2361 14.1685C26.1794 14.1318 28.3952 13.4298 33.6379 14.2488C29.5118 14.2926 25.3914 14.3763 21.3378 14.5684ZM56.2926 14.8312C55.3868 14.7453 55.9019 14.6493 55.5136 14.6065C55.5102 14.6061 55.5068 14.6057 55.5035 14.6054C54.5392 14.4997 53.3519 14.376 52.0296 14.2465L52.5415 14.2765C45.8813 14.2096 36.0533 14.2769 34.7958 13.8882C37.5153 13.8199 46.1709 13.7498 52.5466 13.8957L52.069 13.8678C55.7658 14.2811 58.6568 14.7187 59.0651 14.8967C58.1446 14.8715 57.2133 14.8487 56.2926 14.8312ZM97.3452 19.9922C100.937 20.802 92.7381 19.7382 90.6966 19.2968C90.3072 19.2066 93.6231 19.1506 97.3452 19.9922ZM374.861 38.0887C382.836 37.912 372.359 37.6928 375.988 37.396C374.462 37.4183 372.941 37.4398 371.42 37.4604C372.563 37.6703 373.718 37.8798 374.861 38.0887ZM737.795 37.1297C739.648 37.1641 738.77 36.9785 738.931 36.9756C740.149 36.9796 741.297 37.1304 741.765 37.1139C750.414 36.7993 744.662 36.6481 744.574 36.6118C744.391 36.4275 746.665 36.2096 743.515 36.0018C741.603 36.069 739.693 36.1361 737.784 36.2032C736.838 36.1016 735.885 36 734.935 35.8984C731.131 36.1219 736.109 36.1775 736.674 36.4688C736.89 36.5833 733.316 36.724 737.795 37.1297ZM389.148 38.7217C390.44 38.3974 393.609 37.9853 390.497 37.6628C390.493 37.6628 390.49 37.6628 390.486 37.6628C389.91 37.6039 387.569 37.5721 386.848 37.4883C381.717 37.9178 383.681 38.3668 389.148 38.7217ZM703.494 37.743C700.406 37.6705 697.332 37.598 694.263 37.5255C694.315 37.3312 694.368 37.1369 694.42 36.9426C696.062 36.9933 697.705 37.0439 699.352 37.0946C699.929 37.0054 700.507 36.9162 701.085 36.827C699.037 36.6075 696.995 36.3881 694.957 36.1686C692.486 36.2486 690.001 36.3286 687.536 36.4087C688.67 36.51 689.806 36.6113 690.944 36.7126C684.903 36.8321 686.216 36.3584 681.248 36.1832C679.544 36.3649 677.813 36.5468 676.103 36.7286C673.621 36.5505 671.151 36.3725 668.692 36.1945C664.554 36.2837 664.15 36.4219 666.979 36.6248C664.894 36.8628 662.617 36.4949 660.128 36.5939C659.923 36.6019 660.31 36.8233 660.129 36.8262C647.323 36.9912 647.914 36.4082 645.883 36.386C644.432 36.3708 638.684 36.7716 638.565 36.9058C638.474 37.0867 650.552 37.7826 631.623 37.8271C641.422 38.306 652.442 37.7908 645.293 37.0769C648.385 37.1455 661.986 36.9485 662.865 36.9693C664.135 37.0005 663.689 37.2754 665.284 37.2807C666.247 37.2834 668.678 36.6535 676.103 37.1932C677.053 37.0892 678.004 36.9852 678.956 36.8812C679.849 36.9648 680.747 37.0484 681.625 37.1321C679.812 37.4357 677.953 37.7394 676.125 38.0431C683.419 37.7072 689.344 38.3168 693.799 37.7932C697.605 37.8496 699.447 37.9075 697.815 38.1744C698.957 38.1732 700.099 38.1721 701.244 38.1709C701.993 38.0283 702.743 37.8856 703.494 37.743ZM412.582 38.1818C416.381 38.458 417.743 37.7947 417.151 37.7632C413.819 37.5882 410.602 38.0373 412.582 38.1818ZM730.91 36.7911C726.725 36.6277 722.568 36.4643 718.369 36.301C718.369 36.5064 718.369 36.7118 718.369 36.9173C722.568 36.8752 726.725 36.8331 730.91 36.7911ZM373.697 38.5473C373.314 38.3922 372.925 38.237 372.541 38.0818C367.949 38.6298 363.411 37.7982 361.135 37.95C360.646 37.9832 361.628 38.2615 362.573 38.3254C363.152 38.3685 372.881 38.5999 373.697 38.5473ZM183.375 25.3794C185.063 25.3613 186.76 25.3489 188.457 25.3431C188.354 25.5106 188.25 25.6782 188.146 25.8457C187.299 25.8296 186.484 25.8169 185.643 25.8041C184.881 25.6611 184.133 25.52 183.375 25.3794ZM202.501 26.3829C205.488 26.6621 208.479 26.973 211.484 27.2996C200.028 26.3117 209.406 27.3094 202.457 26.8844C202.471 26.7172 202.486 26.5501 202.501 26.3829ZM232.95 29.9616C232.566 30.0234 232.183 30.0853 231.801 30.1473C228.774 29.8137 225.743 29.4755 222.723 29.1405C224.593 29.709 226.468 30.2791 228.34 30.8479C229.455 30.9725 230.555 31.0952 231.673 31.2192C232.097 30.8 232.523 30.3808 232.95 29.9616ZM819.978 37.824C821.789 37.8284 828.238 37.508 827.953 37.3929C825.299 37.2537 822.599 37.1146 819.967 36.9754C819.955 37.1813 819.943 37.3872 819.931 37.5931C819.557 37.4909 819.182 37.3888 818.807 37.2867C817.3 37.3652 815.79 37.4437 814.278 37.5222C813.515 37.343 812.752 37.1638 811.988 36.9847C811.222 37.1909 810.454 37.3971 809.686 37.6033C817.005 37.9603 816.74 37.5964 818.258 37.5988C819.027 37.5997 819.513 37.7267 819.785 37.7906C819.85 37.8017 819.914 37.8128 819.978 37.824ZM728.023 38.1044C736.744 38.1472 741.717 37.6006 748.026 38.048C743.986 37.0861 717.852 38.1081 708.672 37.3122C707.716 37.468 706.754 37.6238 705.795 37.7796C710.83 37.6367 714.269 37.9523 716.722 37.9958C718.666 38.0303 718.463 37.8682 718.612 37.8704C718.619 37.8704 718.626 37.8704 718.633 37.8704C723.195 37.9326 724.586 38.0875 728.023 38.1044ZM367.205 39.2802C369.551 39.5363 373.656 39.525 373.706 39.1677C371.413 39.0575 369.142 38.9456 366.849 38.8314C367.318 38.9251 366.804 39.2365 367.205 39.2802ZM236.371 31.3385C238.188 31.654 242.501 32.008 240.678 31.5047C240.347 31.4158 236.035 31.1706 238.61 30.8872C234.428 30.4453 235.345 31.1594 236.371 31.3385ZM579.114 37.5706C577.549 37.5842 575.999 37.5978 574.464 37.6116C574.107 37.7565 573.751 37.9014 573.395 38.0463C575.278 37.8877 577.185 37.7291 579.114 37.5706ZM347.378 39.3696C347.205 39.3071 347.022 39.2547 346.83 39.2106C344.691 38.738 341.495 39.2187 337.94 38.6065C336.509 38.5692 335.092 38.5284 333.648 38.4825C333.645 38.4824 333.641 38.4823 333.638 38.4822C333.593 38.6734 333.549 38.8647 333.504 39.0559C337.951 39.1955 342.397 39.2932 346.828 39.3612C347.011 39.364 347.194 39.3668 347.378 39.3696ZM674.98 37.7745C674.031 37.686 673.084 37.5976 672.139 37.5091C670.456 37.6153 668.778 37.7215 667.106 37.8277C668.011 37.9014 668.917 37.9751 669.825 38.0488C671.538 37.9574 673.256 37.8659 674.98 37.7745ZM322.213 38.7277C327.223 39.0397 329.151 38.501 322.726 38.2245C320.034 38.099 316.958 38.3761 322.213 38.7277ZM914.676 37.4765C912.955 37.427 911.312 37.3773 909.612 37.3277C909.036 37.4575 908.46 37.5873 907.881 37.7171C910.167 37.637 912.387 37.5569 914.676 37.4765ZM213.032 28.7056C213.243 28.5982 213.454 28.491 213.666 28.3839C215.154 28.5683 216.656 28.7572 218.152 28.947C217.762 29.0331 217.372 29.1193 216.979 29.2053C215.662 29.0368 214.35 28.8702 213.032 28.7056ZM903.256 37.4154C901.867 37.3929 900.538 37.3703 899.19 37.3477C898.286 37.4117 897.378 37.4757 896.468 37.5397C897.736 37.6 898.998 37.6604 900.255 37.7207C901.238 37.619 902.241 37.5173 903.256 37.4154ZM275.08 34.992C276.961 35.3092 284.572 35.5056 277.763 34.7748C273.437 34.3155 274.799 34.9445 275.08 34.992ZM264.843 34.2832C265.615 34.3797 266.248 34.4432 266.751 34.4803C268.877 34.638 268.606 34.3201 266.79 33.9993C265.026 33.6895 261.839 33.3723 257.981 33.447C266.753 34.0988 264.417 34.2232 264.843 34.2832ZM201.222 28.5624C201.068 28.5487 200.946 28.3753 200.005 28.2483C199.86 28.2286 199.694 28.2102 199.505 28.1937C194.391 27.743 187.556 27.262 183.846 27.0625C174.938 26.4989 147.363 26.0578 144.124 25.3601C143.452 25.2101 145.019 24.8628 144.745 24.8349C143.935 24.7557 139.308 24.816 140.173 24.552C144.707 24.6814 149.255 24.8107 153.779 24.9492C152.662 25.1189 151.538 25.2889 150.426 25.4597C161.713 25.6885 157.974 25.5946 161.232 25.255C163.135 25.4894 165.035 25.7263 166.933 25.9665C171.087 25.9444 175.233 25.9375 179.376 25.9563C178.434 26.0414 177.494 26.1279 176.546 26.2153C182.767 26.7326 181.041 26.5019 184.456 26.3613C184.456 26.4899 184.457 26.6186 184.457 26.7472C190.472 26.7534 191.608 27.2314 192.903 27.3162C194.559 27.4315 196.499 26.9806 200.093 27.1837C202.335 27.3124 205.236 27.707 209.101 28.6839C213.487 28.4023 213.23 29.8694 215.852 29.3937C223.086 31.0138 209.176 29.1527 202.689 28.566C202.686 28.5657 202.683 28.5654 202.679 28.5651C202.188 28.5194 202.954 28.724 201.222 28.5624ZM238.914 31.7948C234.36 31.9918 252.064 33.8996 246.296 32.3325C245.427 32.2123 244.561 32.0915 243.689 31.9694C242.1 31.9139 240.502 31.8549 238.904 31.7937C238.907 31.7941 238.911 31.7945 238.914 31.7948ZM405.733 40.1498C422.157 39.7826 412.816 39.4551 407.257 39.8594C406.142 39.9392 405.539 40.0437 405.733 40.1498ZM740.478 38.6055C740.717 38.5252 740.956 38.4449 741.195 38.3645C735.712 38.4446 725.06 38.1457 725.217 38.6858C730.289 38.659 735.406 38.6322 740.478 38.6055ZM696.996 39.001C698.169 39.0324 702.99 39.1044 702.409 38.9029C700.317 38.7618 698.23 38.6207 696.149 38.4796C695.18 38.5701 694.212 38.6606 693.231 38.7512C694.608 38.7802 696.673 38.9928 696.996 39.001Z" fill="#297230"/>
</svg>
