<svg width="175" height="254" viewBox="0 0 175 254" fill="none" xmlns="http://www.w3.org/2000/svg">
<path d="M173.758 252.63C153.702 248.82 96.3759 238.7 94.8984 203.329C94.2835 188.611 100.752 168.011 111.434 158.539C134.373 138.2 172.447 165.337 140.829 190.118C123.097 204.016 97.7619 192.743 79.918 184.479C53.615 172.297 41.0904 148.485 30.1714 120.194C24.6263 105.827 12.2677 32.9762 16.0389 35.126" stroke="black" stroke-opacity="0.3" stroke-linecap="round"/>
<path d="M8.40752 9.02546C12.2194 11.3914 40.8913 30.5782 37.6618 27.7147C33.4348 23.9666 28.7343 20.5983 24.9425 16.2755C20.4565 11.1613 14.9091 7.4151 10.9513 1.7752C7.47843 -3.1738 0.775879 29.2826 0.775879 35.126" stroke="black" stroke-opacity="0.3" stroke-linecap="round"/>
</svg>
