<svg width="118" height="24" viewBox="0 0 118 24" fill="none" xmlns="http://www.w3.org/2000/svg">
<path d="M81.3629 9.77053C81.3629 9.94226 81.3818 10.3811 81.3629 10.8581C81.2113 14.9796 77.3642 18.376 74.6921 18.376C71.9821 18.376 70.7313 16.2771 70.4092 13.434C66.9411 12.3274 65.7282 8.12959 67.2822 6.14519C68.6278 4.38976 70.5229 6.37416 71.2241 7.88154H71.1672C70.6176 6.7367 69.0826 6.71762 68.0782 7.97694C66.4673 9.98042 67.9266 12.9952 71.3567 13.4531C70.8261 13.3196 70.3713 13.1287 70.3713 12.9379C70.3713 7.65257 75.2227 3.07319 79.373 3.07319C80.6617 3.07319 82.481 4.04631 82.481 6.37416C82.481 10.362 77.1557 13.4913 72.8538 13.7012C72.797 15.8191 73.0813 18.1661 74.6921 18.1661C77.3832 18.1661 78.3118 14.3881 78.5013 13.663C78.7476 12.6517 78.8424 12.003 78.8803 11.7931C79.8847 11.1634 80.4343 10.7055 81.3629 9.77053ZM74.0099 11.3733L73.8772 11.3352C73.8393 9.19811 74.8627 5.13391 77.8569 5.30564C80.3016 5.4392 81.325 7.46176 81.3439 9.25535C81.9693 8.37764 82.3483 7.4236 82.3483 6.41232C82.3483 4.27528 80.6806 3.30216 79.1077 3.30216C76.4546 3.30216 74.2562 6.12611 73.2708 9.78962C72.7591 11.7359 72.8538 12.9189 72.8538 13.5104C74.9574 13.434 77.1936 12.6708 78.9561 11.4878C79.8089 7.88154 79.8278 6.01163 77.8759 5.78266C74.9385 5.42012 73.9151 9.42708 74.0099 11.3733Z" fill="#297230"/>
<path d="M14.8523 6.80109V16.9306C14.8523 17.4851 15.0358 18.0581 15.2929 18.3354H12.2269C12.5023 18.0581 12.6675 17.4851 12.6675 16.9306V6.33898L7.52707 18.3354H7.15989L2.03778 6.33898V16.413C2.03778 17.1894 2.40495 17.9472 2.99244 18.3354H0.624146C1.21163 17.9472 1.59716 17.1894 1.59716 16.413V6.80109C1.59716 6.24656 1.34014 5.67354 0.954605 5.39627H3.92874L8.24307 15.4149L12.5574 5.39627H15.2929C15.0358 5.67354 14.8523 6.24656 14.8523 6.80109ZM17.5424 18.3354C17.8178 18.0581 17.983 17.4851 17.983 16.9306V6.80109C17.983 6.24656 17.8178 5.67354 17.5424 5.39627H20.6267C20.3513 5.67354 20.1677 6.24656 20.1677 6.80109V16.9306C20.1677 17.4851 20.3513 18.0581 20.6267 18.3354H17.5424ZM33.1298 16.9306C33.4419 17.5221 33.956 18.0951 34.4333 18.3354H32.0834C31.5693 18.0581 31.1103 17.596 30.8166 17.06L29.0909 13.6958C28.8889 13.3076 28.5585 12.9749 28.1178 12.7901H25.4925V16.9306C25.4925 17.4851 25.6761 18.0581 25.9515 18.3354H22.8672C23.1426 18.0581 23.3078 17.4851 23.3078 16.9306V6.80109C23.3078 6.24656 23.1426 5.67354 22.8672 5.39627H28.5768C31.2572 5.39627 33.3134 6.94897 33.3134 9.09317C33.3134 10.9971 31.6978 12.4389 29.4397 12.7346C30.4494 12.9564 31.2939 13.4555 31.6795 14.2688L33.1298 16.9306ZM25.4925 5.76596V12.4204H28.0995C29.8803 12.4204 31.0553 11.108 31.0553 9.09317C31.0553 7.07836 29.8803 5.76596 28.0995 5.76596H25.4925ZM47.4913 18.3354H43.8379C44.2234 17.9287 44.2785 17.1339 43.9297 16.3391L43.2137 14.657H37.1186L36.4944 16.1173C36.1088 16.986 36.2373 17.8363 36.8065 18.3354H34.3831C34.8971 18.0027 35.4846 17.1709 35.962 16.0988L40.6251 5.39627H41.4696L46.298 16.5054C46.6468 17.3188 47.1241 18.0397 47.4913 18.3354ZM37.2838 14.2873H43.0485L40.1661 7.59592L37.2838 14.2873ZM57.9751 5.39627V7.94713C57.3876 6.63473 56.231 5.76596 55.056 5.76596H51.2558V11.7734H54.2483C55.1478 11.7734 56.0474 11.2743 56.5064 10.5165V13.4C56.0474 12.6422 55.1478 12.1431 54.2483 12.1431H51.2558V16.9306C51.2558 17.4851 51.5128 18.0581 51.8983 18.3354H48.6305C48.9058 18.0581 49.0711 17.4851 49.0711 16.9306V6.80109C49.0711 6.24656 48.9058 5.67354 48.6305 5.39627H57.9751ZM65.7914 17.9657C66.9847 17.9657 68.178 17.06 68.7839 15.6921V18.3354H59.531C59.8064 18.0581 59.9716 17.4851 59.9716 16.9306V6.80109C59.9716 6.24656 59.8064 5.67354 59.531 5.39627H62.6153C62.3399 5.67354 62.1563 6.24656 62.1563 6.80109V17.9657H65.7914Z" fill="#297230"/>
<path d="M94.1454 16.9306C94.4575 17.5221 94.9716 18.0951 95.4489 18.3354H93.099C92.5849 18.0581 92.1259 17.596 91.8322 17.06L90.1065 13.6958C89.9045 13.3076 89.5741 12.9749 89.1334 12.7901H86.5081V16.9306C86.5081 17.4851 86.6917 18.0581 86.9671 18.3354H83.8828C84.1582 18.0581 84.3234 17.4851 84.3234 16.9306V6.80109C84.3234 6.24656 84.1582 5.67354 83.8828 5.39627H89.5924C92.2728 5.39627 94.329 6.94897 94.329 9.09317C94.329 10.9971 92.7134 12.4389 90.4553 12.7346C91.465 12.9564 92.3095 13.4555 92.6951 14.2688L94.1454 16.9306ZM86.5081 5.76596V12.4204H89.1151C90.8959 12.4204 92.0709 11.108 92.0709 9.09317C92.0709 7.07836 90.8959 5.76596 89.1151 5.76596H86.5081ZM103.244 17.9657C104.419 17.9657 105.575 17.0969 106.163 15.7661V18.3354H96.4508C96.7262 18.0581 96.8914 17.4851 96.8914 16.9306V6.80109C96.8914 6.24656 96.7262 5.67354 96.4508 5.39627H105.979V7.94713C105.392 6.63473 104.235 5.76596 103.06 5.76596H99.0761V11.5886H102.252C103.152 11.5886 104.051 11.0895 104.51 10.3316V13.2152C104.051 12.4573 103.152 11.9583 102.252 11.9583H99.0761V17.9657H103.244ZM112.423 18.5202C109.724 18.5202 107.65 17.2263 107.65 15.6367C107.65 14.8418 108.164 14.3428 108.825 14.3428C109.504 14.3428 110 14.8418 110 15.5073C109.394 15.5073 109.008 15.8585 109.008 16.413C109.008 17.3927 110.238 18.0397 111.964 18.0397C114.057 18.0397 115.471 17.0969 115.471 15.7661C115.471 14.3058 113.855 13.6034 112.019 12.864C110.128 12.0877 107.888 11.1819 107.888 8.85287C107.888 6.69019 109.853 5.21143 112.496 5.21143C114.901 5.21143 116.756 6.4314 116.756 7.92865C116.756 8.68651 116.26 9.18559 115.599 9.18559C114.92 9.18559 114.387 8.68651 114.387 8.02107C115.067 8.02107 115.507 7.70683 115.507 7.17078C115.507 6.28353 114.406 5.67354 112.9 5.67354C110.973 5.67354 109.596 6.6717 109.596 8.02107C109.596 9.55528 111.34 10.2762 113.102 10.9601C115.195 11.7549 117.251 12.5867 117.251 14.8418C117.251 17.0415 115.269 18.5202 112.423 18.5202Z" fill="#297230"/>
</svg>
