<svg width="20" height="20" viewBox="0 0 20 20" fill="none" xmlns="http://www.w3.org/2000/svg">
<path d="M16.5254 7.25004L12.7504 3.47504C11.9587 2.68337 10.8671 2.25837 9.75039 2.31671L5.58372 2.51671C3.91705 2.59171 2.59205 3.91671 2.50872 5.57504L2.30872 9.74171C2.25872 10.8584 2.67539 11.95 3.46705 12.7417L7.24205 16.5167C8.79205 18.0667 11.3087 18.0667 12.8671 16.5167L16.5254 12.8584C18.0837 11.3167 18.0837 8.80004 16.5254 7.25004ZM7.91705 10.3167C6.60039 10.3167 5.51705 9.24171 5.51705 7.91671C5.51705 6.59171 6.60039 5.51671 7.91705 5.51671C9.23372 5.51671 10.3171 6.59171 10.3171 7.91671C10.3171 9.24171 9.23372 10.3167 7.91705 10.3167ZM14.6087 11.275L11.2754 14.6084C11.1504 14.7334 10.9921 14.7917 10.8337 14.7917C10.6754 14.7917 10.5171 14.7334 10.3921 14.6084C10.1504 14.3667 10.1504 13.9667 10.3921 13.725L13.7254 10.3917C13.9671 10.15 14.3671 10.15 14.6087 10.3917C14.8504 10.6334 14.8504 11.0334 14.6087 11.275Z" fill="black"/>
</svg>
