<svg width="18" height="18" viewBox="0 0 18 18" fill="none" xmlns="http://www.w3.org/2000/svg">
<path d="M4.30502 12C4.38752 11.6325 4.23752 11.1075 3.97502 10.845L2.15252 9.0225C1.58252 8.4525 1.35752 7.845 1.52252 7.32C1.69502 6.795 2.22752 6.435 3.02252 6.3L5.36252 5.91C5.70002 5.85 6.11252 5.55 6.27002 5.2425L7.56002 2.655C7.93502 1.9125 8.44502 1.5 9.00002 1.5C9.55502 1.5 10.065 1.9125 10.44 2.655L11.73 5.2425C11.8275 5.4375 12.03 5.625 12.2475 5.7525L4.17002 13.83C4.06502 13.935 3.88502 13.8375 3.91502 13.6875L4.30502 12Z" fill="#297230"/>
<path d="M14.0251 10.8454C13.7551 11.1154 13.6051 11.6329 13.6951 12.0004L14.2126 14.2579C14.4301 15.1954 14.2951 15.9004 13.8301 16.2379C13.6426 16.3729 13.4176 16.4404 13.1551 16.4404C12.7726 16.4404 12.3226 16.2979 11.8276 16.0054L9.6301 14.7004C9.2851 14.4979 8.7151 14.4979 8.3701 14.7004L6.1726 16.0054C5.3401 16.4929 4.6276 16.5754 4.1701 16.2379C3.9976 16.1104 3.8701 15.9379 3.7876 15.7129L12.9076 6.59291C13.2526 6.24791 13.7401 6.09041 14.2126 6.17291L14.9701 6.30041C15.7651 6.43541 16.2976 6.79541 16.4701 7.32041C16.6351 7.84541 16.4101 8.45291 15.8401 9.02291L14.0251 10.8454Z" fill="#297230"/>
</svg>
