<svg width="22" height="22" viewBox="0 0 22 22" fill="none" xmlns="http://www.w3.org/2000/svg">
<path d="M12.7299 2.5116L14.4899 6.0316C14.7299 6.5216 15.3699 6.9916 15.9099 7.0816L19.0999 7.6116C21.1399 7.9516 21.6199 9.4316 20.1499 10.8916L17.6699 13.3716C17.2499 13.7916 17.0199 14.6016 17.1499 15.1816L17.8599 18.2516C18.4199 20.6816 17.1299 21.6216 14.9799 20.3516L11.9899 18.5816C11.4499 18.2616 10.5599 18.2616 10.0099 18.5816L7.01991 20.3516C4.87991 21.6216 3.57991 20.6716 4.13991 18.2516L4.84991 15.1816C4.97991 14.6016 4.74991 13.7916 4.32991 13.3716L1.84991 10.8916C0.389909 9.4316 0.859909 7.9516 2.89991 7.6116L6.08991 7.0816C6.61991 6.9916 7.25991 6.5216 7.49991 6.0316L9.25991 2.5116C10.2199 0.601602 11.7799 0.601602 12.7299 2.5116Z" stroke="#6E6D67" stroke-width="1.3" stroke-linecap="round" stroke-linejoin="round"/>
</svg>
