<svg width="28" height="28" viewBox="0 0 28 28" fill="none" xmlns="http://www.w3.org/2000/svg">
<path d="M23.2983 11.6667H4.63159V21C4.63159 24.5 5.79826 25.6667 9.29826 25.6667H18.6316C22.1316 25.6667 23.2983 24.5 23.2983 21V11.6667Z" stroke="black" stroke-width="1.5" stroke-miterlimit="10" stroke-linecap="round" stroke-linejoin="round"/>
<path d="M25.0834 8.16665V9.33331C25.0834 10.6166 24.4651 11.6666 22.7501 11.6666H5.25008C3.46508 11.6666 2.91675 10.6166 2.91675 9.33331V8.16665C2.91675 6.88331 3.46508 5.83331 5.25008 5.83331H22.7501C24.4651 5.83331 25.0834 6.88331 25.0834 8.16665Z" stroke="black" stroke-width="1.5" stroke-miterlimit="10" stroke-linecap="round" stroke-linejoin="round"/>
<path d="M13.5801 5.83326H7.14007C6.74341 5.4016 6.75507 4.7366 7.17507 4.3166L8.83174 2.65993C9.26341 2.22826 9.97507 2.22826 10.4067 2.65993L13.5801 5.83326Z" stroke="black" stroke-width="1.5" stroke-miterlimit="10" stroke-linecap="round" stroke-linejoin="round"/>
<path d="M20.8484 5.83326H14.4084L17.5818 2.65993C18.0134 2.22826 18.7251 2.22826 19.1568 2.65993L20.8134 4.3166C21.2334 4.7366 21.2451 5.4016 20.8484 5.83326Z" stroke="black" stroke-width="1.5" stroke-miterlimit="10" stroke-linecap="round" stroke-linejoin="round"/>
<path d="M10.4299 11.6667V17.6634C10.4299 18.5967 11.4566 19.145 12.2383 18.6434L13.3349 17.92C13.7316 17.6634 14.2333 17.6634 14.6183 17.92L15.6566 18.62C16.4266 19.1334 17.4649 18.585 17.4649 17.6517V11.6667H10.4299Z" stroke="black" stroke-width="1.5" stroke-miterlimit="10" stroke-linecap="round" stroke-linejoin="round"/>
</svg>
