<svg width="17" height="18" viewBox="0 0 17 18" fill="none" xmlns="http://www.w3.org/2000/svg">
<path d="M8.59155 7.0293V10.3567H13.2155C13.0125 11.4268 12.4032 12.3329 11.4893 12.9421L14.2778 15.1057C15.9024 13.6061 16.8397 11.4034 16.8397 8.78681C16.8397 8.17758 16.7851 7.59172 16.6835 7.02939L8.59155 7.0293Z" fill="#4285F4"/>
<path d="M3.77665 10.2266L3.14775 10.708L0.921631 12.4419C2.33538 15.246 5.23298 17.1831 8.5916 17.1831C10.9114 17.1831 12.8562 16.4177 14.2778 15.1055L11.4894 12.9419C10.7239 13.4574 9.74755 13.7698 8.5916 13.7698C6.35772 13.7698 4.45975 12.2624 3.78016 10.2315L3.77665 10.2266Z" fill="#34A853"/>
<path d="M0.921608 4.74121C0.33583 5.89716 0 7.20159 0 8.59189C0 9.98219 0.33583 11.2866 0.921608 12.4426C0.921608 12.4503 3.78041 10.2243 3.78041 10.2243C3.60858 9.70878 3.50701 9.16206 3.50701 8.5918C3.50701 8.02153 3.60858 7.47481 3.78041 6.9593L0.921608 4.74121Z" fill="#FBBC05"/>
<path d="M8.59178 3.42113C9.85714 3.42113 10.9819 3.85853 11.8801 4.7021L14.3405 2.24173C12.8486 0.851431 10.9116 0 8.59178 0C5.23316 0 2.33538 1.92927 0.921631 4.74117L3.78035 6.95944C4.45985 4.92861 6.3579 3.42113 8.59178 3.42113Z" fill="#EA4335"/>
</svg>
