<svg width="222" height="148" viewBox="0 0 222 148" fill="none" xmlns="http://www.w3.org/2000/svg">
<path d="M8.51717 51.4541C8.61204 51.1772 8.73308 50.8951 8.88028 50.6079C9.03798 50.3049 9.21392 50.0256 9.40811 49.7699C9.60229 49.5141 9.81729 49.2951 10.0531 49.1126C10.2864 48.9171 10.5338 48.7936 10.7954 48.742C11.2794 48.6465 11.7277 48.7144 12.1402 48.9456C12.5502 49.1637 12.9247 49.4432 13.2637 49.7841C13.6028 50.1249 13.9038 50.48 14.1669 50.8494C14.4431 51.2163 14.683 51.5019 14.8864 51.7064C15.155 51.966 15.4055 52.168 15.6378 52.3125C15.8807 52.4412 16.1002 52.4863 16.2964 52.4476C16.4142 52.4244 16.5123 52.405 16.5908 52.3895C16.6693 52.374 16.7465 52.352 16.8224 52.3235C16.8957 52.2818 16.9808 52.2311 17.0777 52.1712C17.1721 52.0982 17.2887 52.0005 17.4276 51.8779C17.4512 51.8597 17.4878 51.8389 17.5376 51.8155C17.5847 51.779 17.6541 51.7517 17.7457 51.7336C17.9288 51.6975 18.0987 51.732 18.2553 51.837C18.4224 51.9263 18.5279 52.0822 18.5718 52.3046C18.6079 52.4877 18.5826 52.6694 18.4958 52.8496C18.4064 53.0167 18.2805 53.1706 18.118 53.3114C17.9555 53.4522 17.7695 53.5772 17.5601 53.6865C17.348 53.7827 17.1439 53.8501 16.9476 53.8888C16.3459 54.0075 15.8216 54.0022 15.3748 53.8728C14.9254 53.7304 14.5246 53.5241 14.1723 53.2538C13.82 52.9836 13.5018 52.6794 13.2177 52.3413C12.9466 52.0007 12.6873 51.6849 12.4397 51.394C12.192 51.103 11.9495 50.8723 11.712 50.7017C11.4719 50.518 11.2079 50.4545 10.9202 50.5113C10.6847 50.5577 10.4869 50.6919 10.3268 50.9137C10.1667 51.1356 10.034 51.3928 9.9286 51.6854C9.82322 51.978 9.74134 52.2863 9.68295 52.6104C9.63506 52.9188 9.60034 53.1907 9.57879 53.4259C9.61251 53.528 9.63841 53.6248 9.65647 53.7164C9.67453 53.808 9.69259 53.8995 9.71065 53.9911C9.74419 54.1612 9.77902 54.3378 9.81514 54.5209C9.84868 54.691 9.86131 54.8584 9.85302 55.0231C9.84216 55.1747 9.79997 55.3053 9.72646 55.415C9.66604 55.522 9.55079 55.5923 9.38074 55.6259C9.14527 55.6723 8.94665 55.6299 8.78488 55.4988C8.62311 55.3676 8.47847 55.1855 8.35096 54.9524C8.23653 54.7167 8.12744 54.4393 8.0237 54.12C7.91995 53.8007 7.81621 53.4814 7.71246 53.1621C7.60614 52.8297 7.48148 52.5078 7.33849 52.1962C7.20859 51.8821 7.05242 51.6071 6.87001 51.3713C6.90301 51.7453 6.8706 52.1322 6.77278 52.532C6.68547 52.9162 6.56812 53.2859 6.42074 53.6411C6.28644 53.9938 6.14569 54.3137 5.99849 54.601C5.86179 54.8725 5.76056 55.0828 5.69479 55.2316C5.5791 55.4719 5.41006 55.614 5.18767 55.6578C4.95221 55.7043 4.76013 55.6606 4.61144 55.5269C4.46275 55.3931 4.37421 55.2543 4.34583 55.1104C4.31745 54.9665 4.32564 54.8358 4.37041 54.7182C4.56532 54.1905 4.74051 53.7007 4.896 53.2487C5.05148 52.7968 5.17813 52.3709 5.27594 51.9711C5.38426 51.5556 5.46246 51.1596 5.51053 50.7832C5.57168 50.4042 5.61192 50.0226 5.63125 49.6382C5.63677 49.5284 5.69195 49.4292 5.79678 49.3406C5.90161 49.2519 6.02597 49.1934 6.16987 49.1651C6.39225 49.1212 6.6209 49.178 6.85582 49.3355C7.10382 49.4905 7.3334 49.6898 7.54456 49.9336C7.7688 50.1747 7.96291 50.4354 8.12691 50.7157C8.30398 50.9933 8.43407 51.2395 8.51717 51.4541ZM17.459 52.4425C17.3713 51.9978 17.3725 51.5218 17.4628 51.0148C17.5531 50.5078 17.7243 50.0323 17.9765 49.5884C18.2392 49.1289 18.5815 48.7284 19.0034 48.387C19.4384 48.043 19.9437 47.8142 20.5193 47.7007C20.7155 47.662 20.9261 47.6273 21.1511 47.5965C21.3865 47.5501 21.601 47.5349 21.7944 47.5511C21.9879 47.5674 22.1551 47.6227 22.2961 47.7172C22.4501 47.8092 22.5478 47.9598 22.589 48.1691C22.9026 48.2431 23.1952 48.3485 23.4668 48.4852C23.7358 48.6088 23.9811 48.7847 24.2028 49.0128C24.4349 49.2252 24.6304 49.4924 24.789 49.8145C24.9607 50.1339 25.0918 50.5226 25.1821 50.9805C25.1924 51.0328 25.2341 51.0721 25.3073 51.0985C25.3778 51.1117 25.4602 51.1159 25.5543 51.1109C25.6616 51.1033 25.7622 51.0971 25.8564 51.0921C25.961 51.0714 26.0526 51.0534 26.1311 51.0379C26.5759 50.9502 26.9253 50.8269 27.1794 50.6681C27.4308 50.4962 27.6616 50.2536 27.8716 49.9404C27.9241 49.862 27.9936 49.8008 28.08 49.7566C28.1769 49.6967 28.2581 49.6603 28.3235 49.6474C28.5459 49.6035 28.7314 49.6485 28.8801 49.7822C29.0262 49.9029 29.116 50.0483 29.1496 50.2183C29.165 50.2968 29.1609 50.3792 29.1371 50.4654C29.1108 50.5385 29.091 50.6104 29.0777 50.681C28.9985 50.9684 28.8567 51.2138 28.6522 51.4172C28.4477 51.6206 28.2158 51.7887 27.9566 51.9214C27.7104 52.0515 27.446 52.158 27.1634 52.2409C26.8913 52.3081 26.6375 52.365 26.402 52.4114C26.1665 52.4579 25.9416 52.4887 25.7271 52.5038C25.5127 52.5189 25.3479 52.5106 25.233 52.4789C25.215 53.3522 24.9633 54.0746 24.478 54.646C23.9953 55.2304 23.2569 55.6207 22.2627 55.8168C21.5432 55.9587 20.9026 55.9491 20.3408 55.7881C19.7922 55.6245 19.3143 55.3722 18.9073 55.0312C18.5134 54.6876 18.1967 54.288 17.9574 53.8324C17.7154 53.3636 17.5493 52.9004 17.459 52.4425ZM19.6099 50.4282C19.5815 50.2844 19.5649 50.1313 19.5601 49.9692C19.5684 49.8045 19.5923 49.6503 19.6319 49.5066C19.4564 49.6499 19.3082 49.8286 19.1873 50.0427C19.0639 50.2437 18.9665 50.4736 18.8952 50.7323C18.8344 50.9753 18.8024 51.2263 18.7991 51.4851C18.7932 51.7309 18.8122 51.965 18.856 52.1874C18.9412 52.6191 19.0958 52.9895 19.3198 53.2986C19.5439 53.6078 19.8034 53.8556 20.0984 54.042C20.4065 54.2259 20.7238 54.3536 21.0505 54.425C21.3772 54.4965 21.6909 54.5026 21.9918 54.4432C22.5543 54.3323 22.9876 54.1177 23.2918 53.7995C23.6091 53.4787 23.7658 53.0333 23.7621 52.4632C23.4745 52.452 23.1085 52.4223 22.6641 52.374C22.2328 52.3232 21.8003 52.2318 21.3666 52.0999C20.9433 51.9524 20.5634 51.7487 20.2268 51.4889C19.9007 51.2135 19.695 50.8599 19.6099 50.4282ZM21.8299 48.9711C21.7514 48.9866 21.6493 49.0203 21.5237 49.0723C21.4085 49.1086 21.3038 49.1632 21.2094 49.2362C21.1125 49.2961 21.0352 49.3861 20.9773 49.5062C20.9195 49.6263 20.9073 49.7714 20.9409 49.9415C20.9821 50.1508 21.0915 50.3263 21.2689 50.468C21.4464 50.6096 21.6657 50.7227 21.927 50.807C22.1882 50.8914 22.4731 50.9575 22.7815 51.0054C23.103 51.0507 23.422 51.083 23.7383 51.1021L23.7073 50.9451C23.6067 50.435 23.3725 50.0055 23.0048 49.6567C22.637 49.308 22.2454 49.0794 21.8299 48.9711ZM36.5876 63.653C36.8623 63.5988 37.077 63.4817 37.2318 63.3017C37.4022 63.1322 37.5218 62.9115 37.5905 62.6397C37.6618 62.3811 37.6913 62.083 37.6792 61.7457C37.667 61.4083 37.6222 61.0434 37.5448 60.651C37.4493 60.167 37.3173 59.6698 37.1487 59.1595C36.9958 58.6596 36.8336 58.182 36.6622 57.7265C36.4909 57.2711 36.3207 56.8561 36.1517 56.4818C35.9827 56.1074 35.8436 55.8155 35.7344 55.606C35.4565 55.851 35.219 56.1969 35.0217 56.6435C34.84 57.1006 34.6948 57.6049 34.5862 58.1564C34.4906 58.7052 34.4394 59.2725 34.4326 59.8582C34.4415 60.4545 34.4962 61.0077 34.5968 61.5178C34.7361 62.2242 34.9621 62.7844 35.2748 63.1984C35.5875 63.6124 36.0251 63.7639 36.5876 63.653ZM27.6799 50.4266C27.6055 49.9113 27.6134 49.3661 27.7039 48.7911C27.7812 48.2186 27.9527 47.6752 28.2181 47.1608C28.4941 46.6307 28.8719 46.1689 29.3515 45.7753C29.831 45.3817 30.4371 45.1127 31.1696 44.9682C31.706 44.8624 32.1779 44.8781 32.5855 45.0151C32.9905 45.1391 33.3351 45.3361 33.6194 45.6062C33.9168 45.8737 34.15 46.1947 34.3189 46.5691C34.4984 46.9278 34.6243 47.2903 34.6965 47.6566C34.7404 47.8789 34.7593 48.147 34.7532 48.4608C34.7602 48.772 34.7359 49.0622 34.6803 49.3314C34.7973 49.5801 34.9195 49.855 35.0468 50.156C35.1872 50.4545 35.3223 50.7608 35.4523 51.0749C35.5952 51.3865 35.7317 51.6993 35.8616 52.0135C35.9889 52.3145 36.1033 52.5841 36.2046 52.8224C36.614 52.2796 36.9486 51.8059 37.2086 51.4012C37.466 50.9835 37.6867 50.5867 37.8707 50.2106C38.0678 49.832 38.2453 49.4572 38.4032 49.0863C38.5742 48.7128 38.7623 48.2884 38.9675 47.8131C39.0123 47.6955 39.0779 47.6146 39.1643 47.5704C39.2612 47.5105 39.3554 47.4715 39.447 47.4535C39.6301 47.4174 39.8078 47.4571 39.9801 47.5726C40.1498 47.675 40.2553 47.8309 40.2966 48.0402C40.3198 48.1579 40.3143 48.2677 40.28 48.3696C40.0011 49.0226 39.742 49.6037 39.5027 50.113C39.2739 50.6066 39.0333 51.0753 38.7811 51.5192C38.5263 51.95 38.2441 52.3793 37.9344 52.8074C37.6404 53.2459 37.2913 53.7156 36.8873 54.2166C37.0069 54.4784 37.1642 54.8279 37.3591 55.2651C37.5671 55.6998 37.7711 56.1828 37.9711 56.7141C38.1841 57.2429 38.3826 57.8017 38.5667 58.3905C38.7665 58.9899 38.9244 59.5839 39.0405 60.1725C39.1566 60.7612 39.2217 61.3327 39.236 61.8871C39.2502 62.4415 39.1848 62.9369 39.0398 63.3732C38.8974 63.8225 38.6597 64.2024 38.3268 64.5127C37.9965 64.836 37.5435 65.0545 36.968 65.168C36.3924 65.2815 35.8746 65.2749 35.4148 65.1482C34.9705 65.0319 34.5828 64.823 34.2515 64.5214C33.9228 64.2329 33.6531 63.8648 33.4425 63.4171C33.2345 62.9825 33.0776 62.497 32.9718 61.9606C32.8454 61.3197 32.791 60.6305 32.8086 59.8931C32.842 59.1663 32.9445 58.4462 33.1164 57.7328C33.2883 57.0193 33.528 56.3401 33.8357 55.6951C34.146 55.0631 34.5148 54.5215 34.9422 54.0702C34.7292 53.5415 34.5135 53.0336 34.2952 52.5466C34.0794 52.0728 33.8389 51.5426 33.5738 50.9562C33.3927 51.2093 33.1672 51.4441 32.8973 51.6604C32.6273 51.8767 32.347 52.0747 32.0563 52.2543C31.763 52.4209 31.4658 52.5679 31.1647 52.6952C30.8611 52.8094 30.585 52.8911 30.3365 52.9401C29.931 53.0201 29.5779 53.0217 29.2774 52.9451C28.99 52.8659 28.7472 52.7371 28.5489 52.5588C28.335 52.3699 28.167 52.1381 28.0448 51.8632C27.92 51.5752 27.8254 51.2677 27.7609 50.9407C27.7454 50.8622 27.7299 50.7837 27.7145 50.7052C27.6964 50.6137 27.6849 50.5208 27.6799 50.4266ZM31.4096 46.1848C31.0956 46.2467 30.7814 46.4106 30.4669 46.6765C30.1655 46.9398 29.9019 47.2568 29.676 47.6275C29.4501 47.9982 29.2778 48.3991 29.159 48.8303C29.0506 49.2457 29.0339 49.6432 29.1087 50.0225C29.199 50.4804 29.3509 50.8717 29.5645 51.1965C29.7755 51.5083 30.0706 51.6267 30.45 51.5519C30.8424 51.4745 31.2207 51.3251 31.5848 51.1038C31.9462 50.8695 32.2594 50.597 32.5244 50.2866C32.7893 49.9761 32.9876 49.638 33.1193 49.2723C33.2485 48.8935 33.2756 48.5144 33.2008 48.135C33.1621 47.9388 33.0973 47.7137 33.0065 47.4599C32.9287 47.2034 32.8156 46.9743 32.6671 46.7725C32.5317 46.5682 32.3569 46.4056 32.1428 46.2848C31.9418 46.1613 31.6974 46.128 31.4096 46.1848ZM38.788 35.1688C38.9018 35.6764 39.1384 36.1529 39.4981 36.5984C39.8709 37.0413 40.3038 37.4792 40.7968 37.912C41.2873 38.3316 41.8065 38.7593 42.3545 39.1948C42.913 39.6147 43.4413 40.0541 43.9395 40.513C44.4377 40.9719 44.8666 41.4581 45.2261 41.9716C45.5987 42.4825 45.8443 43.0388 45.963 43.6406C46.0326 43.9938 46.0918 44.3626 46.1404 44.7471C46.1891 45.1317 46.2547 45.5332 46.3373 45.9518C46.3682 46.1088 46.4122 46.2972 46.4691 46.517C46.5261 46.7368 46.6092 46.9514 46.7184 47.1609C46.8382 47.3547 46.9921 47.5146 47.18 47.6407C47.3654 47.7536 47.6019 47.7817 47.8897 47.7249C48.2691 47.6501 48.5637 47.4901 48.7735 47.2448C48.9834 46.9996 49.1579 46.7477 49.2972 46.4892C49.447 46.2151 49.581 45.9644 49.6993 45.7372C49.8306 45.5074 50.001 45.3719 50.2103 45.3306C50.3934 45.2945 50.5646 45.3355 50.7238 45.4536C50.8935 45.556 50.9964 45.6988 51.0325 45.882C51.048 45.9604 51.0385 46.0846 51.004 46.2545C50.909 46.5994 50.763 46.9272 50.566 47.2378C50.3691 47.5485 50.1395 47.8316 49.8774 48.0872C49.6283 48.3401 49.3453 48.559 49.0284 48.7438C48.7089 48.9156 48.3726 49.0363 48.0194 49.1059C47.6662 49.1756 47.3485 49.1839 47.0662 49.1308C46.7839 49.0778 46.5345 48.9843 46.3178 48.8504C46.1011 48.7164 45.9067 48.5577 45.7346 48.3742C45.573 48.1751 45.4376 47.9707 45.3283 47.7612C45.1043 48.417 44.7289 48.9939 44.2019 49.4919C43.6724 49.9769 43.0152 50.2968 42.2304 50.4516C41.367 50.6218 40.6326 50.4813 40.0271 50.0299C39.4348 49.576 39.0534 48.9173 38.8832 48.0539C38.8419 47.8446 38.8177 47.5844 38.8107 47.2732C38.8011 46.9489 38.8216 46.6051 38.8723 46.2418C38.9229 45.8785 38.9998 45.51 39.1027 45.1363C39.2188 44.7601 39.3818 44.4153 39.5919 44.1021C39.7993 43.7758 40.0563 43.4941 40.3629 43.2569C40.6695 43.0198 41.0386 42.8587 41.4703 42.7735C41.8366 42.7013 42.1778 42.7087 42.4939 42.7959C42.8232 42.8804 43.0162 43.0666 43.073 43.3544C43.1091 43.5375 43.0969 43.6826 43.0365 43.7897C42.9735 43.8836 42.9289 43.9332 42.9027 43.9383C42.7981 43.959 42.6595 43.9455 42.4871 43.898C42.3251 43.8348 42.1722 43.8174 42.0283 43.8458C41.6097 43.9284 41.2889 44.1276 41.0657 44.4434C40.8401 44.7461 40.6705 45.0921 40.557 45.4814C40.4566 45.8682 40.4059 46.2655 40.4048 46.6734C40.4142 47.0657 40.4434 47.3861 40.4924 47.6346C40.5905 48.1317 40.7987 48.4983 41.1171 48.7345C41.4329 48.9576 41.8197 49.024 42.2776 48.9337C42.7877 48.8331 43.2106 48.6342 43.5461 48.337C43.8946 48.0372 44.1584 47.6862 44.3373 47.284C44.5292 46.8792 44.6467 46.4415 44.6898 45.971C44.7329 45.5004 44.7106 45.0427 44.6229 44.598C44.5661 44.3102 44.5067 44.0433 44.4446 43.7973C44.3825 43.5514 44.2917 43.2975 44.1721 43.0357C44.0525 42.7739 43.8845 42.508 43.6682 42.2381C43.4624 41.9525 43.1821 41.6341 42.8275 41.2827C42.4232 40.8868 41.9275 40.4749 41.3403 40.0472C40.753 39.6194 40.1763 39.1759 39.6101 38.7168C39.0544 38.242 38.555 37.7425 38.1119 37.2184C37.6792 36.6786 37.4023 36.1012 37.281 35.4864C37.2191 35.1725 37.2722 34.8562 37.4404 34.5376C37.6061 34.206 37.8423 33.8876 38.149 33.5825C38.4688 33.2748 38.8331 32.9855 39.2417 32.7146C39.6635 32.4412 40.0838 32.1952 40.5028 31.9767C40.9348 31.7556 41.3471 31.5723 41.7398 31.4269C42.1455 31.279 42.4922 31.1766 42.78 31.1198C43.0416 31.0682 43.2547 31.0806 43.4192 31.1568C43.5812 31.22 43.6931 31.4086 43.7551 31.7225C43.7757 31.8272 43.748 31.9278 43.6719 32.0243C43.6063 32.1052 43.4635 32.2081 43.2435 32.3331C43.0235 32.458 42.7106 32.6284 42.3047 32.8444C41.8963 33.0473 41.3739 33.327 40.7375 33.6835C40.6275 33.746 40.4625 33.8397 40.2425 33.9646C40.0356 34.087 39.8313 34.2224 39.6296 34.3709C39.4252 34.5063 39.2366 34.6523 39.0636 34.8087C38.9011 34.9495 38.8092 35.0695 38.788 35.1688ZM50.5741 39.0006C50.8619 38.9438 51.1495 38.9551 51.437 39.0343C51.7375 39.1109 52.0078 39.2411 52.2479 39.4247C52.501 39.6058 52.7148 39.8287 52.8893 40.0932C53.0612 40.3447 53.1782 40.6274 53.2401 40.9414C53.3175 41.3338 53.3268 41.7601 53.2681 42.2202C53.2093 42.6802 53.0917 43.1519 52.9152 43.6352C52.7518 44.1159 52.54 44.5925 52.2799 45.0651C52.0303 45.5221 51.7467 45.9449 51.4293 46.3337C51.8157 46.5701 52.235 46.698 52.6873 46.7175C53.1397 46.737 53.6405 46.6926 54.1899 46.5843C54.5039 46.5223 54.8114 46.4277 55.1125 46.3004C55.424 46.1574 55.7108 45.9921 55.9728 45.8045C56.2453 45.6013 56.4851 45.3705 56.6924 45.1122C56.8997 44.8539 57.0612 44.5706 57.1771 44.2623C57.2403 44.1004 57.3216 43.996 57.4211 43.9492C57.5337 43.8998 57.6227 43.8687 57.6881 43.8558C57.832 43.8274 57.9927 43.8501 58.1704 43.9237C58.348 43.9974 58.4626 44.1651 58.5142 44.4267C58.5503 44.6099 58.5119 44.7941 58.399 44.9795C58.2072 45.3163 57.9932 45.6439 57.757 45.9623C57.5182 46.2676 57.2416 46.5532 56.9271 46.819C56.6257 47.0823 56.2708 47.3154 55.8623 47.5183C55.4513 47.7081 54.9841 47.8546 54.4608 47.9578C53.4667 48.1539 52.5933 48.1699 51.8406 48.0057C51.0985 47.8259 50.4678 47.5222 49.9485 47.0946C49.4162 46.6696 48.9953 46.1546 48.6857 45.5498C48.3605 44.9344 48.1308 44.2866 47.9967 43.6064C47.8909 43.0701 47.8831 42.5484 47.9734 42.0413C48.048 41.5238 48.2009 41.0587 48.4321 40.6462C48.6607 40.2206 48.9572 39.8631 49.3214 39.5738C49.6856 39.2845 50.1032 39.0935 50.5741 39.0006ZM50.8647 40.3703C50.5246 40.4373 50.2457 40.5739 50.0281 40.7799C49.821 40.9702 49.657 41.2064 49.5359 41.4885C49.4123 41.7575 49.3422 42.0567 49.3257 42.3862C49.3065 42.7025 49.3279 43.0177 49.3898 43.3316C49.475 43.7633 49.6046 44.1794 49.7787 44.58C49.9372 44.97 50.1429 45.2896 50.3959 45.5386C50.5429 45.3194 50.711 45.0348 50.9002 44.6849C51.0999 44.3194 51.2762 43.9381 51.4289 43.541C51.5921 43.1283 51.7161 42.7233 51.8008 42.3261C51.8961 41.9132 51.9114 41.5432 51.8469 41.2162C51.7953 40.9545 51.6913 40.7372 51.5349 40.5642C51.3889 40.3756 51.1655 40.3109 50.8647 40.3703ZM58.4272 44.9127C58.3143 45.0981 58.1597 45.2101 57.9635 45.2488C57.7803 45.2849 57.6039 45.2518 57.4342 45.1494C57.262 45.0338 57.1578 44.8845 57.1216 44.7014C57.0933 44.5575 57.1067 44.4189 57.162 44.2857C57.391 43.7241 57.5754 43.2121 57.7152 42.7496C57.8681 42.2846 57.9987 41.8443 58.107 41.4288C58.2258 40.9977 58.3263 40.577 58.4085 40.1667C58.4906 39.7563 58.5742 39.3186 58.6591 38.8533C58.7669 38.6418 58.9006 38.4931 59.0604 38.4073C59.2332 38.3188 59.3784 38.263 59.4962 38.2398C59.6662 38.2062 59.8087 38.2393 59.9234 38.339C60.0382 38.4386 60.1411 38.5814 60.2322 38.7673C60.3337 38.9376 60.4208 39.1378 60.4934 39.3681C60.5765 39.5828 60.6583 39.7909 60.7388 39.9924C60.933 39.7367 61.1416 39.4509 61.3647 39.1351C61.5853 38.8062 61.8162 38.4957 62.0576 38.2034C62.3094 37.8956 62.5703 37.6335 62.8402 37.4171C63.1206 37.1852 63.4113 37.0395 63.7121 36.9802C64.2223 36.8795 64.7032 36.975 65.1548 37.2664C65.6169 37.5422 66.0591 37.9239 66.4814 38.4113C66.9011 38.8858 67.3103 39.4098 67.7088 39.9836C68.1074 40.5573 68.5047 41.0905 68.9009 41.5831C69.3075 42.0601 69.717 42.4482 70.1294 42.7474C70.5522 43.0309 70.9991 43.1263 71.4701 43.0334C71.7317 42.9818 71.9686 42.8739 72.1809 42.7097C72.4062 42.543 72.6002 42.3552 72.7629 42.1465C72.9256 41.9377 73.0621 41.7341 73.1724 41.5357C73.2933 41.3216 73.3813 41.1479 73.4366 41.0147C73.5339 40.8188 73.6937 40.699 73.9161 40.6551C74.1254 40.6138 74.3096 40.6522 74.4688 40.7703C74.6255 40.8754 74.7218 41.0194 74.7579 41.2026C74.7889 41.3595 74.7715 41.5125 74.7057 41.6613C74.3925 42.4162 73.9803 43.0479 73.4691 43.5565C72.9552 44.0519 72.3844 44.3616 71.7565 44.4854C71.1809 44.5989 70.6267 44.5452 70.0938 44.3241C69.574 44.1004 69.078 43.7906 68.6058 43.3945C68.1466 42.9958 67.719 42.5501 67.3228 42.0574C66.9241 41.5517 66.5658 41.0788 66.248 40.6386C66.0995 40.4369 65.9392 40.2103 65.7673 39.9588C65.5954 39.7073 65.4065 39.4727 65.2005 39.2552C64.9945 39.0376 64.7713 38.8709 64.5311 38.7552C64.2882 38.6265 64.0295 38.5892 63.7548 38.6433C63.5062 38.6924 63.2534 38.8577 62.9964 39.1395C62.7499 39.4055 62.5124 39.7174 62.284 40.075C62.053 40.4196 61.8428 40.7668 61.6536 41.1167C61.4749 41.4509 61.337 41.7159 61.2397 41.9118C61.557 43.5208 61.8446 45.0134 62.1024 46.3895C62.3708 47.7499 62.6158 49.0267 62.8375 50.2196C63.0618 51.4257 63.2653 52.5611 63.4481 53.6259C63.6466 54.7011 63.8399 55.7502 64.0281 56.7731C64.2162 57.796 64.4031 58.8124 64.5887 59.8223C64.7899 60.8426 64.9963 61.8891 65.2079 62.9618C65.2286 63.0664 65.2074 63.1657 65.1444 63.2597C65.097 63.3642 65.0262 63.4529 64.9318 63.5259C64.8401 63.6119 64.7379 63.6796 64.6254 63.729C64.5154 63.7915 64.408 63.833 64.3034 63.8537C64.1726 63.8795 64.0432 63.8778 63.9151 63.8487C63.8001 63.817 63.7272 63.7227 63.6962 63.5657C63.1389 60.7402 62.5986 57.9316 62.0752 55.1401C61.5544 52.3617 61.0089 49.5271 60.4387 46.6361C60.2762 45.812 60.1071 44.9891 59.9315 44.1676C59.7663 43.3304 59.5986 42.4801 59.4283 41.6167C59.449 41.7214 59.4223 41.9305 59.3482 42.2441C59.2847 42.542 59.1923 42.866 59.0711 43.2161C58.9629 43.5636 58.8457 43.8993 58.7193 44.2232C58.606 44.5445 58.5086 44.7744 58.4272 44.9127ZM74.3045 34.3202C74.5923 34.2635 74.8799 34.2747 75.1673 34.3539C75.4678 34.4305 75.7381 34.5607 75.9782 34.7444C76.2314 34.9255 76.4452 35.1483 76.6197 35.4129C76.7916 35.6644 76.9085 35.9471 76.9704 36.2611C77.0478 36.6535 77.0572 37.0797 76.9984 37.5398C76.9397 37.9999 76.822 38.4715 76.6455 38.9548C76.4821 39.4355 76.2704 39.9122 76.0102 40.3848C75.7606 40.8417 75.4771 41.2646 75.1596 41.6534C75.546 41.8897 75.9654 42.0177 76.4177 42.0372C76.87 42.0567 77.3709 42.0123 77.9203 41.9039C78.2342 41.842 78.5417 41.7474 78.8428 41.62C79.1544 41.477 79.4411 41.3118 79.7031 41.1242C79.9756 40.9209 80.2155 40.6902 80.4227 40.4318C80.63 40.1735 80.7916 39.8902 80.9075 39.582C80.9706 39.42 81.052 39.3157 81.1515 39.2689C81.264 39.2195 81.353 39.1883 81.4184 39.1754C81.5623 39.1471 81.7231 39.1697 81.9007 39.2434C82.0783 39.3171 82.1929 39.4847 82.2445 39.7464C82.2807 39.9295 82.2422 40.1138 82.1293 40.2991C81.9375 40.6359 81.7235 40.9635 81.4874 41.2819C81.2486 41.5872 80.972 41.8728 80.6575 42.1387C80.356 42.402 80.0011 42.6351 79.5926 42.838C79.1816 43.0277 78.7145 43.1742 78.1912 43.2774C77.197 43.4735 76.3236 43.4895 75.5709 43.3254C74.8288 43.1456 74.1981 42.8419 73.6789 42.4143C73.1466 41.9892 72.7257 41.4743 72.4161 40.8694C72.0909 40.2541 71.8612 39.6063 71.727 38.926C71.6212 38.3897 71.6135 37.868 71.7037 37.361C71.7783 36.8434 71.9312 36.3784 72.1624 35.9658C72.3911 35.5402 72.6875 35.1828 73.0517 34.8935C73.416 34.6042 73.8336 34.4131 74.3045 34.3202ZM74.595 35.6899C74.2549 35.757 73.9761 35.8935 73.7585 36.0995C73.5514 36.2899 73.3873 36.5261 73.2663 36.8082C73.1427 37.0772 73.0726 37.3764 73.056 37.7058C73.0369 38.0222 73.0583 38.3373 73.1202 38.6513C73.2053 39.0829 73.335 39.4991 73.5091 39.8996C73.6676 40.2896 73.8733 40.6092 74.1263 40.8583C74.2733 40.639 74.4414 40.3545 74.6306 40.0046C74.8303 39.639 75.0065 39.2577 75.1592 38.8607C75.3225 38.4479 75.4464 38.043 75.5312 37.6457C75.6264 37.2328 75.6418 36.8629 75.5773 36.5358C75.5257 36.2742 75.4217 36.0569 75.2652 35.8839C75.1193 35.6952 74.8959 35.6306 74.595 35.6899ZM80.8793 40.0564C80.8432 39.8733 80.8868 39.7152 81.01 39.5821C81.1307 39.436 81.2695 39.3475 81.4265 39.3165C81.6227 39.2778 81.7704 39.3031 81.8695 39.3922C81.9818 39.4788 82.0965 39.6125 82.2136 39.7932C82.3283 39.9609 82.4689 40.1574 82.6357 40.3827C82.7999 40.595 83.0398 40.8126 83.3557 41.0357C83.7184 41.2903 84.0736 41.4717 84.4211 41.5799C84.7817 41.6854 85.1124 41.7085 85.4132 41.6492C85.8449 41.564 86.1802 41.3688 86.4189 41.0635C86.6551 40.7451 86.7854 40.4408 86.8097 40.1506C86.8911 39.0474 86.8859 38.0223 86.7943 37.0755C86.7027 36.1287 86.6147 35.3034 86.5303 34.5998C86.4589 33.8936 86.4291 33.3287 86.4407 32.9051C86.4523 32.4815 86.5954 32.2426 86.8701 32.1885C87.0794 32.1472 87.2363 32.1502 87.3408 32.1976C87.4557 32.2292 87.5795 32.4087 87.712 32.7359C87.7691 32.8877 87.8743 33.1456 88.0276 33.5095C88.1809 33.8733 88.3707 34.2844 88.597 34.7426C88.8233 35.2008 89.0796 35.6735 89.3659 36.1606C89.6522 36.6477 89.957 37.0905 90.2802 37.4888C90.6139 37.8714 90.9595 38.177 91.3172 38.4054C91.6722 38.6208 92.0329 38.6924 92.3992 38.6201C92.6869 38.5634 92.9099 38.3156 93.0679 37.8767C93.2391 37.4352 93.3426 36.8576 93.3785 36.1438C93.4249 35.4144 93.4088 34.575 93.3303 33.6256C93.2492 32.6631 93.1146 31.6364 92.9267 30.5454C92.8751 30.2838 92.9005 30.0682 93.0029 29.8985C93.1184 29.7262 93.2677 29.622 93.4509 29.5859C93.6602 29.5446 93.8313 29.6196 93.9641 29.8108C94.0944 29.989 94.2413 30.2862 94.405 30.7024C94.5686 31.1186 94.7763 31.6552 95.0282 32.3122C95.2776 32.9561 95.6194 33.7245 96.0537 34.6173C96.4386 35.3976 96.8068 36.0588 97.1584 36.601C97.5074 37.1302 97.8357 37.5547 98.1434 37.8745C98.4511 38.1943 98.733 38.4174 98.9889 38.5436C99.2553 38.6541 99.4932 38.6887 99.7025 38.6474C100.121 38.5649 100.484 38.371 100.791 38.0659C101.097 37.7608 101.364 37.4229 101.589 37.0522C101.815 36.6814 102.003 36.325 102.153 35.9829C102.314 35.625 102.452 35.36 102.567 35.1877C102.601 35.1538 102.654 35.1095 102.724 35.0548C102.806 34.9844 102.905 34.9376 103.023 34.9144C103.206 34.8783 103.377 34.9192 103.536 35.0373C103.693 35.1423 103.789 35.2864 103.825 35.4696C103.854 35.6135 103.846 35.7442 103.801 35.8617C103.651 36.2039 103.437 36.5995 103.158 37.0485C102.891 37.4818 102.581 37.9099 102.229 38.3325C101.888 38.7396 101.517 39.0981 101.116 39.4082C100.716 39.7183 100.306 39.9147 99.8872 39.9972C99.0238 40.1675 98.1657 39.8135 97.313 38.9352C96.4603 38.057 95.5803 36.5929 94.6732 34.543C94.7235 35.2806 94.7191 35.9814 94.6598 36.6454C94.611 37.2937 94.5074 37.8714 94.3492 38.3782C94.1884 38.872 93.9703 39.282 93.6948 39.6081C93.4168 39.9211 93.0881 40.1151 92.7088 40.1899C92.2902 40.2725 91.8692 40.24 91.446 40.0924C91.0359 39.9423 90.6286 39.7032 90.2242 39.3753C89.8302 39.0317 89.447 38.6044 89.0744 38.0935C88.7018 37.5826 88.3491 36.9999 88.0161 36.3453C88.0663 37.1508 88.1034 37.9249 88.1276 38.6676C88.1649 39.4077 88.1199 40.0757 87.9928 40.6715C87.8788 41.2648 87.6513 41.765 87.3103 42.172C86.9718 42.5921 86.469 42.8679 85.8019 42.9995C85.3964 43.0795 84.9322 43.0691 84.4095 42.9683C83.8894 42.8807 83.3878 42.7146 82.9047 42.4701C82.419 42.2126 81.9871 41.8832 81.609 41.4821C81.2309 41.0811 80.9877 40.6058 80.8793 40.0564ZM21.56 86.3702C21.3115 86.4192 21.0732 86.5546 20.8451 86.7762C20.617 86.9979 20.4019 87.2509 20.1998 87.5354C20.0108 87.8173 19.8361 88.1032 19.6759 88.393C19.5287 88.6803 19.4117 88.914 19.3249 89.0942C19.2982 89.3033 19.3067 89.5531 19.3504 89.8434C19.4045 90.1181 19.4378 90.3902 19.4502 90.6595C19.4599 90.9158 19.4306 91.1459 19.362 91.3496C19.2935 91.5534 19.1284 91.6811 18.8668 91.7327C18.6575 91.774 18.4758 91.7487 18.3218 91.6567C18.1652 91.5517 18.0675 91.4011 18.0288 91.2049C17.9901 91.0087 17.9606 90.8242 17.9401 90.6516C17.9301 90.4633 17.9215 90.2815 17.9141 90.1063C17.9198 89.9285 17.9111 89.7468 17.8881 89.561C17.8781 89.3727 17.8512 89.1674 17.8074 88.945C17.748 88.6441 17.6586 88.3288 17.5392 87.999C17.4173 87.6561 17.2756 87.3511 17.1141 87.084C16.9501 86.8038 16.7572 86.5836 16.5354 86.4235C16.3136 86.2634 16.0784 86.2079 15.8298 86.2569C15.3851 86.3446 15.0158 86.5397 14.7222 86.8423C14.4416 87.1422 14.187 87.505 13.9583 87.9306C13.7402 88.3406 13.5233 88.7911 13.3075 89.2821C13.1049 89.7706 12.8644 90.2393 12.586 90.6883C12.4915 90.8293 12.3527 90.9178 12.1695 90.9539C12.0256 90.9823 11.8583 90.9609 11.6676 90.8898C11.4769 90.8187 11.3597 90.672 11.3158 90.4496C11.2848 90.2926 11.3049 90.1188 11.376 89.9281C11.9473 88.4836 12.5819 87.3256 13.2798 86.454C13.9751 85.5694 14.8002 85.033 15.7551 84.8446C16.5531 84.6872 17.1633 84.8183 17.5858 85.2378C18.0083 85.6573 18.3609 86.3081 18.6436 87.19C18.7279 86.9288 18.8293 86.6846 18.9475 86.4574C19.0789 86.2276 19.2481 86.0176 19.4552 85.8272C19.6623 85.6369 19.9151 85.4715 20.2135 85.3311C20.512 85.1907 20.8705 85.0792 21.2891 84.9967C21.8516 84.8857 22.3654 84.9067 22.8305 85.0596C23.2955 85.2125 23.7211 85.4411 24.1073 85.7455C24.4909 86.0368 24.8417 86.3685 25.1598 86.7406C25.4909 87.1102 25.8103 87.4549 26.118 87.7748C26.4231 88.0815 26.7232 88.3281 27.0182 88.5146C27.3131 88.701 27.6241 88.762 27.9512 88.6975C28.3305 88.6227 28.6633 88.3804 28.9494 87.9706C29.246 87.5452 29.5285 87.0138 29.7969 86.3765C29.8865 86.1414 30.0621 85.998 30.3237 85.9464C30.5853 85.8948 30.7787 85.945 30.9038 86.097C31.042 86.2464 31.124 86.3865 31.1498 86.5173C31.1756 86.6482 31.174 86.7436 31.1451 86.8037C31.0369 87.1512 30.9027 87.5038 30.7422 87.8616C30.5922 88.2038 30.3979 88.5275 30.1591 88.8328C29.9308 89.1224 29.6556 89.3806 29.3333 89.6072C29.0216 89.8182 28.663 89.9637 28.2575 90.0437C27.7342 90.1469 27.2597 90.1181 26.8339 89.9575C26.4081 89.7969 26.0165 89.5683 25.659 89.2719C25.299 88.9624 24.9547 88.6294 24.6262 88.2729C24.3081 87.9007 23.9835 87.5638 23.6522 87.2622C23.3314 86.945 22.9974 86.6983 22.6501 86.5222C22.3158 86.3434 21.9525 86.2928 21.56 86.3702ZM30.6826 79.6173C30.9704 79.5606 31.258 79.5718 31.5455 79.651C31.846 79.7276 32.1163 79.8578 32.3564 80.0415C32.6095 80.2226 32.8233 80.4454 32.9978 80.71C33.1697 80.9615 33.2867 81.2442 33.3486 81.5581C33.426 81.9506 33.4353 82.3768 33.3766 82.8369C33.3178 83.297 33.2002 83.7686 33.0237 84.2519C32.8603 84.7326 32.6485 85.2093 32.3884 85.6819C32.1388 86.1388 31.8552 86.5617 31.5378 86.9504C31.9242 87.1868 32.3435 87.3148 32.7958 87.3343C33.2482 87.3538 33.749 87.3093 34.2984 87.201C34.6124 87.1391 34.9199 87.0444 35.2209 86.9171C35.5325 86.7741 35.8193 86.6088 36.0813 86.4213C36.3538 86.218 36.5936 85.9873 36.8009 85.7289C37.0082 85.4706 37.1697 85.1873 37.2856 84.8791C37.3488 84.7171 37.4301 84.6127 37.5296 84.5659C37.6422 84.5166 37.7312 84.4854 37.7966 84.4725C37.9405 84.4441 38.1012 84.4668 38.2789 84.5405C38.4565 84.6142 38.5711 84.7818 38.6227 85.0435C38.6588 85.2266 38.6204 85.4108 38.5075 85.5962C38.3157 85.933 38.1017 86.2606 37.8655 86.579C37.6267 86.8843 37.3501 87.1699 37.0356 87.4358C36.7342 87.6991 36.3793 87.9322 35.9708 88.135C35.5597 88.3248 35.0926 88.4713 34.5693 88.5745C33.5752 88.7706 32.7018 88.7866 31.9491 88.6225C31.2069 88.4427 30.5763 88.139 30.057 87.7114C29.5247 87.2863 29.1038 86.7714 28.7942 86.1665C28.469 85.5511 28.2393 84.9033 28.1052 84.2231C27.9994 83.6868 27.9916 83.1651 28.0819 82.658C28.1565 82.1405 28.3094 81.6755 28.5406 81.2629C28.7692 80.8373 29.0656 80.4798 29.4299 80.1906C29.7941 79.9013 30.2117 79.7102 30.6826 79.6173ZM30.9732 80.987C30.6331 81.0541 30.3542 81.1906 30.1366 81.3966C29.9295 81.5869 29.7655 81.8232 29.6444 82.1052C29.5208 82.3742 29.4507 82.6735 29.4342 83.0029C29.415 83.3192 29.4364 83.6344 29.4983 83.9483C29.5835 84.38 29.7131 84.7961 29.8872 85.1967C30.0457 85.5867 30.2514 85.9063 30.5044 86.1554C30.6514 85.9361 30.8195 85.6515 31.0087 85.3017C31.2084 84.9361 31.3847 84.5548 31.5374 84.1577C31.7006 83.745 31.8246 83.34 31.9093 82.9428C32.0046 82.5299 32.0199 82.1599 31.9554 81.8329C31.9038 81.5713 31.7998 81.354 31.6434 81.181C31.4974 80.9923 31.274 80.9276 30.9732 80.987ZM38.5357 85.5295C38.4228 85.7148 38.2682 85.8269 38.072 85.8656C37.8888 85.9017 37.7124 85.8685 37.5427 85.7661C37.3705 85.6506 37.2663 85.5012 37.2301 85.3181C37.2018 85.1742 37.2152 85.0357 37.2705 84.9024C37.4995 84.3409 37.6839 83.8288 37.8237 83.3664C37.9766 82.9013 38.1072 82.4611 38.2155 82.0456C38.3343 81.6144 38.4348 81.1937 38.517 80.7834C38.5991 80.3731 38.6827 79.9353 38.7676 79.4701C38.8754 79.2586 39.0091 79.1099 39.1689 79.024C39.3417 78.9356 39.4869 78.8797 39.6047 78.8565C39.7747 78.823 39.9172 78.856 40.0319 78.9557C40.1467 79.0554 40.2496 79.1982 40.3407 79.3841C40.4422 79.5543 40.5293 79.7546 40.6019 79.9849C40.685 80.1995 40.7668 80.4076 40.8473 80.6092C41.0415 80.3534 41.2501 80.0677 41.4732 79.7518C41.6938 79.423 41.9247 79.1124 42.1661 78.8202C42.4179 78.5123 42.6788 78.2502 42.9487 78.0339C43.2291 77.8019 43.5198 77.6562 43.8206 77.5969C44.3308 77.4963 44.8117 77.5917 45.2633 77.8831C45.7254 78.1589 46.1676 78.5406 46.5899 79.0281C47.0096 79.5025 47.4188 80.0266 47.8173 80.6003C48.2159 81.174 48.6132 81.7072 49.0094 82.1999C49.416 82.6768 49.8255 83.0649 50.2379 83.3641C50.6607 83.6477 51.1076 83.743 51.5786 83.6501C51.8402 83.5985 52.0771 83.4906 52.2894 83.3265C52.5147 83.1597 52.7087 82.972 52.8714 82.7632C53.0341 82.5544 53.1706 82.3508 53.2809 82.1524C53.4018 81.9383 53.4898 81.7646 53.5451 81.6314C53.6424 81.4356 53.8022 81.3157 54.0246 81.2719C54.2339 81.2306 54.4181 81.269 54.5773 81.3871C54.734 81.4921 54.8303 81.6362 54.8664 81.8193C54.8974 81.9763 54.88 82.1292 54.8142 82.2781C54.501 83.0329 54.0888 83.6647 53.5776 84.1732C53.0637 84.6687 52.4929 84.9783 51.8649 85.1021C51.2894 85.2157 50.7352 85.1619 50.2023 84.9408C49.6825 84.7172 49.1865 84.4073 48.7143 84.0112C48.2551 83.6125 47.8275 83.1668 47.4313 82.6742C47.0326 82.1684 46.6743 81.6955 46.3565 81.2553C46.208 81.0536 46.0477 80.827 45.8758 80.5755C45.7039 80.324 45.515 80.0895 45.309 79.8719C45.103 79.6543 44.8798 79.4877 44.6396 79.372C44.3967 79.2432 44.138 79.2059 43.8633 79.2601C43.6147 79.3091 43.3619 79.4745 43.1049 79.7562C42.8584 80.0223 42.6209 80.3341 42.3925 80.6917C42.1615 81.0363 41.9513 81.3835 41.7621 81.7334C41.5834 82.0676 41.4455 82.3327 41.3482 82.5285C41.6655 84.1375 41.9531 85.6301 42.2109 87.0062C42.4793 88.3667 42.7243 89.6434 42.946 90.8364C43.1703 92.0424 43.3738 93.1778 43.5566 94.2426C43.7551 95.3178 43.9484 96.3669 44.1366 97.3898C44.3247 98.4128 44.5116 99.4292 44.6972 100.439C44.8984 101.459 45.1048 102.506 45.3164 103.579C45.3371 103.683 45.3159 103.782 45.2529 103.876C45.2055 103.981 45.1347 104.07 45.0403 104.143C44.9486 104.229 44.8464 104.296 44.7339 104.346C44.6239 104.408 44.5165 104.45 44.4119 104.47C44.2811 104.496 44.1517 104.495 44.0236 104.465C43.9086 104.434 43.8357 104.339 43.8047 104.182C43.2474 101.357 42.7071 98.5484 42.1837 95.7569C41.6629 92.9785 41.1174 90.1438 40.5472 87.2528C40.3847 86.4287 40.2156 85.6059 40.04 84.7843C39.8748 83.9471 39.7071 83.0968 39.5368 82.2335C39.5575 82.3381 39.5308 82.5472 39.4567 82.8608C39.3932 83.1587 39.3008 83.4827 39.1796 83.8328C39.0714 84.1803 38.9542 84.516 38.8278 84.8399C38.7145 85.1612 38.6171 85.3911 38.5357 85.5295ZM59.6044 77.0728C59.6405 77.2559 59.6661 77.4547 59.6813 77.6692C59.6938 77.8706 59.6776 78.064 59.6326 78.2496C59.6008 78.4325 59.531 78.5958 59.4235 78.7393C59.3159 78.8828 59.1574 78.9752 58.9481 79.0165C58.8042 79.0449 58.6644 79.0249 58.5286 78.9566C58.3928 78.8882 58.3055 78.7559 58.2668 78.5597C58.2307 78.3766 58.2195 78.1817 58.2331 77.9752C58.2598 77.7661 58.2525 77.5569 58.2112 77.3476C58.1648 77.1121 58.0869 76.8896 57.9777 76.6801C57.8789 76.455 57.7473 76.2703 57.583 76.126C57.4291 75.9661 57.2438 75.8532 57.0269 75.7872C56.8231 75.7187 56.5904 75.7102 56.3288 75.7618C55.9625 75.8341 55.6352 76.0006 55.3469 76.2613C55.0691 76.5063 54.8394 76.8234 54.658 77.2126C54.487 77.586 54.3734 78.0094 54.3173 78.4825C54.2742 78.9531 54.3029 79.4434 54.4035 79.9536C54.5068 80.4769 54.7003 80.9415 54.9843 81.3476C55.2656 81.7406 55.6086 82.067 56.0132 82.327C56.4283 82.5713 56.8829 82.7398 57.3769 82.8327C57.8839 82.9229 58.4056 82.9152 58.9419 82.8094C59.5044 82.6985 59.9781 82.5507 60.363 82.366C60.7584 82.1657 61.0937 81.9365 61.3689 81.6784C61.6573 81.4177 61.9052 81.1241 62.1126 80.7978C62.3331 80.469 62.5629 80.1179 62.8018 79.7446C62.8518 79.6532 62.9134 79.5867 62.9867 79.545C63.0731 79.5008 63.1556 79.4709 63.2341 79.4555C63.4957 79.4039 63.6943 79.4462 63.8299 79.5826C63.9655 79.7189 64.0488 79.8656 64.0798 80.0225C64.1107 80.1795 64.1065 80.2959 64.0671 80.3716C63.6382 81.3667 63.0136 82.1966 62.1934 82.8612C61.3706 83.5127 60.3771 83.9533 59.2128 84.1829C58.5849 84.3068 57.9364 84.326 57.2672 84.2405C56.6085 84.1394 55.9893 83.9285 55.4097 83.608C54.83 83.2874 54.3292 82.8494 53.907 82.2939C53.4692 81.7279 53.1703 81.0394 53.0104 80.2284C52.9098 79.7182 52.8734 79.1546 52.9011 78.5376C52.9264 77.9074 53.0535 77.3116 53.2825 76.75C53.5114 76.1884 53.8488 75.6938 54.2944 75.2661C54.7375 74.8254 55.3254 74.5328 56.0579 74.3883C56.4896 74.3032 56.8988 74.3108 57.2855 74.4112C57.6723 74.5116 58.0196 74.6877 58.3275 74.9396C58.6459 75.1757 58.9157 75.4759 59.137 75.8399C59.3583 76.204 59.5141 76.6149 59.6044 77.0728ZM62.9639 80.1611C62.8762 79.7163 62.8775 79.2404 62.9677 78.7334C63.058 78.2263 63.2292 77.7509 63.4814 77.307C63.7441 76.8475 64.0865 76.447 64.5084 76.1056C64.9434 75.7616 65.4486 75.5328 66.0242 75.4193C66.2204 75.3806 66.431 75.3458 66.656 75.3151C66.8915 75.2686 67.1059 75.2535 67.2994 75.2697C67.4928 75.2859 67.66 75.3413 67.801 75.4358C67.955 75.5277 68.0527 75.6783 68.094 75.8876C68.4075 75.9617 68.7001 76.0671 68.9717 76.2038C69.2407 76.3274 69.4861 76.5032 69.7077 76.7313C69.9399 76.9437 70.1353 77.211 70.2939 77.533C70.4657 77.8525 70.5967 78.2412 70.687 78.699C70.6973 78.7513 70.739 78.7907 70.8122 78.817C70.8827 78.8303 70.9651 78.8344 71.0593 78.8294C71.1665 78.8219 71.2672 78.8156 71.3613 78.8106C71.466 78.79 71.5575 78.7719 71.636 78.7564C72.0808 78.6687 72.4302 78.5455 72.6843 78.3866C72.9358 78.2147 73.1665 77.9721 73.3766 77.6589C73.4291 77.5806 73.4985 77.5193 73.5849 77.4751C73.6818 77.4152 73.763 77.3788 73.8284 77.3659C74.0508 77.3221 74.2363 77.367 74.385 77.5008C74.5311 77.6215 74.621 77.7668 74.6545 77.9369C74.67 78.0154 74.6658 78.0977 74.6421 78.184C74.6157 78.2571 74.5959 78.329 74.5827 78.3995C74.5034 78.6869 74.3616 78.9324 74.1571 79.1358C73.9526 79.3392 73.7207 79.5072 73.4615 79.6399C73.2153 79.77 72.951 79.8765 72.6683 79.9594C72.3962 80.0267 72.1424 80.0835 71.9069 80.13C71.6715 80.1764 71.4465 80.2072 71.232 80.2223C71.0176 80.2374 70.8529 80.2292 70.7379 80.1975C70.7199 81.0708 70.4682 81.7931 69.983 82.3645C69.5003 82.949 68.7618 83.3392 67.7676 83.5353C67.0482 83.6772 66.4075 83.6677 65.8458 83.5067C65.2971 83.3431 64.8192 83.0908 64.4122 82.7498C64.0183 82.4062 63.7016 82.0065 63.4623 81.5509C63.2203 81.0822 63.0542 80.6189 62.9639 80.1611ZM65.1148 78.1468C65.0864 78.0029 65.0698 77.8499 65.065 77.6878C65.0733 77.523 65.0973 77.3688 65.1369 77.2251C64.9613 77.3685 64.8131 77.5472 64.6922 77.7613C64.5688 77.9623 64.4714 78.1922 64.4001 78.4508C64.3393 78.6939 64.3073 78.9448 64.304 79.2037C64.2981 79.4495 64.3171 79.6835 64.361 79.9059C64.4461 80.3376 64.6007 80.708 64.8248 81.0172C65.0488 81.3263 65.3083 81.5741 65.6033 81.7606C65.9114 81.9444 66.2288 82.0721 66.5554 82.1436C66.8821 82.2151 67.1959 82.2211 67.4967 82.1618C68.0592 82.0508 68.4926 81.8363 68.7967 81.5181C69.114 81.1973 69.2708 80.7518 69.2671 80.1818C68.9795 80.1706 68.6135 80.1408 68.169 80.0926C67.7377 80.0417 67.3052 79.9504 66.8715 79.8185C66.4483 79.6709 66.0683 79.4672 65.7317 79.2075C65.4056 78.932 65.2 78.5785 65.1148 78.1468ZM67.3348 76.6897C67.2563 76.7052 67.1543 76.7389 67.0286 76.7908C66.9134 76.8272 66.8087 76.8818 66.7144 76.9548C66.6175 77.0146 66.5401 77.1046 66.4822 77.2248C66.4244 77.3449 66.4122 77.49 66.4458 77.6601C66.4871 77.8694 66.5964 78.0448 66.7739 78.1865C66.9513 78.3282 67.1706 78.4412 67.4319 78.5256C67.6932 78.61 67.978 78.6761 68.2864 78.724C68.608 78.7693 68.9269 78.8015 69.2432 78.8207L69.2123 78.6637C69.1117 78.1535 68.8775 77.7241 68.5097 77.3753C68.1419 77.0265 67.7503 76.798 67.3348 76.6897ZM74.9145 81.1269C74.679 81.1733 74.4818 81.1035 74.3228 80.9174C74.1612 80.7182 74.0519 80.5088 73.995 80.289C73.7571 79.2894 73.5345 78.4364 73.3271 77.7298C73.1198 77.0232 72.9175 76.4108 72.7202 75.8925C72.5202 75.3612 72.3319 74.8887 72.1552 74.4751C71.9628 74.0509 71.777 73.6255 71.5977 73.1988C71.5483 73.0863 71.5002 72.9802 71.4534 72.8807C71.404 72.7682 71.3677 72.653 71.3445 72.5353C71.3058 72.3391 71.3494 72.181 71.4752 72.061C71.588 71.9437 71.7621 71.8617 71.9975 71.8153C72.1414 71.7869 72.2929 71.8658 72.4519 72.0519C72.5978 72.2405 72.7488 72.4893 72.9049 72.7983C73.0453 73.0968 73.1869 73.4358 73.3297 73.8153C73.4856 74.1923 73.6259 74.5587 73.7504 74.9147C73.8724 75.2576 73.9814 75.569 74.0774 75.8491C74.1708 76.1161 74.2475 76.298 74.3074 76.3949L78.2541 74.5972C78.0728 73.9535 77.929 73.4314 77.8229 73.0311C77.7168 72.6307 77.6339 72.3141 77.5744 72.0812C77.5149 71.8483 77.4683 71.6808 77.4345 71.5788C77.4113 71.461 77.3945 71.376 77.3842 71.3237C77.3612 71.138 77.4217 70.9969 77.5658 70.9005C77.7073 70.7911 77.8565 70.7209 78.0135 70.6899C78.1181 70.6693 78.2371 70.6866 78.3703 70.7419C78.5009 70.7841 78.6051 70.9334 78.6829 71.1899C78.7243 71.3312 78.7749 71.4843 78.8346 71.6492C78.8943 71.8141 78.9669 72.0444 79.0524 72.3401C79.1379 72.6358 79.2493 73.0283 79.3866 73.5177C79.5213 73.9939 79.6975 74.6115 79.9151 75.3704C80.0032 75.6792 80.1279 76.0012 80.2891 76.3363C80.4634 76.6689 80.6587 76.9701 80.875 77.24C81.0888 77.4968 81.3131 77.704 81.548 77.8615C81.7934 78.0034 82.0326 78.0446 82.2655 77.985C82.4486 77.9489 82.6201 77.8539 82.7801 77.7001C82.9531 77.5436 83.1196 77.3545 83.2797 77.1327C83.4372 76.8978 83.5974 76.6419 83.7603 76.3652C83.9231 76.0884 84.0978 75.8026 84.2842 75.5076C84.3262 75.4449 84.3826 75.3863 84.4534 75.3315C84.5241 75.2768 84.6118 75.2391 84.7165 75.2185C84.8996 75.1824 85.0708 75.2233 85.23 75.3414C85.3997 75.4439 85.5039 75.5932 85.5426 75.7894C85.5709 75.9333 85.5575 76.0719 85.5022 76.2051C85.0055 77.132 84.5211 77.8799 84.0489 78.4487C83.5898 79.0149 83.0855 79.3522 82.5361 79.4606C82.0913 79.5483 81.6653 79.4896 81.2579 79.2846C80.8479 79.0664 80.4709 78.7739 80.1267 78.4069C79.7825 78.0399 79.4776 77.6311 79.2121 77.1807C78.9597 76.7276 78.7751 76.3087 78.6585 75.924L74.7118 77.7217C74.8205 78.1352 74.9345 78.5408 75.0537 78.9386C75.186 79.3338 75.2908 79.7276 75.3682 80.12C75.4121 80.3424 75.3998 80.5555 75.3312 80.7593C75.2627 80.963 75.1238 81.0856 74.9145 81.1269ZM88.727 73.5101C88.6419 73.0785 88.5319 72.6585 88.397 72.2502C88.2621 71.8419 88.0904 71.4884 87.882 71.1898C87.6736 70.8911 87.4193 70.6695 87.119 70.5249C86.8186 70.3803 86.4526 70.3505 86.0209 70.4357C85.6939 70.5002 85.4176 70.6498 85.1921 70.8845C84.9771 71.1036 84.8039 71.362 84.6723 71.6598C84.5513 71.9418 84.4759 72.2489 84.4463 72.5809C84.4141 72.8998 84.4225 73.1836 84.4715 73.4321C84.5489 73.8246 84.7073 74.2146 84.9469 74.6022C85.1864 74.9899 85.4653 75.3358 85.7835 75.64C86.1122 75.9285 86.462 76.1517 86.8329 76.3096C87.2012 76.4544 87.5554 76.4932 87.8955 76.4261C88.2749 76.3513 88.5541 76.0788 88.7332 75.6086C88.9097 75.1253 88.9076 74.4258 88.727 73.5101ZM89.681 73.1793C89.8916 73.627 90.0382 74.0601 90.1208 74.4787C90.2859 75.316 90.2042 76.0388 89.8757 76.6471C89.5473 77.2555 88.9775 77.6397 88.1664 77.7997C87.6563 77.9003 87.1243 77.8557 86.5704 77.666C86.0271 77.4606 85.5127 77.1611 85.0274 76.7676C84.5552 76.3715 84.1433 75.9023 83.7917 75.3601C83.4245 74.8074 83.1815 74.2301 83.0628 73.6284C82.97 73.1575 82.9699 72.675 83.0628 72.1811C83.153 71.674 83.319 71.2064 83.5607 70.7782C83.7894 70.3526 84.091 69.9873 84.4658 69.6824C84.8405 69.3774 85.2634 69.1785 85.7343 69.0856C86.2052 68.9927 86.6497 69.007 87.0678 69.1284C87.4832 69.2367 87.8724 69.4182 88.2352 69.6728C88.598 69.9274 88.9436 70.233 89.2721 70.5895C89.5981 70.9329 89.9135 71.292 90.2185 71.6667C90.4035 71.9156 90.634 72.2575 90.91 72.6923C91.186 73.1271 91.4738 73.5528 91.7734 73.9693C92.0861 74.3833 92.3937 74.7371 92.6963 75.0308C93.0093 75.3088 93.2967 75.422 93.5583 75.3704C93.833 75.3163 94.0504 75.1782 94.2105 74.9564C94.368 74.7215 94.5033 74.4773 94.6165 74.224C94.7401 73.955 94.8623 73.7135 94.9832 73.4994C95.1014 73.2722 95.2587 73.1392 95.4549 73.1005C95.6773 73.0567 95.8615 73.0951 96.0076 73.2158C96.1538 73.3364 96.2449 73.4883 96.281 73.6715C96.312 73.8284 96.2841 73.997 96.1973 74.1772C96.0737 74.4462 95.9317 74.7256 95.7714 75.0155C95.6086 75.2922 95.4222 75.5532 95.2124 75.7985C95.0156 76.0411 94.798 76.2471 94.5596 76.4164C94.3343 76.5832 94.0908 76.6924 93.8292 76.744C93.4106 76.8265 92.9976 76.7653 92.5902 76.5602C92.1959 76.3526 91.8149 76.0744 91.4471 75.7257C91.0768 75.3638 90.7379 74.955 90.4306 74.4992C90.1363 74.0408 89.8865 73.6008 89.681 73.1793ZM94.9598 73.9524C94.9236 73.7693 94.9607 73.6125 95.0708 73.4821C95.1784 73.3385 95.3434 73.2448 95.5658 73.201C95.6443 73.1855 95.7319 73.1818 95.8286 73.1899C95.9228 73.1849 95.9854 73.2269 96.0166 73.3159C96.2187 73.9963 96.4619 74.4716 96.7463 74.7417C97.0411 74.9961 97.3389 75.0936 97.6398 75.0343C98.1369 74.9363 98.5414 74.7138 98.8535 74.3668C99.1656 74.0199 99.4021 73.5995 99.5629 73.1057C99.7212 72.5988 99.8233 72.0487 99.8693 71.4552C99.9128 70.8487 99.917 70.2499 99.882 69.6588C99.8574 69.0521 99.8054 68.478 99.7257 67.9365C99.6435 67.3819 99.5625 66.9019 99.4825 66.4964C99.4386 66.274 99.4418 66.0491 99.4921 65.8217C99.5424 65.5944 99.6918 65.4562 99.9404 65.4072C100.058 65.384 100.165 65.4104 100.262 65.4865C100.369 65.5469 100.461 65.6374 100.54 65.7579C100.628 65.8627 100.709 65.9963 100.782 66.1586C100.852 66.3078 100.916 66.4583 100.973 66.6102C101.193 67.1782 101.52 67.8681 101.952 68.6798C102.397 69.489 102.96 70.4855 103.642 71.6692C103.744 71.8395 103.857 72.0346 103.982 72.2546C104.117 72.4589 104.263 72.6476 104.42 72.8206C104.576 72.9936 104.732 73.1326 104.889 73.2376C105.059 73.34 105.222 73.3757 105.379 73.3448C105.562 73.3087 105.747 73.2111 105.933 73.0521C106.13 72.8774 106.314 72.6779 106.488 72.4534C106.671 72.2134 106.841 71.9693 106.996 71.7213C107.164 71.4707 107.316 71.2436 107.452 71.0401C107.568 70.8678 107.719 70.7361 107.904 70.6451C108.101 70.5384 108.301 70.5533 108.504 70.6898C108.661 70.7949 108.765 70.9442 108.817 71.1378C108.879 71.3158 108.85 71.5118 108.729 71.7259C108.585 71.9583 108.394 72.2336 108.158 72.552C107.935 72.8678 107.69 73.1744 107.422 73.4718C107.152 73.7561 106.876 74.0077 106.593 74.2266C106.31 74.4455 106.057 74.5769 105.835 74.6208C105.285 74.7291 104.779 74.6454 104.317 74.3696C103.868 74.0912 103.448 73.7188 103.057 73.2523C102.677 72.7702 102.327 72.2345 102.007 71.6453C101.684 71.043 101.389 70.4761 101.121 69.9445C101.166 70.6559 101.13 71.3697 101.013 72.0858C100.909 72.7994 100.713 73.4566 100.423 74.0572C100.147 74.6553 99.7862 75.1682 99.3406 75.5958C98.8923 76.0104 98.3542 76.2796 97.7263 76.4034C97.3208 76.4834 96.9652 76.472 96.6595 76.3692C96.3513 76.2533 96.0851 76.0748 95.8608 75.8336C95.6235 75.5951 95.4321 75.3134 95.2865 74.9888C95.1383 74.6511 95.0294 74.3056 94.9598 73.9524ZM106.319 65.8615C106.301 65.702 106.324 65.5752 106.387 65.4812C106.434 65.3768 106.493 65.2972 106.564 65.2424C106.645 65.172 106.744 65.1252 106.862 65.102C106.901 65.0943 106.962 65.0892 107.043 65.0868C107.124 65.0844 107.207 65.0951 107.294 65.1189C107.393 65.14 107.483 65.1834 107.564 65.249C107.642 65.3015 107.693 65.3866 107.716 65.5044C107.77 65.7791 107.836 66.1127 107.914 66.5051C107.988 66.8845 108.066 67.2769 108.146 67.6824C108.223 68.0749 108.299 68.4608 108.374 68.8401C108.459 69.2038 108.538 69.5008 108.611 69.7311C108.759 69.3079 108.97 68.9672 109.245 68.7091C109.52 68.4509 109.822 68.2896 110.149 68.2251C110.358 68.1838 110.592 68.1988 110.851 68.2701C111.107 68.3283 111.353 68.4427 111.591 68.6133C111.828 68.7839 112.044 69.0133 112.236 69.3015C112.426 69.5765 112.562 69.9168 112.642 70.3224C112.699 70.3382 112.754 70.341 112.806 70.3306C112.859 70.3203 112.917 70.3087 112.983 70.2958C113.166 70.2597 113.336 70.1922 113.493 70.0932C113.664 69.9917 113.826 69.8849 113.981 69.7729C114.146 69.6452 114.3 69.5332 114.444 69.4368C114.601 69.3378 114.752 69.2742 114.896 69.2458C115.092 69.2071 115.266 69.2612 115.417 69.408C115.566 69.5418 115.657 69.6937 115.69 69.8637C115.729 70.0599 115.672 70.2546 115.52 70.4477C115.381 70.6382 115.199 70.8169 114.974 70.9836C114.759 71.1347 114.526 71.2622 114.274 71.3661C114.023 71.4701 113.799 71.5414 113.603 71.5801C113.433 71.6136 113.262 71.6406 113.089 71.6611C112.927 71.6659 112.765 71.6707 112.603 71.6755C112.542 71.9185 112.443 72.1758 112.306 72.4474C112.167 72.7059 111.993 72.9577 111.783 73.203C111.57 73.4351 111.332 73.6385 111.067 73.813C110.803 73.9875 110.52 74.1044 110.219 74.1637C109.944 74.2179 109.672 74.2172 109.403 74.1615C109.131 74.0928 108.883 73.9719 108.659 73.7987C108.435 73.6255 108.235 73.4067 108.061 73.1421C107.873 72.8801 107.739 72.5803 107.659 72.2428C107.654 72.2166 107.624 72.0662 107.57 71.7915C107.5 71.5063 107.424 71.1544 107.341 70.7358C107.256 70.3041 107.158 69.841 107.047 69.3465C106.933 68.8389 106.831 68.3562 106.741 67.8983C106.648 67.4274 106.566 67.0088 106.493 66.6425C106.408 66.2788 106.35 66.0185 106.319 65.8615ZM109.255 70.9291C109.194 71.1722 109.152 71.4048 109.128 71.627C109.103 71.8492 109.109 72.0519 109.146 72.235C109.184 72.4312 109.29 72.6211 109.462 72.8046C109.644 72.9724 109.886 73.0267 110.187 72.9673C110.422 72.9209 110.615 72.8286 110.764 72.6904C110.911 72.5391 111.021 72.3747 111.095 72.197C111.179 72.0038 111.229 71.8104 111.246 71.6169C111.259 71.4104 111.251 71.2286 111.22 71.0717C111.189 70.9147 111.137 70.755 111.064 70.5927C110.991 70.4304 110.901 70.285 110.795 70.1566C110.701 70.0256 110.586 69.926 110.45 69.8576C110.327 69.7867 110.194 69.7654 110.05 69.7938C109.893 69.8247 109.745 69.9355 109.606 70.126C109.464 70.3034 109.347 70.5712 109.255 70.9291ZM115.845 73.0542C115.609 73.1006 115.412 73.0308 115.253 72.8447C115.091 72.6455 114.982 72.4361 114.925 72.2163C114.687 71.2167 114.465 70.3637 114.257 69.6571C114.05 68.9505 113.848 68.3381 113.65 67.8198C113.45 67.2885 113.262 66.816 113.085 66.4024C112.893 65.9782 112.707 65.5528 112.528 65.1261C112.479 65.0136 112.43 64.9075 112.384 64.808C112.334 64.6955 112.298 64.5803 112.275 64.4626C112.236 64.2664 112.28 64.1083 112.405 63.9883C112.518 63.871 112.692 63.789 112.928 63.7426C113.072 63.7142 113.223 63.7931 113.382 63.9792C113.528 64.1678 113.679 64.4166 113.835 64.7256C113.976 65.0241 114.117 65.3631 114.26 65.7426C114.416 66.1196 114.556 66.486 114.681 66.842C114.803 67.1849 114.912 67.4963 115.008 67.7764C115.101 68.0434 115.178 68.2253 115.238 68.3222L119.184 66.5245C119.003 65.8808 118.859 65.3587 118.753 64.9584C118.647 64.558 118.564 64.2414 118.505 64.0085C118.445 63.7756 118.399 63.6081 118.365 63.5061C118.342 63.3883 118.325 63.3033 118.314 63.251C118.291 63.0653 118.352 62.9242 118.496 62.8278C118.638 62.7184 118.787 62.6482 118.944 62.6172C119.048 62.5966 119.167 62.6139 119.301 62.6692C119.431 62.7114 119.535 62.8607 119.613 63.1172C119.655 63.2585 119.705 63.4116 119.765 63.5765C119.825 63.7414 119.897 63.9717 119.983 64.2674C120.068 64.5631 120.18 64.9556 120.317 65.445C120.452 65.9212 120.628 66.5388 120.845 67.2977C120.933 67.6065 121.058 67.9285 121.219 68.2636C121.394 68.5962 121.589 68.8974 121.805 69.1673C122.019 69.4241 122.243 69.6313 122.478 69.7888C122.724 69.9307 122.963 69.9719 123.196 69.9123C123.379 69.8762 123.55 69.7812 123.71 69.6274C123.883 69.471 124.05 69.2818 124.21 69.06C124.367 68.8251 124.528 68.5692 124.691 68.2925C124.853 68.0157 125.028 67.7299 125.214 67.4349C125.256 67.3722 125.313 67.3136 125.384 67.2588C125.454 67.2041 125.542 67.1664 125.647 67.1458C125.83 67.1097 126.001 67.1506 126.16 67.2687C126.33 67.3712 126.434 67.5205 126.473 67.7167C126.501 67.8606 126.488 67.9992 126.432 68.1324C125.936 69.0593 125.451 69.8072 124.979 70.376C124.52 70.9422 124.016 71.2795 123.466 71.3879C123.022 71.4756 122.596 71.4169 122.188 71.2119C121.778 70.9937 121.401 70.7012 121.057 70.3342C120.713 69.9672 120.408 69.5584 120.142 69.108C119.89 68.6549 119.705 68.2361 119.589 67.8514L115.642 69.649C115.751 70.0625 115.865 70.4681 115.984 70.8659C116.116 71.2611 116.221 71.6549 116.298 72.0473C116.342 72.2697 116.33 72.4828 116.261 72.6866C116.193 72.8904 116.054 73.0129 115.845 73.0542ZM123.86 62.4018C123.842 62.2422 123.865 62.1155 123.928 62.0215C123.975 61.917 124.034 61.8374 124.105 61.7827C124.186 61.7123 124.286 61.6655 124.404 61.6423C124.443 61.6346 124.503 61.6295 124.584 61.6271C124.678 61.6221 124.768 61.6315 124.855 61.6553C124.954 61.6765 125.037 61.7211 125.105 61.7893C125.184 61.8418 125.234 61.9269 125.258 62.0447C125.307 62.2932 125.361 62.6019 125.42 62.9708C125.492 63.337 125.57 63.7295 125.652 64.1481C125.753 64.6583 125.859 65.1606 125.97 65.6551C126.078 66.1365 126.173 66.512 126.253 66.7816C126.327 66.604 126.404 66.412 126.486 66.2056C126.581 65.9967 126.683 65.793 126.794 65.5945C126.917 65.3935 127.066 65.2213 127.242 65.078C127.415 64.9216 127.619 64.8201 127.855 64.7737C128.103 64.7247 128.346 64.7515 128.584 64.8541C128.832 64.941 129.063 65.0789 129.277 65.2678C129.491 65.4566 129.674 65.6924 129.824 65.9752C129.986 66.2424 130.105 66.5382 130.183 66.8626C130.251 66.8628 130.344 66.8513 130.462 66.8281C130.749 66.7713 131.028 66.6688 131.298 66.5205C131.568 66.3721 131.885 66.1533 132.249 65.864C132.192 65.5762 132.134 65.3159 132.074 65.083C132.015 64.8501 131.957 64.6238 131.9 64.404C131.856 64.1816 131.804 63.954 131.745 63.7211C131.696 63.4726 131.64 63.1913 131.578 62.8774C131.537 62.668 131.488 62.4195 131.431 62.1317C131.385 61.8283 131.362 61.5406 131.363 61.2686C131.374 60.981 131.427 60.7327 131.522 60.5238C131.614 60.3018 131.778 60.1675 132.013 60.1211C132.249 60.0747 132.413 60.1509 132.507 60.3499C132.598 60.5358 132.668 60.753 132.717 61.0016L133.235 63.6309C133.282 63.8664 133.337 64.1476 133.402 64.4747C133.464 64.7886 133.527 65.1091 133.591 65.4362C133.669 65.7606 133.736 66.0667 133.793 66.3545C133.85 66.6423 133.895 66.8712 133.928 67.0413C134.294 67.377 134.611 67.5726 134.88 67.6283C135.147 67.6708 135.483 67.6521 135.888 67.5721C136.228 67.505 136.512 67.3267 136.741 67.037C136.979 66.7317 137.188 66.4119 137.367 66.0777C137.543 65.7304 137.711 65.4118 137.871 65.122C138.032 64.8322 138.203 64.6692 138.387 64.6331C138.583 64.5944 138.761 64.6341 138.92 64.7522C139.079 64.8703 139.177 65.0209 139.213 65.204C139.246 65.3741 139.233 65.5126 139.172 65.6197C139.017 66.0037 138.851 66.3693 138.675 66.7166C138.51 67.0483 138.305 67.3537 138.061 67.6328C137.83 67.9094 137.538 68.1505 137.184 68.3561C136.844 68.5592 136.418 68.711 135.908 68.8116C135.542 68.8839 135.22 68.8725 134.944 68.7777C134.667 68.6828 134.415 68.5422 134.188 68.356L134.315 69.0035C134.339 69.1212 134.304 69.2231 134.213 69.3092C134.131 69.3795 134.027 69.4342 133.898 69.4731C133.77 69.5119 133.646 69.5365 133.526 69.5466C133.421 69.5672 133.349 69.5814 133.31 69.5892C133.231 69.6046 133.162 69.5299 133.102 69.365C133.043 69.2001 132.983 69.0012 132.924 68.7684C132.877 68.5329 132.822 68.2856 132.757 68.0266C132.705 67.765 132.65 67.5517 132.59 67.3868C132.357 67.5823 132.083 67.745 131.769 67.8749C131.452 67.9917 131.137 68.0811 130.823 68.143C130.587 68.1895 130.361 68.2137 130.144 68.2158C130.083 68.4588 129.985 68.7161 129.848 68.9877C129.709 69.2462 129.534 69.498 129.324 69.7433C129.112 69.9754 128.873 70.1788 128.609 70.3533C128.344 70.5278 128.061 70.6447 127.761 70.704C127.525 70.7504 127.282 70.7576 127.031 70.7256C126.79 70.6779 126.562 70.5871 126.345 70.4531C126.129 70.3192 125.932 70.1474 125.754 69.9377C125.577 69.7281 125.438 69.4701 125.337 69.1639L125.325 69.1051C125.32 69.0789 125.321 69.0514 125.329 69.0227C125.324 68.9965 125.316 68.9573 125.306 68.905C125.257 68.6564 125.177 68.2849 125.066 67.7904C124.939 67.2854 124.808 66.7267 124.674 66.1145C124.524 65.4918 124.378 64.8546 124.236 64.2031C124.094 63.5517 123.969 62.9512 123.86 62.4018ZM126.796 67.4694C126.736 67.7125 126.693 67.9451 126.669 68.1673C126.645 68.3895 126.651 68.5921 126.687 68.7753C126.726 68.9715 126.831 69.1614 127.003 69.3449C127.186 69.5127 127.428 69.567 127.728 69.5076C127.964 69.4612 128.156 69.3689 128.306 69.2307C128.453 69.0794 128.563 68.9149 128.637 68.7373C128.721 68.5441 128.771 68.3507 128.787 68.1572C128.801 67.9507 128.792 67.7689 128.761 67.612C128.73 67.455 128.678 67.2953 128.605 67.133C128.533 66.9707 128.443 66.8253 128.336 66.6969C128.242 66.5659 128.127 66.4662 127.992 66.3979C127.869 66.327 127.736 66.3057 127.592 66.3341C127.435 66.365 127.287 66.4758 127.148 66.6663C127.006 66.8437 126.889 67.1114 126.796 67.4694ZM136.407 58.5818C136.397 58.3935 136.453 58.2669 136.576 58.2018C136.697 58.1237 136.809 58.0743 136.914 58.0537C137.084 58.0201 137.257 58.0337 137.432 58.0943C137.604 58.1418 137.703 58.231 137.729 58.3618C137.822 58.8327 137.9 59.2997 137.965 59.7627C138.042 60.2231 138.123 60.6692 138.208 61.1009C138.355 61.8465 138.539 62.5713 138.759 63.2753C138.977 63.9662 139.245 64.5657 139.563 65.0739C139.88 65.582 140.256 65.97 140.689 66.2379C141.136 66.5032 141.66 66.5765 142.261 66.4578C142.942 66.3236 143.45 66.006 143.786 65.5048C144.119 64.9906 144.347 64.3884 144.469 63.6984C144.604 63.0058 144.659 62.2817 144.632 61.5259C144.618 60.7675 144.589 60.0667 144.543 59.4233C144.518 58.9525 144.543 58.6284 144.616 58.4507C144.703 58.2705 144.871 58.1559 145.119 58.1069C145.303 58.0708 145.461 58.0804 145.594 58.1356C145.727 58.1909 145.85 58.3638 145.961 58.6544C146.081 58.9842 146.222 59.3572 146.386 59.7734C146.549 60.1896 146.729 60.6163 146.924 61.0535C147.132 61.4881 147.358 61.9123 147.603 62.3261C147.845 62.7268 148.098 63.0779 148.361 63.3793C148.637 63.6782 148.927 63.9064 149.23 64.0641C149.533 64.2218 149.848 64.2684 150.175 64.2039C150.384 64.1626 150.565 64.0794 150.717 63.9543C150.882 63.8266 151.029 63.6754 151.157 63.5005C151.296 63.31 151.432 63.0999 151.563 62.8701C151.694 62.6403 151.832 62.4093 151.977 62.177C152.037 62.0699 152.11 61.9943 152.197 61.95C152.283 61.9058 152.366 61.876 152.444 61.8605C152.68 61.8141 152.865 61.859 153.001 61.9953C153.147 62.116 153.237 62.2614 153.27 62.4314C153.294 62.5492 153.288 62.659 153.254 62.7609C153.212 62.8915 153.129 63.0913 153.005 63.3603C152.895 63.6267 152.726 63.9113 152.501 64.214C152.286 64.5011 152.006 64.7736 151.663 65.0316C151.333 65.287 150.926 65.4624 150.442 65.5578C149.788 65.6868 149.218 65.6566 148.732 65.467C148.243 65.2643 147.818 64.9677 147.456 64.5771C147.106 64.184 146.808 63.74 146.561 63.2451C146.324 62.7346 146.13 62.2294 145.977 61.7295C146.019 62.3598 145.992 63.0108 145.893 63.6826C145.805 64.3387 145.627 64.9514 145.359 65.5208C145.09 66.0901 144.726 66.5833 144.264 67.0005C143.803 67.4176 143.226 67.6946 142.532 67.8313C141.656 68.0042 140.895 67.9368 140.25 67.6291C139.615 67.3058 139.074 66.835 138.626 66.2167C138.162 65.5879 137.788 64.8599 137.502 64.0329C137.217 63.2058 136.989 62.3606 136.819 61.4972C136.718 60.9871 136.633 60.4874 136.564 59.9982C136.492 59.496 136.439 59.0238 136.407 58.5818ZM137.309 53.9598C137.304 53.9336 137.293 53.9088 137.274 53.8852C137.269 53.859 137.264 53.8329 137.259 53.8067C137.23 53.6628 137.275 53.5453 137.393 53.454C137.524 53.3603 137.662 53.2992 137.805 53.2708C138.028 53.2269 138.195 53.2483 138.307 53.3349C138.529 53.495 138.763 53.68 139.008 53.8898C139.266 54.0971 139.535 54.2887 139.814 54.4646C140.091 54.6275 140.375 54.7551 140.665 54.8473C140.968 54.9371 141.27 54.9522 141.57 54.8929C141.963 54.8155 142.28 54.6647 142.521 54.4404C142.773 54.2005 142.992 53.9331 143.178 53.6381C143.378 53.3406 143.569 53.0377 143.753 52.7297C143.95 52.419 144.195 52.1464 144.489 51.9119C144.515 51.9067 144.535 51.9028 144.548 51.9003C144.558 51.8846 144.576 51.8742 144.603 51.869C144.747 51.8406 144.886 51.8606 145.022 51.929C145.155 51.9842 145.236 52.0838 145.265 52.2277C145.267 52.2408 145.263 52.2552 145.253 52.2708C145.255 52.2839 145.258 52.297 145.26 52.3101C145.171 52.6132 145.043 52.9645 144.877 53.3642C144.711 53.7638 144.489 54.1541 144.211 54.5352C143.933 54.9162 143.593 55.2618 143.193 55.5719C142.802 55.8663 142.326 56.069 141.763 56.1799C141.331 56.2651 140.886 56.2443 140.426 56.1175C139.976 55.9751 139.544 55.7818 139.129 55.5375C138.727 55.2906 138.362 55.0229 138.033 54.7344C137.717 54.4433 137.476 54.1851 137.309 53.9598ZM175.211 57.676C175.237 57.6028 175.29 57.5245 175.369 57.441C175.46 57.355 175.578 57.2978 175.722 57.2694C175.879 57.2384 176.046 57.2598 176.224 57.3335C176.402 57.4072 176.508 57.5356 176.545 57.7187C176.581 57.9019 176.529 58.1567 176.39 58.4832C176.263 58.8071 176.078 59.1766 175.834 59.5917C175.6 59.9912 175.324 60.4193 175.006 60.876C174.699 61.3171 174.384 61.753 174.062 62.1836C173.752 62.6116 173.451 63.0174 173.16 63.401C172.882 63.7821 172.646 64.1004 172.452 64.3562C172.514 64.6022 172.564 64.8232 172.603 65.0195C172.655 65.2131 172.698 65.4015 172.735 65.5846C172.784 65.7652 172.828 65.9536 172.866 66.1498C172.918 66.3434 172.97 66.5711 173.022 66.8327C173.158 67.526 173.296 68.3278 173.435 69.2382C173.576 70.1616 173.669 71.115 173.714 72.0983C173.771 73.0791 173.754 74.0609 173.663 75.0439C173.571 76.0268 173.354 76.9258 173.012 77.7407C172.673 78.5687 172.187 79.2761 171.555 79.8627C170.923 80.4494 170.097 80.8433 169.077 81.0446C168.58 81.1426 168.094 81.157 167.618 81.0878C167.142 81.0185 166.704 80.867 166.305 80.6332C165.892 80.402 165.544 80.0834 165.26 79.6773C164.966 79.2869 164.762 78.8039 164.648 78.2283C164.488 77.4173 164.461 76.587 164.565 75.7374C164.672 74.9009 164.879 74.0582 165.187 73.2092C165.485 72.3758 165.851 71.5426 166.284 70.7096C166.734 69.8871 167.214 69.0856 167.726 68.3052C168.238 67.5247 168.756 66.7703 169.278 66.0422C169.816 65.3245 170.327 64.646 170.813 64.0067C170.759 63.7999 170.7 63.6076 170.638 63.4296C170.589 63.249 170.533 63.0698 170.471 62.8918C170.424 62.7243 170.368 62.5451 170.304 62.354C170.254 62.1734 170.201 61.9733 170.144 61.7535C170.185 62.1667 170.136 62.5706 169.996 62.9651C169.856 63.3595 169.655 63.7185 169.393 64.0421C169.133 64.3787 168.815 64.659 168.438 64.8829C168.063 65.1198 167.66 65.2809 167.228 65.366C166.653 65.4795 166.113 65.4637 165.608 65.3185C165.107 65.1865 164.663 64.9682 164.277 64.6639C163.877 64.3621 163.547 63.9991 163.287 63.5748C163.027 63.1505 162.851 62.7094 162.761 62.2515C162.686 61.8722 162.653 61.4982 162.662 61.1295C162.668 60.7477 162.719 60.4184 162.814 60.1415C162.896 59.8671 163.024 59.6923 163.2 59.6169C163.375 59.5415 163.495 59.4974 163.561 59.4845C163.862 59.4252 164.056 59.4819 164.145 59.6547C164.231 59.8144 164.297 60.012 164.343 60.2475C164.403 60.5484 164.424 60.8635 164.407 61.193C164.404 61.5198 164.431 61.8271 164.487 62.1149C164.544 62.4027 164.645 62.6749 164.791 62.9316C164.937 63.1882 165.115 63.4044 165.327 63.5802C165.551 63.7534 165.806 63.873 166.091 63.9392C166.391 64.0158 166.718 64.0193 167.071 63.9496C167.634 63.8387 168.059 63.5509 168.348 63.0862C168.65 62.6189 168.854 62.069 168.961 61.4365C169.08 60.8014 169.118 60.1347 169.076 59.4364C169.046 58.7356 168.976 58.1039 168.865 57.5414C168.832 57.3713 168.871 57.2276 168.984 57.1102C169.107 56.9772 169.247 56.8952 169.404 56.8642C169.561 56.8333 169.705 56.8389 169.836 56.8811C169.979 56.9207 170.09 57.0347 170.168 57.2232C170.316 57.5609 170.475 57.985 170.643 58.4953C170.812 59.0057 170.977 59.5304 171.137 60.0695C171.308 60.5929 171.468 61.0915 171.616 61.5652C171.761 62.0258 171.878 62.3765 171.966 62.6173C172.288 62.2547 172.59 61.8894 172.871 61.5215C173.165 61.1509 173.435 60.7646 173.682 60.3626C173.942 59.958 174.198 59.5338 174.45 59.0899C174.702 58.646 174.956 58.1747 175.211 57.676ZM168.806 79.671C169.683 79.4982 170.367 79.1117 170.861 78.5116C171.367 77.9089 171.734 77.1842 171.961 76.3376C172.188 75.491 172.298 74.5656 172.29 73.5615C172.295 72.5548 172.241 71.5597 172.129 70.5762C172.03 69.5901 171.9 68.6575 171.74 67.7785C171.583 66.9125 171.446 66.1852 171.33 65.5966C170.9 66.1707 170.456 66.7814 170 67.4287C169.543 68.076 169.09 68.7429 168.641 69.4294C168.208 70.1264 167.805 70.8379 167.431 71.5638C167.058 72.2898 166.745 73.0107 166.492 73.7265C166.242 74.4553 166.071 75.1753 165.98 75.8863C165.89 76.5973 165.91 77.2864 166.042 77.9535C166.103 78.2675 166.219 78.5437 166.388 78.7821C166.56 79.0336 166.769 79.2302 167.014 79.3721C167.262 79.527 167.541 79.6284 167.849 79.6763C168.16 79.7373 168.479 79.7355 168.806 79.671ZM178.928 59.7968C178.692 59.8433 178.428 59.8478 178.136 59.8104C177.843 59.773 177.536 59.6977 177.214 59.5844C176.893 59.4711 176.572 59.3238 176.251 59.1425C175.927 58.9481 175.624 58.7224 175.343 58.4654C175.311 58.4444 175.276 58.4038 175.237 58.3436C175.195 58.2702 175.165 58.1878 175.147 58.0962C175.109 57.9 175.155 57.721 175.286 57.5592C175.417 57.3974 175.574 57.2985 175.758 57.2624C175.954 57.2237 176.167 57.27 176.397 57.4014C176.626 57.5327 176.867 57.6824 177.117 57.8504C177.368 58.0185 177.627 58.1643 177.896 58.2879C178.165 58.4115 178.437 58.4462 178.712 58.392C179.039 58.3275 179.34 58.1322 179.616 57.8061C179.889 57.4669 180.116 57.0687 180.297 56.6116C180.477 56.1414 180.597 55.6488 180.658 55.1338C180.717 54.6058 180.704 54.1259 180.619 53.6942C180.557 53.3803 180.432 53.0923 180.245 52.8303C180.057 52.5683 179.838 52.3533 179.588 52.1853C179.334 52.0042 179.064 51.8741 178.777 51.7948C178.489 51.7156 178.215 51.7018 177.953 51.7534C177.678 51.8076 177.451 51.9273 177.27 52.1125C177.102 52.2951 176.95 52.4881 176.813 52.6917C176.674 52.8823 176.534 53.0662 176.392 53.2437C176.263 53.4185 176.101 53.5253 175.905 53.564C175.8 53.5846 175.692 53.5517 175.579 53.4651C175.465 53.3654 175.393 53.2436 175.365 53.0997C175.354 53.0474 175.355 52.9794 175.365 52.8958C175.434 52.556 175.557 52.2465 175.732 51.9672C175.922 51.6853 176.13 51.4335 176.358 51.2118C176.586 50.9902 176.836 50.8117 177.109 50.6765C177.378 50.5281 177.651 50.4269 177.925 50.3727C178.606 50.2385 179.262 50.3266 179.894 50.6368C180.523 50.934 181.032 51.3772 181.42 51.9666C181.578 51.6637 181.79 51.3976 182.057 51.1682C182.322 50.9257 182.651 50.7657 183.043 50.6883C183.279 50.6419 183.525 50.6138 183.781 50.604C184.048 50.5786 184.322 50.5924 184.604 50.6454C184.887 50.6985 185.171 50.7986 185.459 50.9458C185.746 51.093 186.028 51.316 186.304 51.6149C186.322 51.6384 186.343 51.6751 186.367 51.7248C186.39 51.7746 186.408 51.8322 186.421 51.8976C186.455 52.0676 186.408 52.2126 186.283 52.3326C186.17 52.45 186.061 52.519 185.957 52.5396C185.8 52.5706 185.666 52.5493 185.557 52.4758C185.416 52.3813 185.289 52.2907 185.177 52.2041C185.062 52.1045 184.93 52.0217 184.781 51.956C184.646 51.8876 184.474 51.8466 184.268 51.833C184.061 51.8194 183.795 51.8448 183.467 51.9093C183.023 51.997 182.695 52.2655 182.485 52.7147C182.285 53.1482 182.239 53.6397 182.347 54.1891C182.466 54.7909 182.613 55.292 182.787 55.6926C182.974 56.0905 183.18 56.4101 183.404 56.6513C183.626 56.8793 183.859 57.0303 184.105 57.1042C184.35 57.1781 184.604 57.1892 184.866 57.1376C185.088 57.0937 185.308 57.0028 185.525 56.8648C185.743 56.7268 185.948 56.5639 186.142 56.3761C186.347 56.1727 186.537 55.9653 186.713 55.754C186.886 55.5296 187.042 55.3221 187.181 55.1316C187.244 55.0376 187.361 54.9739 187.531 54.9403C187.714 54.9042 187.889 54.9308 188.056 55.0202C188.221 55.0965 188.328 55.2589 188.377 55.5074C188.436 55.8083 188.342 56.1257 188.095 56.4598C187.846 56.7808 187.539 57.0859 187.175 57.3752C186.808 57.6514 186.435 57.8949 186.055 58.1057C185.673 58.3034 185.377 58.4229 185.168 58.4642C184.462 58.6035 183.804 58.5089 183.196 58.1804C182.587 57.8519 182.105 57.3355 181.749 56.6312C181.63 57.0623 181.471 57.4606 181.271 57.8262C181.082 58.1761 180.859 58.4919 180.602 58.7736C180.355 59.0397 180.086 59.2625 179.796 59.4422C179.505 59.6218 179.216 59.74 178.928 59.7968ZM187.249 55.6482C187.162 55.2034 187.163 54.7275 187.253 54.2205C187.343 53.7134 187.515 53.238 187.767 52.7941C188.03 52.3346 188.372 51.9341 188.794 51.5927C189.229 51.2487 189.734 51.0199 190.31 50.9064C190.506 50.8677 190.716 50.833 190.941 50.8022C191.177 50.7557 191.391 50.7406 191.585 50.7568C191.778 50.773 191.945 50.8284 192.086 50.9229C192.24 51.0148 192.338 51.1654 192.379 51.3747C192.693 51.4488 192.986 51.5542 193.257 51.6909C193.526 51.8145 193.771 51.9903 193.993 52.2184C194.225 52.4308 194.421 52.6981 194.579 53.0201C194.751 53.3396 194.882 53.7283 194.972 54.1861C194.983 54.2384 195.024 54.2778 195.098 54.3041C195.168 54.3174 195.251 54.3215 195.345 54.3166C195.452 54.309 195.553 54.3027 195.647 54.2977C195.751 54.2771 195.843 54.259 195.921 54.2436C196.366 54.1558 196.716 54.0326 196.97 53.8737C197.221 53.7018 197.452 53.4593 197.662 53.146C197.714 53.0677 197.784 53.0065 197.87 52.9622C197.967 52.9023 198.048 52.866 198.114 52.8531C198.336 52.8092 198.522 52.8541 198.67 52.9879C198.817 53.1086 198.906 53.2539 198.94 53.424C198.955 53.5025 198.951 53.5848 198.927 53.6711C198.901 53.7442 198.881 53.8161 198.868 53.8866C198.789 54.1741 198.647 54.4195 198.442 54.6229C198.238 54.8263 198.006 54.9944 197.747 55.127C197.501 55.2571 197.236 55.3636 196.954 55.4465C196.682 55.5138 196.428 55.5707 196.192 55.6171C195.957 55.6635 195.732 55.6943 195.517 55.7094C195.303 55.7246 195.138 55.7163 195.023 55.6846C195.005 56.5579 194.754 57.2803 194.268 57.8516C193.786 58.4361 193.047 58.8263 192.053 59.0224C191.334 59.1643 190.693 59.1548 190.131 58.9938C189.582 58.8302 189.105 58.5779 188.698 58.2369C188.304 57.8933 187.987 57.4937 187.748 57.038C187.506 56.5693 187.34 56.106 187.249 55.6482ZM189.4 53.6339C189.372 53.49 189.355 53.337 189.35 53.1749C189.359 53.0102 189.383 52.8559 189.422 52.7122C189.247 52.8556 189.098 53.0343 188.978 53.2484C188.854 53.4494 188.757 53.6793 188.686 53.938C188.625 54.181 188.593 54.4319 188.589 54.6908C188.584 54.9366 188.603 55.1707 188.646 55.393C188.732 55.8247 188.886 56.1951 189.11 56.5043C189.334 56.8134 189.594 57.0612 189.889 57.2477C190.197 57.4316 190.514 57.5592 190.841 57.6307C191.168 57.7022 191.481 57.7082 191.782 57.6489C192.345 57.5379 192.778 57.3234 193.082 57.0052C193.399 56.6844 193.556 56.239 193.552 55.6689C193.265 55.6577 192.899 55.6279 192.454 55.5797C192.023 55.5289 191.591 55.4375 191.157 55.3056C190.734 55.158 190.354 54.9544 190.017 54.6946C189.691 54.4192 189.485 54.0656 189.4 53.6339ZM191.62 52.1768C191.542 52.1923 191.44 52.226 191.314 52.278C191.199 52.3143 191.094 52.3689 191 52.4419C190.903 52.5017 190.825 52.5918 190.768 52.7119C190.71 52.832 190.698 52.9771 190.731 53.1472C190.772 53.3565 190.882 53.532 191.059 53.6736C191.237 53.8153 191.456 53.9283 191.717 54.0127C191.979 54.0971 192.263 54.1632 192.572 54.2111C192.893 54.2564 193.212 54.2886 193.529 54.3078L193.498 54.1508C193.397 53.6406 193.163 53.2112 192.795 52.8624C192.427 52.5137 192.036 52.2851 191.62 52.1768ZM206.378 66.8586C206.653 66.8045 206.867 66.6874 207.022 66.5073C207.193 66.3378 207.312 66.1172 207.381 65.8454C207.452 65.5867 207.482 65.2887 207.47 64.9514C207.457 64.614 207.413 64.2491 207.335 63.8567C207.24 63.3727 207.108 62.8755 206.939 62.3651C206.786 61.8653 206.624 61.3876 206.453 60.9322C206.281 60.4767 206.111 60.0618 205.942 59.6874C205.773 59.3131 205.634 59.0211 205.525 58.8116C205.247 59.0567 205.009 59.4025 204.812 59.8492C204.63 60.3063 204.485 60.8106 204.376 61.362C204.281 61.9109 204.23 62.4782 204.223 63.0639C204.232 63.6601 204.287 64.2133 204.387 64.7235C204.526 65.4299 204.752 65.9901 205.065 66.4041C205.378 66.8181 205.815 66.9696 206.378 66.8586ZM197.47 53.6323C197.396 53.117 197.404 52.5718 197.494 51.9968C197.572 51.4243 197.743 50.8809 198.008 50.3664C198.284 49.8364 198.662 49.3745 199.142 48.981C199.621 48.5874 200.227 48.3184 200.96 48.1739C201.496 48.0681 201.968 48.0837 202.376 48.2208C202.781 48.3448 203.125 48.5418 203.41 48.8119C203.707 49.0794 203.94 49.4004 204.109 49.7747C204.289 50.1335 204.415 50.4959 204.487 50.8622C204.531 51.0846 204.55 51.3527 204.544 51.6665C204.551 51.9776 204.526 52.2678 204.471 52.537C204.588 52.7857 204.71 53.0606 204.837 53.3617C204.978 53.6602 205.113 53.9665 205.243 54.2806C205.386 54.5921 205.522 54.905 205.652 55.2191C205.779 55.5202 205.894 55.7898 205.995 56.028C206.404 55.4852 206.739 55.0115 206.999 54.6069C207.256 54.1892 207.477 53.7923 207.661 53.4163C207.858 53.0376 208.036 52.6629 208.194 52.292C208.365 51.9185 208.553 51.4941 208.758 51.0187C208.803 50.9012 208.868 50.8203 208.955 50.7761C209.052 50.7162 209.146 50.6772 209.237 50.6592C209.42 50.623 209.598 50.6627 209.77 50.7782C209.94 50.8807 210.046 51.0365 210.087 51.2458C210.11 51.3636 210.105 51.4734 210.07 51.5753C209.791 52.2283 209.532 52.8094 209.293 53.3186C209.064 53.8123 208.824 54.281 208.571 54.7248C208.317 55.1556 208.034 55.585 207.725 56.013C207.431 56.4516 207.082 56.9213 206.678 57.4223C206.797 57.6841 206.954 58.0336 207.149 58.4708C207.357 58.9054 207.561 59.3884 207.761 59.9198C207.974 60.4486 208.173 61.0074 208.357 61.5962C208.557 62.1955 208.715 62.7895 208.831 63.3782C208.947 63.9669 209.012 64.5384 209.026 65.0928C209.041 65.6472 208.975 66.1425 208.83 66.5788C208.688 67.0282 208.45 67.408 208.117 67.7183C207.787 68.0417 207.334 68.2601 206.758 68.3737C206.183 68.4872 205.665 68.4806 205.205 68.3538C204.761 68.2376 204.373 68.0287 204.042 67.7271C203.713 67.4386 203.443 67.0705 203.233 66.6228C203.025 66.1881 202.868 65.7026 202.762 65.1663C202.636 64.5253 202.581 63.8362 202.599 63.0988C202.632 62.372 202.735 61.6518 202.907 60.9384C203.079 60.225 203.318 59.5458 203.626 58.9007C203.936 58.2687 204.305 57.7271 204.733 57.2759C204.52 56.7471 204.304 56.2393 204.086 55.7523C203.87 55.2784 203.629 54.7483 203.364 54.1618C203.183 54.415 202.957 54.6497 202.688 54.8661C202.418 55.0824 202.137 55.2804 201.847 55.46C201.553 55.6266 201.256 55.7735 200.955 55.9009C200.651 56.0151 200.375 56.0967 200.127 56.1458C199.721 56.2257 199.368 56.2274 199.068 56.1508C198.78 56.0716 198.538 55.9428 198.339 55.7645C198.125 55.5756 197.957 55.3437 197.835 55.0689C197.71 54.7809 197.616 54.4734 197.551 54.1464C197.536 54.0679 197.52 53.9894 197.505 53.9109C197.487 53.8193 197.475 53.7265 197.47 53.6323ZM201.2 49.3904C200.886 49.4524 200.572 49.6163 200.257 49.8821C199.956 50.1454 199.692 50.4624 199.466 50.8332C199.24 51.2039 199.068 51.6048 198.949 52.0359C198.841 52.4514 198.824 52.8488 198.899 53.2282C198.989 53.686 199.141 54.0774 199.355 54.4022C199.566 54.7139 199.861 54.8324 200.24 54.7576C200.633 54.6802 201.011 54.5308 201.375 54.3095C201.737 54.0751 202.05 53.8027 202.315 53.4922C202.58 53.1818 202.778 52.8437 202.91 52.4779C203.039 52.0991 203.066 51.72 202.991 51.3407C202.952 51.1445 202.888 50.9194 202.797 50.6655C202.719 50.4091 202.606 50.18 202.457 49.9782C202.322 49.7739 202.147 49.6113 201.933 49.4904C201.732 49.367 201.488 49.3337 201.2 49.3904ZM28.1471 130C28.3369 130.411 28.4938 130.897 28.6178 131.457C28.7444 132.03 28.8529 132.545 28.9432 133.003C29.0825 133.709 29.2085 134.486 29.3213 135.334C29.4472 136.179 29.5221 137.041 29.5459 137.919C29.5697 138.798 29.5229 139.663 29.4056 140.515C29.3013 141.365 29.0966 142.153 28.7913 142.879C28.4886 143.618 28.0607 144.273 27.5074 144.845C26.9672 145.413 26.2705 145.843 25.4173 146.133C25.2027 146.216 24.9972 146.277 24.801 146.316C24.3301 146.409 23.8594 146.4 23.389 146.289C22.9212 146.191 22.4916 146.011 22.1 145.748C21.7085 145.485 21.376 145.143 21.1026 144.722C20.8186 144.316 20.6238 143.844 20.518 143.308C20.2832 142.118 20.3191 140.921 20.6256 139.719C20.9321 138.517 21.3863 137.341 21.9882 136.189C22.6058 135.048 23.3056 133.945 24.0876 132.88C24.8697 131.815 25.6111 130.82 26.3117 129.893C26.1193 129.469 25.8901 129.134 25.6241 128.887C25.3737 128.651 25.1074 128.473 24.8253 128.352C24.5589 128.241 24.2871 128.173 24.01 128.146C23.746 128.116 23.5042 128.096 23.2846 128.085C23.0649 128.074 22.8859 128.062 22.7473 128.048C22.6062 128.022 22.5253 127.956 22.5046 127.851C22.4943 127.799 22.4828 127.706 22.4701 127.573C22.4548 127.426 22.4473 127.285 22.4477 127.149C22.4455 127 22.4602 126.868 22.4919 126.753C22.5236 126.638 22.5721 126.574 22.6375 126.561C22.8886 126.525 23.1413 126.394 23.3956 126.167C23.6498 125.94 23.8741 125.665 24.0685 125.341C24.2603 125.005 24.3998 124.644 24.4871 124.26C24.585 123.86 24.5977 123.477 24.5255 123.111C24.4197 122.574 24.2181 122.207 23.9205 122.007C23.6203 121.794 23.2479 121.732 22.8031 121.82C22.463 121.887 22.1305 122.027 21.8057 122.241C21.494 122.452 21.2133 122.786 20.9637 123.242C20.7245 123.684 20.4945 124.137 20.2736 124.602C20.0633 125.051 19.8647 125.457 19.6781 125.82C19.502 126.167 19.3224 126.359 19.1392 126.395C18.9168 126.439 18.7326 126.401 18.5865 126.28C18.4273 126.162 18.3309 126.018 18.2974 125.848C18.2742 125.73 18.335 125.453 18.48 125.017C18.6119 124.583 18.8041 124.11 19.0565 123.598C19.3089 123.086 19.5991 122.594 19.9272 122.122C20.2684 121.647 20.6158 121.307 20.9694 121.101C21.2234 120.942 21.4905 120.815 21.7706 120.719C22.0611 120.607 22.3372 120.525 22.5988 120.474C23.5014 120.296 24.2424 120.435 24.8217 120.892C25.401 121.348 25.777 122.015 25.9499 122.891C26.0454 123.375 26.0638 123.813 26.0052 124.205C25.9467 124.597 25.8346 124.959 25.6689 125.291C25.5164 125.62 25.3182 125.924 25.0742 126.203C24.8434 126.48 24.5903 126.747 24.3151 127.005C24.4772 127 24.6903 127.013 24.9543 127.042C25.2158 127.058 25.4928 127.119 25.7854 127.225C26.078 127.33 26.3678 127.49 26.6549 127.706C26.9419 127.921 27.183 128.213 27.3782 128.582C27.7273 128.078 28.0659 127.59 28.394 127.118C28.7221 126.646 29.045 126.181 29.3626 125.724C29.6777 125.254 29.9927 124.784 30.3077 124.315C30.6228 123.845 30.947 123.353 31.2805 122.839C31.4014 122.624 31.573 122.495 31.7954 122.452C31.9262 122.426 32.0817 122.456 32.2619 122.543C32.4395 122.617 32.5515 122.771 32.598 123.007C32.6315 123.177 32.6023 123.339 32.5104 123.493C32.1531 124.093 31.796 124.66 31.439 125.192C31.0819 125.725 30.717 126.252 30.3443 126.774C29.9847 127.293 29.6186 127.814 29.2458 128.336C28.8888 128.869 28.5225 129.423 28.1471 130ZM24.8601 144.755C25.5795 144.613 26.1557 144.296 26.5884 143.803C27.0238 143.323 27.3561 142.734 27.5855 142.036C27.8174 141.352 27.9594 140.59 28.0113 139.751C28.0632 138.912 28.0615 138.076 28.0062 137.244C27.964 136.41 27.8811 135.611 27.7576 134.847C27.6472 134.081 27.5366 133.416 27.4256 132.854C27.3714 132.579 27.3094 132.299 27.2396 132.014C27.1723 131.742 27.0959 131.458 27.0104 131.162C26.3885 132.005 25.7441 132.907 25.0774 133.867C24.4132 134.841 23.8196 135.828 23.2966 136.828C22.7892 137.838 22.4034 138.845 22.1393 139.849C21.8777 140.865 21.8385 141.838 22.0217 142.767C22.1842 143.591 22.5279 144.162 23.0526 144.48C23.5904 144.795 24.1929 144.887 24.8601 144.755ZM35.9073 120.621C35.8222 120.19 35.7122 119.77 35.5773 119.361C35.4424 118.953 35.2708 118.6 35.0624 118.301C34.854 118.002 34.5996 117.781 34.2993 117.636C33.999 117.491 33.633 117.462 33.2013 117.547C32.8742 117.611 32.598 117.761 32.3725 117.996C32.1575 118.215 31.9842 118.473 31.8527 118.771C31.7316 119.053 31.6563 119.36 31.6266 119.692C31.5944 120.011 31.6028 120.295 31.6518 120.543C31.7292 120.936 31.8877 121.326 32.1272 121.713C32.3668 122.101 32.6456 122.447 32.9638 122.751C33.2925 123.04 33.6423 123.263 34.0132 123.421C34.3816 123.566 34.7358 123.604 35.0759 123.537C35.4552 123.462 35.7345 123.19 35.9135 122.72C36.09 122.236 36.0879 121.537 35.9073 120.621ZM36.8614 120.29C37.072 120.738 37.2186 121.171 37.3011 121.59C37.4662 122.427 37.3846 123.15 37.0561 123.758C36.7276 124.367 36.1578 124.751 35.3468 124.911C34.8366 125.011 34.3046 124.967 33.7508 124.777C33.2074 124.572 32.6931 124.272 32.2077 123.879C31.7355 123.483 31.3236 123.013 30.972 122.471C30.6048 121.919 30.3619 121.341 30.2432 120.74C30.1503 120.269 30.1503 119.786 30.2431 119.292C30.3334 118.785 30.4994 118.318 30.7411 117.889C30.9697 117.464 31.2714 117.098 31.6461 116.794C32.0209 116.489 32.4437 116.29 32.9146 116.197C33.3856 116.104 33.83 116.118 34.2481 116.24C34.6636 116.348 35.0527 116.529 35.4155 116.784C35.7783 117.039 36.124 117.344 36.4525 117.701C36.7784 118.044 37.0939 118.403 37.3988 118.778C37.5838 119.027 37.8143 119.369 38.0903 119.803C38.3664 120.238 38.6542 120.664 38.9538 121.08C39.2665 121.494 39.5741 121.848 39.8766 122.142C40.1897 122.42 40.477 122.533 40.7386 122.482C41.0133 122.427 41.2307 122.289 41.3908 122.068C41.5484 121.833 41.6837 121.589 41.7968 121.335C41.9204 121.066 42.0426 120.825 42.1635 120.611C42.2818 120.383 42.439 120.25 42.6352 120.212C42.8576 120.168 43.0419 120.206 43.188 120.327C43.3341 120.448 43.4252 120.6 43.4613 120.783C43.4923 120.94 43.4644 121.108 43.3776 121.288C43.254 121.557 43.1121 121.837 42.9518 122.127C42.7889 122.403 42.6026 122.664 42.3927 122.91C42.196 123.152 41.9784 123.358 41.74 123.528C41.5146 123.694 41.2712 123.804 41.0095 123.855C40.5909 123.938 40.1779 123.876 39.7706 123.671C39.3763 123.464 38.9952 123.186 38.6275 122.837C38.2571 122.475 37.9183 122.066 37.6109 121.61C37.3167 121.152 37.0668 120.712 36.8614 120.29ZM55.1395 101.07C55.7881 101.051 56.0868 101.325 56.0356 101.892C55.9226 102.078 55.7562 102.233 55.5362 102.358C55.3267 102.467 55.0872 102.562 54.8176 102.642C54.5455 102.71 54.259 102.773 53.9581 102.832C53.6547 102.878 53.3656 102.929 53.0909 102.983C53.1862 103.535 53.2776 104.067 53.3651 104.58C53.4501 105.08 53.5468 105.604 53.6551 106.154C54.4219 105.907 55.127 105.761 55.7704 105.716C56.4138 105.671 57.0961 105.754 57.8172 105.965C58.5645 106.171 59.2095 106.512 59.7521 106.99C60.3078 107.464 60.7809 108.037 61.1714 108.707C61.5723 109.362 61.8998 110.093 62.1539 110.899C62.4186 111.689 62.636 112.516 62.8063 113.379C62.9482 114.099 63.0339 114.809 63.0634 115.51C63.0903 116.198 63.0389 116.867 62.909 117.518C62.7922 118.166 62.5892 118.79 62.3 119.391C62.0107 119.992 61.6183 120.552 61.1227 121.071C60.3018 122.007 59.198 122.612 57.8114 122.886C57.6544 122.917 57.4608 122.934 57.2307 122.939C57.0032 122.957 56.7835 122.946 56.5718 122.906C56.3601 122.866 56.176 122.794 56.0194 122.689C55.8653 122.597 55.7768 122.458 55.7538 122.272C55.7307 122.086 55.8201 121.919 56.0218 121.771C56.2993 121.662 56.6094 121.58 56.9521 121.526C57.109 121.495 57.2542 121.473 57.3876 121.461C57.5367 121.458 57.6714 121.452 57.7917 121.442C57.9251 121.429 58.0572 121.41 58.188 121.384C58.3188 121.359 58.4536 121.318 58.5923 121.264C59.4693 120.887 60.1231 120.378 60.5536 119.735C60.9947 119.078 61.2829 118.368 61.4183 117.608C61.5511 116.834 61.5702 116.035 61.4757 115.212C61.3942 114.385 61.2747 113.607 61.1171 112.877C61.0189 112.448 60.8997 112.016 60.7597 111.581C60.6327 111.144 60.4678 110.722 60.2649 110.313C60.0751 109.902 59.8565 109.517 59.6091 109.158C59.359 108.786 59.0697 108.456 58.7409 108.168C58.3627 107.834 57.975 107.592 57.578 107.439C57.1809 107.286 56.764 107.205 56.3274 107.196C55.8881 107.174 55.4082 107.221 54.8875 107.338C54.3799 107.451 53.8121 107.604 53.184 107.796C52.8413 107.85 52.6047 107.822 52.4743 107.712C52.3543 107.586 52.2504 107.334 52.1625 106.958L52.1354 106.82L51.9612 105.937C51.8322 105.283 51.7241 104.666 51.6367 104.085C51.5493 103.504 51.4346 102.888 51.2925 102.237C51.2489 101.946 51.4652 101.734 51.9414 101.599C52.4072 101.48 52.9108 101.381 53.4523 101.301C53.9938 101.222 54.5562 101.145 55.1395 101.07ZM75.7951 114.446C75.759 114.263 75.8025 114.105 75.9258 113.972C76.0465 113.826 76.1853 113.737 76.3423 113.706C76.5385 113.668 76.6862 113.693 76.7853 113.782C76.8975 113.869 77.0122 114.002 77.1294 114.183C77.244 114.351 77.3847 114.547 77.5514 114.773C77.7156 114.985 77.9556 115.202 78.2714 115.426C78.6342 115.68 78.9893 115.862 79.3368 115.97C79.6974 116.075 80.0281 116.098 80.329 116.039C80.7607 115.954 81.0959 115.759 81.3347 115.453C81.5709 115.135 81.7011 114.831 81.7254 114.54C81.8068 113.437 81.8017 112.412 81.7101 111.465C81.6185 110.518 81.5304 109.693 81.446 108.99C81.3747 108.283 81.3448 107.718 81.3564 107.295C81.368 106.871 81.5111 106.632 81.7858 106.578C81.9951 106.537 82.152 106.54 82.2565 106.587C82.3715 106.619 82.4952 106.799 82.6277 107.126C82.6848 107.278 82.79 107.535 82.9433 107.899C83.0966 108.263 83.2864 108.674 83.5127 109.132C83.739 109.591 83.9953 110.063 84.2816 110.55C84.568 111.038 84.8727 111.48 85.1959 111.879C85.5296 112.261 85.8753 112.567 86.2329 112.795C86.588 113.011 86.9486 113.082 87.3149 113.01C87.6027 112.953 87.8256 112.705 87.9837 112.266C88.1548 111.825 88.2583 111.247 88.2942 110.534C88.3406 109.804 88.3246 108.965 88.246 108.015C88.1649 107.053 88.0304 106.026 87.8424 104.935C87.7908 104.674 87.8162 104.458 87.9186 104.288C88.0341 104.116 88.1835 104.012 88.3666 103.976C88.5759 103.934 88.747 104.009 88.8798 104.201C89.0101 104.379 89.1571 104.676 89.3207 105.092C89.4843 105.508 89.6921 106.045 89.944 106.702C90.1933 107.346 90.5351 108.114 90.9694 109.007C91.3543 109.787 91.7226 110.449 92.0741 110.991C92.4231 111.52 92.7515 111.944 93.0592 112.264C93.3669 112.584 93.6487 112.807 93.9046 112.933C94.171 113.044 94.4089 113.079 94.6182 113.037C95.0368 112.955 95.3995 112.761 95.7062 112.456C96.013 112.151 96.2793 111.813 96.5052 111.442C96.7311 111.071 96.919 110.715 97.0689 110.373C97.2294 110.015 97.3674 109.75 97.4829 109.578C97.517 109.544 97.5694 109.499 97.6401 109.445C97.7214 109.374 97.8209 109.327 97.9386 109.304C98.1217 109.268 98.2929 109.309 98.4521 109.427C98.6087 109.532 98.7051 109.676 98.7412 109.859C98.7696 110.003 98.7614 110.134 98.7166 110.252C98.5667 110.594 98.3525 110.989 98.0741 111.438C97.8063 111.872 97.4966 112.3 97.145 112.722C96.804 113.129 96.4331 113.488 96.0321 113.798C95.6312 114.108 95.2215 114.304 94.8029 114.387C93.9395 114.557 93.0815 114.203 92.2287 113.325C91.376 112.447 90.4961 110.983 89.5889 108.933C89.6393 109.67 89.6348 110.371 89.5755 111.035C89.5267 111.684 89.4232 112.261 89.2649 112.768C89.1041 113.262 88.886 113.672 88.6106 113.998C88.3325 114.311 88.0039 114.505 87.6245 114.58C87.2059 114.662 86.785 114.63 86.3618 114.482C85.9516 114.332 85.5443 114.093 85.1399 113.765C84.746 113.421 84.3627 112.994 83.9902 112.483C83.6176 111.972 83.2648 111.39 82.9319 110.735C82.982 111.541 83.0192 112.315 83.0433 113.057C83.0806 113.798 83.0357 114.465 82.9086 115.061C82.7945 115.655 82.567 116.155 82.226 116.562C81.8876 116.982 81.3848 117.258 80.7176 117.389C80.3121 117.469 79.848 117.459 79.3253 117.358C78.8051 117.27 78.3035 117.104 77.8204 116.86C77.3347 116.602 76.9029 116.273 76.5248 115.872C76.1467 115.471 75.9034 114.996 75.7951 114.446ZM95.9581 103.253C95.9481 103.065 96.0047 102.938 96.1278 102.873C96.2482 102.795 96.3608 102.746 96.4655 102.725C96.6355 102.691 96.8081 102.705 96.9831 102.765C97.1556 102.813 97.2547 102.902 97.2805 103.033C97.3734 103.504 97.4519 103.971 97.516 104.434C97.5932 104.894 97.6744 105.34 97.7596 105.772C97.9066 106.518 98.0904 107.243 98.3107 107.947C98.5286 108.637 98.7963 109.237 99.114 109.745C99.4316 110.253 99.8071 110.641 100.24 110.909C100.687 111.174 101.211 111.248 101.813 111.129C102.493 110.995 103.001 110.677 103.337 110.176C103.671 109.662 103.898 109.06 104.021 108.37C104.156 107.677 104.21 106.953 104.183 106.197C104.17 105.439 104.14 104.738 104.095 104.095C104.07 103.624 104.094 103.3 104.168 103.122C104.255 102.942 104.422 102.827 104.671 102.778C104.854 102.742 105.012 102.752 105.145 102.807C105.279 102.862 105.401 103.035 105.513 103.326C105.632 103.655 105.774 104.028 105.937 104.445C106.101 104.861 106.28 105.287 106.475 105.725C106.683 106.159 106.91 106.584 107.154 106.997C107.396 107.398 107.649 107.749 107.912 108.051C108.189 108.349 108.478 108.578 108.781 108.735C109.084 108.893 109.399 108.94 109.726 108.875C109.935 108.834 110.116 108.751 110.268 108.626C110.433 108.498 110.58 108.347 110.709 108.172C110.848 107.981 110.983 107.771 111.114 107.541C111.246 107.312 111.384 107.081 111.528 106.848C111.588 106.741 111.662 106.665 111.748 106.621C111.835 106.577 111.917 106.547 111.996 106.532C112.231 106.485 112.417 106.53 112.552 106.667C112.698 106.787 112.788 106.933 112.822 107.103C112.845 107.22 112.839 107.33 112.805 107.432C112.763 107.563 112.68 107.763 112.556 108.032C112.446 108.298 112.278 108.583 112.052 108.885C111.837 109.172 111.558 109.445 111.214 109.703C110.884 109.958 110.477 110.134 109.993 110.229C109.339 110.358 108.769 110.328 108.283 110.138C107.795 109.936 107.369 109.639 107.007 109.248C106.658 108.855 106.359 108.411 106.112 107.916C105.876 107.406 105.681 106.901 105.528 106.401C105.571 107.031 105.543 107.682 105.444 108.354C105.356 109.01 105.178 109.623 104.91 110.192C104.642 110.761 104.277 111.255 103.816 111.672C103.354 112.089 102.777 112.366 102.084 112.503C101.207 112.675 100.446 112.608 99.8014 112.3C99.1668 111.977 98.6255 111.506 98.1774 110.888C97.7136 110.259 97.339 109.531 97.0536 108.704C96.7681 107.877 96.5403 107.032 96.37 106.168C96.2694 105.658 96.1844 105.159 96.1151 104.669C96.0432 104.167 95.9909 103.695 95.9581 103.253ZM113.107 110.288C112.872 110.334 112.674 110.264 112.515 110.078C112.354 109.879 112.245 109.67 112.188 109.45C111.95 108.45 111.727 107.597 111.52 106.891C111.313 106.184 111.11 105.572 110.913 105.053C110.713 104.522 110.525 104.049 110.348 103.636C110.155 103.212 109.97 102.786 109.79 102.36C109.741 102.247 109.693 102.141 109.646 102.041C109.597 101.929 109.56 101.814 109.537 101.696C109.498 101.5 109.542 101.342 109.668 101.222C109.781 101.104 109.955 101.023 110.19 100.976C110.334 100.948 110.486 101.027 110.645 101.213C110.791 101.401 110.942 101.65 111.098 101.959C111.238 102.258 111.38 102.597 111.522 102.976C111.678 103.353 111.819 103.719 111.943 104.075C112.065 104.418 112.174 104.73 112.27 105.01C112.363 105.277 112.44 105.459 112.5 105.556L116.447 103.758C116.265 103.114 116.122 102.592 116.016 102.192C115.909 101.791 115.827 101.475 115.767 101.242C115.708 101.009 115.661 100.842 115.627 100.74C115.604 100.622 115.587 100.537 115.577 100.484C115.554 100.299 115.614 100.158 115.758 100.061C115.9 99.9519 116.049 99.8817 116.206 99.8507C116.311 99.83 116.43 99.8474 116.563 99.9026C116.694 99.9448 116.798 100.094 116.876 100.351C116.917 100.492 116.968 100.645 117.027 100.81C117.087 100.975 117.16 101.205 117.245 101.501C117.331 101.797 117.442 102.189 117.579 102.678C117.714 103.155 117.89 103.772 118.108 104.531C118.196 104.84 118.321 105.162 118.482 105.497C118.656 105.83 118.851 106.131 119.068 106.401C119.281 106.658 119.506 106.865 119.741 107.022C119.986 107.164 120.225 107.205 120.458 107.146C120.641 107.11 120.813 107.015 120.973 106.861C121.146 106.704 121.312 106.515 121.472 106.293C121.63 106.059 121.79 105.803 121.953 105.526C122.116 105.249 122.29 104.963 122.477 104.668C122.519 104.606 122.575 104.547 122.646 104.492C122.717 104.438 122.804 104.4 122.909 104.379C123.092 104.343 123.263 104.384 123.423 104.502C123.592 104.605 123.697 104.754 123.735 104.95C123.764 105.094 123.75 105.233 123.695 105.366C123.198 106.293 122.714 107.041 122.242 107.609C121.782 108.176 121.278 108.513 120.729 108.621C120.284 108.709 119.858 108.65 119.451 108.445C119.041 108.227 118.664 107.935 118.319 107.568C117.975 107.201 117.67 106.792 117.405 106.341C117.152 105.888 116.968 105.47 116.851 105.085L112.904 106.882C113.013 107.296 113.127 107.702 113.246 108.099C113.379 108.495 113.484 108.888 113.561 109.281C113.605 109.503 113.592 109.716 113.524 109.92C113.455 110.124 113.316 110.246 113.107 110.288ZM123.074 88.5481C123.075 88.4121 123.114 88.3024 123.193 88.2189C123.269 88.1224 123.398 88.056 123.582 88.0199C123.922 87.9528 124.158 87.9809 124.291 88.1042C124.422 88.2144 124.518 88.3924 124.58 88.6384C124.763 89.7031 124.915 90.6789 125.035 91.5657C125.169 92.4499 125.28 93.2908 125.37 94.0886C125.47 94.8707 125.56 95.6411 125.642 96.3996C125.734 97.1425 125.831 97.9115 125.934 98.7067C125.993 99.1436 126.062 99.6327 126.142 100.174C126.235 100.713 126.308 101.256 126.361 101.803C126.415 102.349 126.435 102.868 126.424 103.36C126.412 103.851 126.351 104.264 126.24 104.599C126.206 104.701 126.149 104.759 126.071 104.775C125.875 104.814 125.677 104.778 125.479 104.667C125.28 104.557 125.154 104.365 125.1 104.09C125.051 103.773 124.997 103.465 124.938 103.164C124.889 102.847 124.846 102.529 124.811 102.21C124.623 100.847 124.463 99.6559 124.33 98.6358C124.194 97.6025 124.076 96.6948 123.976 95.9127C123.874 95.1175 123.783 94.4152 123.703 93.8057C123.621 93.1831 123.546 92.5933 123.477 92.0361C123.408 91.479 123.34 90.9283 123.273 90.3843C123.217 89.8245 123.151 89.2125 123.074 88.5481ZM125.215 107.981C125.189 107.782 125.207 107.595 125.267 107.42C125.341 107.243 125.441 107.094 125.567 106.974C125.703 106.838 125.859 106.733 126.034 106.658C126.22 106.567 126.414 106.515 126.615 106.502C126.882 106.477 127.104 106.535 127.282 106.677C127.472 106.816 127.591 107.003 127.637 107.238C127.704 107.579 127.669 107.884 127.533 108.156C127.409 108.425 127.059 108.616 126.484 108.73C126.183 108.789 125.912 108.761 125.672 108.645C125.434 108.543 125.282 108.321 125.215 107.981Z" fill="#9747FF"/>
</svg>
