<svg width="102" height="48" viewBox="0 0 102 48" fill="none" xmlns="http://www.w3.org/2000/svg">
<path d="M10 24.61H27" stroke="black" stroke-width="1.5" stroke-miterlimit="10" stroke-linecap="round" stroke-linejoin="round"/>
<path d="M27 22.28V29.43C26.97 32.28 26.19 33 23.22 33H13.78C10.76 33 10 32.25 10 29.27V22.28C10 19.58 10.63 18.71 13 18.57C13.24 18.56 13.5 18.55 13.78 18.55H23.22C26.24 18.55 27 19.3 27 22.28Z" stroke="black" stroke-width="1.5" stroke-linecap="round" stroke-linejoin="round"/>
<path d="M30 18.73V25.72C30 28.42 29.37 29.29 27 29.43V22.28C27 19.3 26.24 18.55 23.22 18.55H13.78C13.5 18.55 13.24 18.56 13 18.57C13.03 15.72 13.81 15 16.78 15H26.22C29.24 15 30 15.75 30 18.73Z" stroke="black" stroke-width="1.5" stroke-linecap="round" stroke-linejoin="round"/>
<path d="M13.25 29.81H14.97" stroke="black" stroke-width="1.5" stroke-miterlimit="10" stroke-linecap="round" stroke-linejoin="round"/>
<path d="M17.1104 29.81H20.5504" stroke="black" stroke-width="1.5" stroke-miterlimit="10" stroke-linecap="round" stroke-linejoin="round"/>
<path d="M41.335 29V18.38H42.79V22.73C43.03 22.73 43.26 22.74 43.48 22.76C43.71 22.77 43.935 22.785 44.155 22.805L47.995 18.38H49.585L45.64 23.15C46.81 23.55 47.725 24.23 48.385 25.19C49.045 26.15 49.505 27.42 49.765 29H48.16C48.01 28.12 47.795 27.36 47.515 26.72C47.245 26.08 46.895 25.56 46.465 25.16C46.035 24.75 45.515 24.455 44.905 24.275C44.305 24.085 43.6 24 42.79 24.02V29H41.335ZM56.114 24.395C56.114 23.855 55.959 23.45 55.649 23.18C55.349 22.91 54.924 22.775 54.374 22.775C53.974 22.775 53.594 22.85 53.234 23C52.884 23.15 52.589 23.345 52.349 23.585L51.599 22.745C51.919 22.425 52.334 22.165 52.844 21.965C53.354 21.765 53.909 21.665 54.509 21.665C54.929 21.665 55.314 21.72 55.664 21.83C56.014 21.94 56.314 22.105 56.564 22.325C56.824 22.545 57.024 22.825 57.164 23.165C57.314 23.495 57.394 23.885 57.404 24.335C57.414 24.475 57.419 24.61 57.419 24.74C57.419 24.87 57.419 25.005 57.419 25.145V27.44C57.419 27.71 57.424 27.985 57.434 28.265C57.454 28.545 57.479 28.79 57.509 29H56.249C56.229 28.83 56.209 28.655 56.189 28.475C56.179 28.295 56.174 28.12 56.174 27.95H56.144C55.854 28.38 55.509 28.695 55.109 28.895C54.709 29.085 54.239 29.18 53.699 29.18C53.429 29.18 53.144 29.14 52.844 29.06C52.554 28.99 52.284 28.87 52.034 28.7C51.794 28.52 51.594 28.295 51.434 28.025C51.274 27.745 51.194 27.4 51.194 26.99C51.194 26.45 51.334 26.025 51.614 25.715C51.894 25.395 52.264 25.155 52.724 24.995C53.184 24.825 53.709 24.72 54.299 24.68C54.889 24.63 55.494 24.605 56.114 24.605V24.395ZM55.829 25.55C55.449 25.55 55.064 25.565 54.674 25.595C54.294 25.625 53.944 25.69 53.624 25.79C53.314 25.89 53.059 26.035 52.859 26.225C52.659 26.405 52.559 26.645 52.559 26.945C52.559 27.165 52.604 27.35 52.694 27.5C52.784 27.65 52.899 27.775 53.039 27.875C53.179 27.965 53.339 28.03 53.519 28.07C53.699 28.11 53.879 28.13 54.059 28.13C54.389 28.13 54.679 28.075 54.929 27.965C55.189 27.855 55.409 27.705 55.589 27.515C55.769 27.315 55.904 27.09 55.994 26.84C56.084 26.58 56.129 26.305 56.129 26.015V25.55H55.829ZM61.2289 32.6H59.8339V21.86H61.1989V23H61.2439C61.5239 22.58 61.8939 22.255 62.3539 22.025C62.8139 21.795 63.3039 21.68 63.8239 21.68C64.3639 21.68 64.8539 21.78 65.2939 21.98C65.7439 22.17 66.1239 22.435 66.4339 22.775C66.7539 23.115 66.9989 23.515 67.1689 23.975C67.3389 24.425 67.4239 24.91 67.4239 25.43C67.4239 25.95 67.3389 26.44 67.1689 26.9C66.9989 27.35 66.7539 27.745 66.4339 28.085C66.1239 28.425 65.7439 28.695 65.2939 28.895C64.8539 29.095 64.3589 29.195 63.8089 29.195C63.3189 29.195 62.8439 29.085 62.3839 28.865C61.9239 28.645 61.5539 28.325 61.2739 27.905H61.2289V32.6ZM66.0139 25.43C66.0139 25.08 65.9589 24.75 65.8489 24.44C65.7489 24.12 65.5939 23.845 65.3839 23.615C65.1739 23.375 64.9189 23.185 64.6189 23.045C64.3189 22.905 63.9739 22.835 63.5839 22.835C63.2239 22.835 62.8889 22.905 62.5789 23.045C62.2789 23.175 62.0189 23.36 61.7989 23.6C61.5789 23.83 61.4089 24.105 61.2889 24.425C61.1689 24.735 61.1089 25.07 61.1089 25.43C61.1089 25.79 61.1689 26.13 61.2889 26.45C61.4089 26.76 61.5789 27.035 61.7989 27.275C62.0189 27.505 62.2789 27.69 62.5789 27.83C62.8889 27.96 63.2239 28.025 63.5839 28.025C63.9739 28.025 64.3189 27.955 64.6189 27.815C64.9189 27.675 65.1739 27.49 65.3839 27.26C65.5939 27.02 65.7489 26.745 65.8489 26.435C65.9589 26.115 66.0139 25.78 66.0139 25.43ZM68.3932 21.86H74.6632V22.985H72.1582V29H70.7632V22.985H68.3932V21.86ZM83.3383 25.43C83.3383 25.98 83.2383 26.485 83.0383 26.945C82.8483 27.405 82.5783 27.805 82.2283 28.145C81.8883 28.475 81.4833 28.735 81.0133 28.925C80.5433 29.105 80.0333 29.195 79.4833 29.195C78.9333 29.195 78.4233 29.105 77.9533 28.925C77.4933 28.735 77.0883 28.475 76.7383 28.145C76.3983 27.805 76.1283 27.405 75.9283 26.945C75.7383 26.485 75.6433 25.98 75.6433 25.43C75.6433 24.88 75.7383 24.375 75.9283 23.915C76.1283 23.455 76.3983 23.06 76.7383 22.73C77.0883 22.39 77.4933 22.13 77.9533 21.95C78.4233 21.76 78.9333 21.665 79.4833 21.665C80.0333 21.665 80.5433 21.76 81.0133 21.95C81.4833 22.13 81.8883 22.39 82.2283 22.73C82.5783 23.06 82.8483 23.455 83.0383 23.915C83.2383 24.375 83.3383 24.88 83.3383 25.43ZM81.9283 25.43C81.9283 25.07 81.8683 24.735 81.7483 24.425C81.6383 24.105 81.4783 23.83 81.2683 23.6C81.0583 23.36 80.8033 23.175 80.5033 23.045C80.2033 22.905 79.8633 22.835 79.4833 22.835C79.1033 22.835 78.7633 22.905 78.4633 23.045C78.1633 23.175 77.9083 23.36 77.6983 23.6C77.4883 23.83 77.3283 24.105 77.2183 24.425C77.1083 24.735 77.0533 25.07 77.0533 25.43C77.0533 25.78 77.1083 26.115 77.2183 26.435C77.3283 26.745 77.4883 27.02 77.6983 27.26C77.9083 27.49 78.1633 27.675 78.4633 27.815C78.7633 27.955 79.1033 28.025 79.4833 28.025C79.8633 28.025 80.2033 27.955 80.5033 27.815C80.8033 27.675 81.0583 27.49 81.2683 27.26C81.4783 27.02 81.6383 26.745 81.7483 26.435C81.8683 26.115 81.9283 25.78 81.9283 25.43ZM90.7811 29V23.645L86.7311 29H85.3211V21.86H86.7311V27.065L90.7811 21.86H92.1911V29H90.7811ZM87.2261 18.395L86.4011 18.8C86.4711 19.01 86.5811 19.21 86.7311 19.4C86.8811 19.58 87.0611 19.74 87.2711 19.88C87.4811 20.02 87.7161 20.135 87.9761 20.225C88.2461 20.305 88.5411 20.345 88.8611 20.345C89.1711 20.345 89.4611 20.305 89.7311 20.225C90.0011 20.135 90.2411 20.02 90.4511 19.88C90.6611 19.74 90.8361 19.58 90.9761 19.4C91.1261 19.21 91.2411 19.01 91.3211 18.8L90.4961 18.395C90.3861 18.705 90.1861 18.965 89.8961 19.175C89.6061 19.385 89.2611 19.49 88.8611 19.49C88.4611 19.49 88.1161 19.385 87.8261 19.175C87.5361 18.965 87.3361 18.705 87.2261 18.395Z" fill="black"/>
</svg>
