<svg width="58" height="127" viewBox="0 0 58 127" fill="none" xmlns="http://www.w3.org/2000/svg">
<path d="M57.4411 126.05C50.8754 124.166 32.11 119.167 31.5669 101.477C31.341 94.1162 33.4215 83.8048 36.8989 79.0557C44.3666 68.8568 56.8647 82.388 46.5661 94.8182C40.7904 101.789 32.4855 96.1789 26.6358 92.065C18.0129 86.001 13.8765 74.1043 10.2576 59.9659C8.41981 52.7857 4.25476 16.3605 5.49174 17.4316" stroke="black" stroke-opacity="0.3" stroke-linecap="round"/>
<path d="M2.95178 4.38499C4.20245 5.5642 13.6119 15.1294 12.5509 13.7007C11.1621 11.8307 9.61913 10.1511 8.37174 7.99307C6.89596 5.43996 5.07536 3.57233 3.77146 0.755712C2.62728 -1.71586 0.490146 14.5258 0.50003 17.4485" stroke="black" stroke-opacity="0.3" stroke-linecap="round"/>
</svg>
