<svg width="130" height="142" viewBox="0 0 130 142" fill="none" xmlns="http://www.w3.org/2000/svg">
<path d="M129.031 122.621C116.281 122.983 79.9048 124.394 75.9041 107.303C74.2394 100.192 76.4469 89.4262 82.2341 83.6232C94.6622 71.1612 120.603 80.1829 103.189 95.7727C93.4231 104.516 76.7535 101.822 64.9846 99.7666C47.6365 96.7366 37.8045 86.5074 28.5759 73.9158C23.8892 67.5212 9.88176 33.3518 12.4042 33.9829" stroke="black" stroke-opacity="0.3" stroke-linecap="round"/>
<path d="M5.40223 22.0956C7.96876 22.8277 27.3947 29.0125 25.1453 27.9732C22.2012 26.6129 18.997 25.4902 16.2723 23.8014C13.0486 21.8033 9.28713 20.5901 6.34468 18.2771C3.76268 16.2474 2.44446 32.8224 2.95426 35.673" stroke="black" stroke-opacity="0.3" stroke-linecap="round"/>
</svg>
