<svg width="17" height="17" viewBox="0 0 17 17" fill="none" xmlns="http://www.w3.org/2000/svg">
<g clip-path="url(#clip0_997_3693)">
<path d="M8.5 17C13.1944 17 17 13.1944 17 8.5C17 3.80558 13.1944 0 8.5 0C3.80558 0 0 3.80558 0 8.5C0 13.1944 3.80558 17 8.5 17Z" fill="url(#paint0_linear_997_3693)"/>
<path d="M6.94168 12.3962C6.66628 12.3962 6.7131 12.2922 6.61812 12.03L5.80835 9.36499L12.0417 5.66699" fill="#CBD9E8"/>
<path d="M6.94165 12.3955C7.15415 12.3955 7.248 12.2983 7.36665 12.183L8.49998 11.081L7.08629 10.2285" fill="#AFC9DE"/>
<path d="M7.08618 10.2286L10.5117 12.7594C10.9026 12.9751 11.1847 12.8634 11.2821 12.3965L12.6764 5.82581C12.8191 5.25348 12.4583 4.9938 12.0843 5.16359L3.89663 8.3207C3.33775 8.54489 3.34108 8.8567 3.79477 8.9956L5.8959 9.65145L10.7602 6.58259C10.9899 6.44334 11.2007 6.51814 11.0277 6.6717" fill="white"/>
</g>
<defs>
<linearGradient id="paint0_linear_997_3693" x1="8.5" y1="0" x2="8.5" y2="16.8739" gradientUnits="userSpaceOnUse">
<stop stop-color="#2AABEE"/>
<stop offset="1" stop-color="#229ED9"/>
</linearGradient>
<clipPath id="clip0_997_3693">
<rect width="17" height="17" fill="white"/>
</clipPath>
</defs>
</svg>
