<svg width="18" height="18" viewBox="0 0 18 18" fill="none" xmlns="http://www.w3.org/2000/svg">
<path d="M8.99996 0.666992C4.40829 0.666992 0.666626 4.40866 0.666626 9.00033C0.666626 13.592 4.40829 17.3337 8.99996 17.3337C13.5916 17.3337 17.3333 13.592 17.3333 9.00033C17.3333 4.40866 13.5916 0.666992 8.99996 0.666992ZM8.37496 5.66699C8.37496 5.32533 8.65829 5.04199 8.99996 5.04199C9.34163 5.04199 9.62496 5.32533 9.62496 5.66699V9.83366C9.62496 10.1753 9.34163 10.4587 8.99996 10.4587C8.65829 10.4587 8.37496 10.1753 8.37496 9.83366V5.66699ZM9.76663 12.6503C9.72496 12.7587 9.66663 12.842 9.59163 12.9253C9.50829 13.0003 9.41663 13.0587 9.31663 13.1003C9.21663 13.142 9.10829 13.167 8.99996 13.167C8.89163 13.167 8.78329 13.142 8.68329 13.1003C8.58329 13.0587 8.49163 13.0003 8.40829 12.9253C8.33329 12.842 8.27496 12.7587 8.23329 12.6503C8.19163 12.5503 8.16663 12.442 8.16663 12.3337C8.16663 12.2253 8.19163 12.117 8.23329 12.017C8.27496 11.917 8.33329 11.8253 8.40829 11.742C8.49163 11.667 8.58329 11.6087 8.68329 11.567C8.88329 11.4837 9.11663 11.4837 9.31663 11.567C9.41663 11.6087 9.50829 11.667 9.59163 11.742C9.66663 11.8253 9.72496 11.917 9.76663 12.017C9.80829 12.117 9.83329 12.2253 9.83329 12.3337C9.83329 12.442 9.80829 12.5503 9.76663 12.6503Z" fill="#6E6D67"/>
</svg>
