<svg width="708" height="61" viewBox="0 0 708 61" fill="none" xmlns="http://www.w3.org/2000/svg">
<path d="M27.736 26.904C42.94 26.904 49.744 33.204 49.744 42.696C49.744 53.868 41.176 60 29.5 60H0.94V58.992C5.56 58.992 7.408 58.32 7.408 52.776V8.424C7.408 2.88 5.56 2.208 0.94 2.208V1.2H44.956L45.208 20.52H44.284C43.36 8.676 38.152 2.208 28.072 2.208H21.688C17.152 2.208 15.808 3.636 15.808 8.424V27.24C20.176 26.988 24.376 26.904 27.736 26.904ZM40.84 43.788C40.84 33.708 36.388 27.996 26.476 27.996C22.696 27.996 18.412 28.164 15.808 28.332V52.776C15.808 57.564 17.152 58.992 21.604 58.992H28.156C36.388 58.992 40.84 53.616 40.84 43.788ZM86.9908 0.359997C104.463 0.359997 116.055 12.372 116.055 30.6C116.055 48.828 104.547 60.84 87.0748 60.84C69.5188 60.84 57.9268 48.828 57.9268 30.6C57.9268 12.372 69.5188 0.359997 86.9908 0.359997ZM86.9908 1.368C74.0548 1.368 67.1668 11.532 67.1668 30.6C67.1668 49.668 74.0548 59.832 87.0748 59.832C99.9268 59.832 106.815 49.668 106.815 30.6C106.815 11.532 99.9268 1.368 86.9908 1.368ZM134.684 60V58.992C139.22 58.992 143.672 58.656 143.672 52.776V4.308C143.672 2.964 143 2.208 141.656 2.208C128.216 2.208 124.352 13.38 123.344 22.62H122.42L123.68 1.2H172.064L173.324 22.62H172.4C171.476 13.38 167.528 2.208 154.088 2.208C152.828 2.208 152.072 2.964 152.072 4.308V52.776C152.072 58.656 156.524 58.992 161.06 58.992V60H134.684ZM202.938 60V58.992C207.978 58.992 210.498 57.228 208.566 51.012L204.366 38.244H184.626L182.358 45.3C178.914 56.136 182.61 58.992 188.91 58.992V60H170.43V58.992C175.05 58.908 177.57 56.052 181.014 45.3L193.698 5.82C192.606 3.048 191.514 2.208 188.322 2.208V1.2H200.754L217.386 51.852C219.234 57.396 221.25 58.992 225.114 58.992V60H202.938ZM184.962 37.068H204.03L194.37 7.668L184.962 37.068ZM228.085 60V58.992C232.705 58.992 234.553 58.32 234.553 52.776V8.424C234.553 2.88 232.705 2.208 228.085 2.208V1.2H249.505V2.208C244.885 2.208 242.953 2.88 242.953 8.424V29.088H273.697V8.424C273.697 2.88 271.765 2.208 267.145 2.208V1.2H288.649V2.208C284.029 2.208 282.097 2.88 282.097 8.424V52.776C282.097 58.32 284.029 58.992 288.649 58.992V60H267.145V58.992C271.765 58.992 273.697 58.32 273.697 52.776V30.264H242.953V52.776C242.953 58.32 244.885 58.992 249.505 58.992V60H228.085ZM294.53 60V58.992C299.15 58.992 300.998 58.32 300.998 52.776V8.424C300.998 2.88 299.15 2.208 294.53 2.208V1.2H315.95V2.208C311.33 2.208 309.398 2.88 309.398 8.424V51.768L339.638 6.996C339.302 2.796 337.37 2.208 333.17 2.208V1.2H354.674V2.208C350.054 2.208 348.122 2.88 348.122 8.424V52.776C348.122 58.32 350.054 58.992 354.674 58.992V60H333.17V58.992C337.79 58.992 339.722 58.32 339.722 52.776V9.18L309.398 53.952C309.734 58.404 311.666 58.992 315.95 58.992V60H294.53ZM393.241 60V58.992C399.037 58.992 401.389 58.236 401.389 52.188V31.944C396.769 35.556 389.797 37.488 383.077 37.488C373.501 37.488 365.521 34.044 365.521 25.308V8.508C365.521 2.88 363.673 2.208 359.053 2.208V1.2H380.473V2.208C375.853 2.208 373.921 2.88 373.921 8.508V25.14C373.921 32.952 378.961 35.472 386.941 35.472C393.073 35.472 398.113 33.372 401.389 30.516V8.424C401.389 2.88 399.541 2.208 394.921 2.208V1.2H416.341V2.208C411.721 2.208 409.789 2.88 409.789 8.424V52.776C409.789 58.32 411.721 58.992 416.341 58.992V60H393.241ZM422.253 60V58.992C426.789 58.992 428.721 58.32 428.721 52.776V8.424C428.721 2.88 426.873 2.208 422.253 2.208V1.2H466.269L466.521 21.36H465.596C464.673 9.012 459.465 2.208 449.385 2.208H443.001C438.465 2.208 437.121 3.636 437.121 8.424V29.172H442.245C450.393 29.172 453.585 25.812 453.753 16.74H454.677V42.864H453.753C453.417 33.876 450.309 30.264 442.245 30.264H437.121V52.776C437.121 57.564 438.465 58.992 443.001 58.992H449.889C460.221 58.992 467.193 51.432 470.049 38.16H470.973L467.781 60H422.253ZM507.053 1.452C494.621 1.452 488.069 11.532 488.069 30.6C488.069 49.668 494.873 59.748 507.641 59.748C517.133 59.748 527.045 51.516 527.717 37.068H528.641V60.42H527.717C527.465 57.984 526.625 56.304 524.105 56.304C519.905 56.304 516.797 60.84 505.709 60.84C490.169 60.84 478.829 48.072 478.829 30.6C478.829 13.128 489.917 0.359997 505.121 0.359997C515.369 0.359997 519.233 4.39199 523.349 4.39199C526.037 4.39199 526.625 2.796 526.709 0.779996H527.633V22.788H526.709C525.953 10.272 517.385 1.452 507.053 1.452ZM594.808 58.992V60H579.268L555.832 29.928L570.532 14.388C573.808 10.944 575.908 8.928 575.908 6.324C575.908 4.224 574.9 2.208 569.188 2.208V1.2H592.792V2.208C585.652 2.376 578.428 7.92 572.044 14.556L559.612 27.576H565.072L578.68 45.216C587.836 57.06 589.684 58.992 594.808 58.992ZM536.932 60V58.992C541.552 58.992 543.4 58.32 543.4 52.776V8.424C543.4 2.88 541.552 2.208 536.932 2.208V1.2H558.352V2.208C553.732 2.208 551.8 2.88 551.8 8.424V52.776C551.8 58.32 553.732 58.992 558.352 58.992V60H536.932ZM626.875 60V58.992C631.915 58.992 634.435 57.228 632.503 51.012L628.303 38.244H608.563L606.295 45.3C602.851 56.136 606.547 58.992 612.847 58.992V60H594.367V58.992C598.987 58.908 601.507 56.052 604.951 45.3L617.635 5.82C616.543 3.048 615.451 2.208 612.259 2.208V1.2H624.691L641.323 51.852C643.171 57.396 645.187 58.992 649.051 58.992V60H626.875ZM608.899 37.068H627.967L618.307 7.668L608.899 37.068ZM692.51 52.86V30.264C689.15 30.684 687.638 30.768 684.11 31.02C680.414 31.272 676.718 36.228 674.114 41.268L668.15 52.86C664.79 59.496 661.346 60.84 657.65 60.84C653.198 60.84 650.09 58.572 648.242 54.792L648.998 54.288C650.426 56.304 651.854 56.892 653.618 56.892C656.138 56.892 657.734 55.548 660.338 50.844L666.386 40.008C669.41 34.548 673.106 30.852 682.094 30.6C669.578 30.012 658.826 27.576 658.826 15.9C658.826 6.492 666.386 1.2 676.802 1.2H707.462V2.208C702.842 2.208 700.91 2.88 700.91 8.424V52.86C700.91 58.32 702.842 58.992 707.462 58.992V60H685.958V58.992C690.578 58.992 692.51 58.32 692.51 52.86ZM667.646 15.48C667.646 24.3 673.61 29.844 684.446 29.844C687.638 29.844 689.57 29.508 692.51 29.172V8.424C692.51 2.88 690.578 2.208 685.958 2.208H680.582C671.846 2.208 667.646 8.172 667.646 15.48Z" fill="#297230"/>
</svg>
